<?xml version="1.0" encoding="utf-8"?>
<!-- Generator: Adobe Illustrator 27.0.1, SVG Export Plug-In . SVG Version: 6.00 Build 0)  -->
<svg version="1.1" id="图层_1" xmlns="http://www.w3.org/2000/svg" xmlns:xlink="http://www.w3.org/1999/xlink" x="0px" y="0px"
	 viewBox="0 0 256 256" style="enable-background:new 0 0 256 256;" xml:space="preserve">
<g>
	<g>
		<path d="M167.2,237.2c-1,0.6-2,1.2-3,1.8c-1,0.6-1.7,0-2.3-0.7c-4-3.9-7.3-8.4-9.9-13.3c-2.4-4.6-4.6-9.3-6.5-14.1
			c-1.5-3.9-2.9-7.9-3.6-12.1c-0.8-5-1.8-9.9-2.6-14.9c-1.3-8.7-1.6-17.4-1.4-26.2c0.1-4.8,0.4-9.5,0.9-14.2
			c0.7-6.1,1.6-12.2,3.4-18.2c0.7-2.2,1.8-4.2,2.4-6.5c1.9-7.3,5.8-13.6,10.5-19.4c2.8-3.4,5.8-6.7,9.2-9.4
			c7.6-6,15.8-11.1,24.5-15.5c10-5,20.5-9,30.9-13c2.9-1.1,5.8-2.1,8.6-3.2c1-0.4,2-1,3-1.5c0.8-0.3,1.6-0.6,2.4-0.9
			c0.1,0.1,0.3,0.2,0.4,0.3c-0.3,1.6-0.5,3.2-0.9,4.8c-1.2,4.1-2.3,8.2-3.7,12.3c-1.3,3.8-3.9,6.7-7.1,9c-1,0.7-2.2,1.3-3.2,2
			c-0.5,0.4-1.1,0.9-1.3,1.5c-1.4,5.2-5.2,7.6-10.1,8.4c-1.7,0.3-3.4,0.5-5.2,0.7c-1.5,0.2-2.3,1.1-2.7,2.6c-1,4-3.3,7-6.6,9.4
			c-2.9,2-6,2.7-9.4,2.7c-3,0-6.1,0.1-9.1,0c-1.6-0.1-3.1-0.2-4.6,0.3c-1.7,0.6-2.9,2.6-2.4,4.4c0.3,1.2,0.8,2.4,1.3,3.5
			c1.9,3.6,0.8,6.4-2.8,8.8c-0.6,0.4-1.2,0.7-1.8,1c-3.6,1.5-6,4.3-7.7,7.7c-3,6.1-5.1,12.5-6.8,19.1c-1.1,4.4-2,8.9-2.5,13.5
			c-0.6,5.1-0.5,10.3,0.1,15.5c0.6,5.5,1.7,10.8,3.1,16.1c0.1,0.5,0.3,0.9,0.5,1.4c0.6,1.2,1.7,1.4,2.7,0.4c2.8-2.7,5.1-5.7,7.2-9
			c1.4-2.2,2.7-4.7,4.5-6.5c5.3-5.3,11.7-8.8,19.2-10c3.7-0.6,7.3-0.9,11-0.6c5.5,0.4,10.7,2,15.2,5.3c3.4,2.5,5.7,6,7.3,10
			c1,2.5,1.3,5.1,1.1,7.8c-0.1,0.6-0.5,1.7-1,1.8c-1.1,0.3-1.8-0.4-2.2-1.5c-0.8-2.4-2.3-4.3-4.6-5.5c-2.5-1.3-5-1.4-7.3,0.5
			c-3.1,2.4-6.1,4.9-9.3,7.2c-2,1.4-4.3,2.5-6.6,3.6c-3.6,1.8-7.1,3.6-10.9,5c-4.1,1.5-8.3,2.9-12.8,2.9c-2.1,0-4.2,0.3-6.3,0.4
			c-0.1,0-0.2,0-0.4,0c-2-0.1-2.6,0.7-2.1,2.7c1.4,5.8,4.2,11,7.3,16C164.6,233.4,165.8,235.1,167.2,237.2z"/>
		<path d="M39.2,17.1c0.2-0.2,0.3-0.6,0.6-0.7s0.7,0,0.9,0.2c2.3,1.8,4.5,3.6,6.8,5.4c4.7,3.7,9.3,7.3,14,10.9
			c5.1,4,10.2,8,15.3,11.9c7.2,5.5,14.7,10.7,22.6,15.2c4.1,2.3,8.3,4.5,12.4,6.8c0.5,0.3,1,0.7,1.3,1.2
			c8.2,12.8,16.1,25.8,23.4,39.1c0.1,0.1,0.1,0.2,0.1,0.3c0.1,0.3,0.1,0.6,0.1,0.9c-0.3-0.1-0.7-0.1-0.9-0.3
			c-1.6-1.1-3.2-2.3-4.8-3.4c-6.5-4.1-13.1-8.2-19.6-12.3c-3.1-2-6.2-4.1-9.2-6.3c-3.1-2.3-6.4-3.2-10.2-2.6
			c-2.3,0.4-4.7,0.3-7.1,0.5c-1.7,0.1-3.5,0.2-5.2,0.2c-1.3,0.1-2.3-0.4-3.2-1.4C67.8,72.5,60,61.3,53.3,49.4
			C47.7,39.3,43,28.9,39.5,18C39.4,17.7,39.4,17.5,39.2,17.1z"/>
		<path d="M48.8,215.4c1.5-2.5,2.9-5,4.4-7.5c0.8-1.3,1.6-2.6,2.4-4c3.4-5.6,6.9-11.3,10.3-16.9c4.1-6.8,8.2-13.7,12.3-20.5
			c3.1-5.1,6.3-10.2,9.5-15.3c2.7-4.4,5.5-8.7,8.3-13c0.4-0.6,1-1.1,1.6-1.3c9.2-3.7,18.4-7.3,27.6-10.9c3.3-1.3,6.6-2.5,9.9-3.7
			c0.2-0.1,0.8,0,0.8,0c0.1,0.3,0.1,0.8,0,1.1c-0.9,2-1.8,4-2.6,6c-2.3,5.5-4.6,11.1-6.9,16.7c-1.6,3.8-3.4,7.5-4.9,11.3
			c-1.3,3.3-4,5-6.6,7c-4.5,3.5-8.9,7.1-13.4,10.7c-2.9,2.3-5.8,4.5-8.7,6.8c-6.1,4.9-12.2,9.8-18.3,14.6
			c-4.8,3.8-9.6,7.6-14.3,11.4c-1.8,1.4-3.5,3-5.2,4.4c-1.3,1.1-2.7,2-4.1,3c-0.4,0.3-1,0.3-1.5,0.5C49,215.6,48.9,215.5,48.8,215.4
			z"/>
		<path d="M97.4,2.2c0.4,0.4,0.7,0.5,0.8,0.7c4.8,5.7,9.6,11.4,14.2,17.2c3.8,4.9,7.4,9.9,11,14.9c6.5,9.1,13,18.2,19.5,27.4
			c1.4,2,2.8,4.2,4.2,6.2c0.6,0.8,0.6,1.5,0.4,2.3c-1.4,6.8-2.7,13.7-4.2,20.5c-0.7,3.4-1.6,6.9-2.5,10.3c-0.1,0.5-0.6,0.9-0.9,1.3
			c-0.4-0.3-1-0.5-1.3-1c-4.2-6.3-8.3-12.6-12.5-18.9c-3.4-5.2-6.8-10.3-10.1-15.5c-0.9-1.3-1.6-2.8-2.6-4.1c-0.6-0.8-1.3-1.5-2.2-2
			c-2.4-1.5-4.9-2.9-7.3-4.5c-1.1-0.7-2.1-1.6-2.9-2.5c-0.5-0.6-0.7-1.6-0.8-2.5c-0.4-4.7-0.8-9.3-1.2-14c-0.3-3.7-0.4-7.3-0.7-11
			c-0.2-3.3-0.6-6.6-0.9-9.9c-0.2-2.7-0.5-5.4-0.7-8.2c-0.1-1.7-0.2-3.4-0.2-5.1C96.7,3.5,97.1,2.9,97.4,2.2z"/>
		<path d="M134.1,111.3c-0.7,0.1-1.4,0.2-2,0.2c-1.6-0.1-3.1-0.3-4.7-0.4c-4.1-0.3-8.2-0.4-12.3-0.8c-2.6-0.2-5.1-0.6-7.7-0.8
			c-3.2-0.2-6.5-0.5-9.7-0.5c-1.4,0-2.8,0.8-4.1,1.4c-2.6,1.1-5.2,2.3-7.8,3.4c-2,0.9-4,0.5-6,0c-14.7-3.6-29.1-7.9-43.1-13.8
			c-3.8-1.6-7.4-3.4-11.1-5.1c-0.3-0.1-0.6-0.5-0.8-0.8c0.4-0.2,0.7-0.6,1.1-0.7c1.1-0.2,2.3-0.2,3.5-0.3c3.7-0.4,7.4-0.7,11.1-1.1
			c2.7-0.3,5.4-0.5,8.1-0.8c3.3-0.3,6.6-0.6,9.9-0.9c2.1-0.2,4.2-0.3,6.2-0.5c3-0.3,6-0.6,9-0.9c2.6-0.2,5.2-0.5,7.8-0.8
			c2.3-0.2,4.6-0.6,6.9-0.8c2.3-0.2,4.7-0.6,7-0.5c1.3,0,2.7,0.7,3.8,1.3c10.1,6.1,20.2,12.2,30.2,18.4c1.8,1.1,3.3,2.6,4.9,3.9
			C134.2,110.9,134.2,111.1,134.1,111.3z"/>
		<path d="M133.8,117.1c-0.3,0.2-0.6,0.5-1,0.7c-12.7,5.1-25.5,10.3-38.2,15.4c-1.1,0.4-1.9,1.1-2.5,2.1c-2.4,3.5-4.8,7.1-7.2,10.6
			c-1.7,2.4-4.1,2.9-6.8,3c-3.5,0-7,0-10.5,0c-15.2,0-30.4,0-45.6,0c-0.3,0-0.7,0-1.1,0c0.2-0.3,0.2-0.6,0.4-0.6
			c3.2-1.4,6.5-2.6,9.6-4c4.9-2.1,9.8-4.3,14.6-6.6c6-2.8,12-5.8,18-8.7c11-5.3,21.9-10.5,32.9-15.7c1-0.5,2.3-0.3,3.5-0.2
			c3,0.2,6,0.6,9,0.9c2.1,0.2,4.1,0.5,6.2,0.8c1.2,0.1,2.5,0.3,3.7,0.4c3,0.3,5.9,0.5,8.9,0.8c2.1,0.2,4.1,0.5,6.2,0.8
			C133.7,116.8,133.7,116.9,133.8,117.1z"/>
		<path d="M175,253c-2,1.4-3.9,0.7-5.7-0.1c-4-1.7-7.5-4.2-11-6.7c-5.9-4.3-11.2-9.4-16.5-14.4c-3.3-3.1-6.6-6.2-10.6-8.4
			c-3.8-2-7.7-2.5-11.7-1c-3,1.1-5,3.8-4.8,7c0.1,2.8,1.6,4.9,5,6c2.4,0.7,4.9,1.3,7.5,1.9c-0.3,0.2-0.6,0.5-0.9,0.8
			c-5.8,3.5-14.2,3.1-19.9-2.3c-2.4-2.3-3.6-4.9-3.7-8.2c-0.3-5,1.1-9.5,4.2-13.4c2.4-2.9,5.5-4.6,9-5.9c4.7-1.7,9-0.7,13.2,1.5
			c0.9,0.4,1.7,0.8,2.6,1.1c1.4,0.4,2.1-0.3,2-1.7c-0.4-3.3-1-6.6-1.3-9.9c-0.3-3.1-0.6-6.3-0.7-9.5c-0.2-6-0.3-12.1-0.5-18.1
			c0-1.1,0.3-2.2,1.2-2.9c0.4-0.3,1.1-0.5,1.5-0.3c0.4,0.2,0.9,0.9,0.9,1.4c0.1,2.2-0.1,4.3,0.1,6.5c0.2,2.7,0.5,5.4,0.8,8
			s0.6,5.3,1,8c0.3,1.9,0.9,3.8,1.4,5.7c1.1,3.9,1.9,7.8,3.3,11.6c2.9,7.8,6.5,15.4,11.9,21.9c3.8,4.6,7.5,9.4,12.1,13.5
			c2.4,2.2,5.1,4.1,7.6,6.2C173.6,251.9,174.3,252.4,175,253z"/>
		<path d="M192.3,61.1c-1.6,0.8-3.1,1.6-4.6,2.4c-8.1,4.3-16.1,8.5-24.2,12.8c-2.7,1.4-2.1,1.6-3.5-1.1c-4.8-9-9.5-18-14.2-27.1
			c-0.1-0.2-0.2-0.5-0.4-0.8c10.5-5.5,21-11,31.6-16.6C182.2,40.9,187.2,51,192.3,61.1z"/>
		<path d="M235.2,97.6c-1.4,1.7-2.6,3.2-3.9,4.7c-3.9,4.4-8.2,8.3-13.2,11.4c-3.8,2.3-7.8,4-12,5.1c-5.1,1.4-10.1,1.3-15.2,0.5
			c-3.2-0.5-6.3-1.4-9.2-2.7c-0.4-0.2-0.6-0.6-1-0.9c0.4-0.2,0.7-0.7,1.1-0.7c1.9-0.2,3.8-0.1,5.6-0.4c3.4-0.6,6.8-1.2,10.1-2.2
			c1.6-0.4,2.6-2,3.2-3.6c2-5.8,6.3-8.5,12.1-9.1c2.7-0.3,5.5-0.4,8.2-0.2c4.3,0.4,8.3-0.9,12.3-1.8c0.2,0,0.4-0.1,0.7-0.1
			C234.4,97.5,234.7,97.6,235.2,97.6z"/>
		<path d="M170.8,128.9c0,1,0,1.9,0,2.7c0,1.7,0.9,2.8,2.4,3.1c2.4,0.5,4.9,1,7.3,1.3c2.2,0.3,4.4,0.3,6.6,0.5
			c0.2,0,0.4,0.2,0.7,0.3c-1.9,5.2-5.7,8.2-10.9,9.7c-4,1.2-8,0.8-11.6-1.3c-2.3-1.3-4-3.3-4.9-5.8c-0.5-1.2,0.3-3,1.6-4
			c2.7-2,5.5-4.1,8.2-6.2C170.2,129.1,170.4,129.1,170.8,128.9z"/>
		<path d="M174.2,121.9c0-0.4,0-0.6,0-0.7c0.2-1.9,0.9-2.3,2.5-1.2c3.6,2.3,7.5,3.4,11.7,4c2,0.3,3.8-0.5,5.7-0.6
			c3.6-0.1,7.3-0.3,10.9-0.4c0.4,0,0.8,0.1,1.2,0.3c0.7,0.3,0.9,0.8,0.2,1.3c-4,3-7.8,6.6-12.9,7.8c-3.5,0.8-7,1.3-10.5,0.8
			c-3.9-0.6-7.5-3.6-8.4-8C174.5,124,174.4,122.8,174.2,121.9z"/>
	</g>
</g>
</svg>
