<?xml version="1.0" encoding="utf-8"?>
<!-- Generator: Adobe Illustrator 27.0.1, SVG Export Plug-In . SVG Version: 6.00 Build 0)  -->
<svg version="1.1" id="图层_1" xmlns="http://www.w3.org/2000/svg" xmlns:xlink="http://www.w3.org/1999/xlink" x="0px" y="0px"
	 viewBox="0 0 256 256" style="enable-background:new 0 0 256 256;" xml:space="preserve">
<style type="text/css">
	.st0{fill:#FFFFFF;}
</style>
<path class="st0" d="M250.1,120l-1.9,0.3c-0.1,0.2-0.3,0.4-0.5,0.7h1.4C249.5,120.6,249.8,120.3,250.1,120z"/>
<g>
	<path d="M94.4,127.6h5.6l5.4-3.5l7.7,3.6h123.5c2.8-0.7,5.6-1.9,8.1-3.3c1.4-0.8,2.6-1.8,3.6-3l0.3-0.4H88.7
		c0.4,1.3,1.1,2.6,1.9,3.6C91.6,125.8,92.9,126.8,94.4,127.6z"/>
	<path d="M85.1,120.9c-0.2-0.3-0.5-0.6-0.9-0.8c-0.4-0.2-0.7-0.3-1.1-0.3v-2.7c0-0.3-0.1-0.6-0.3-0.8c-0.2-0.2-0.4-0.3-0.7-0.4h-4.6
		c-0.2,0-0.4,0.1-0.5,0.2c-0.2,0.1-0.3,0.3-0.3,0.5v5.8L28,122.1c-1.7,0.1-3.3-0.7-4.2-2.2c-0.5-0.9-0.7-2-0.5-3.1
		c-11.4,5.3-20,15.4-23.3,27.5c3.7-6.3,10.6-10.1,17.9-9.9h58.7v4.9c0,0.3,0.1,0.6,0.3,0.8c0.1,0.1,0.3,0.3,0.5,0.3h4.4
		c0.2,0.1,0.4,0.1,0.6,0c0.2-0.1,0.4-0.4,0.4-0.6v-3.1c1,0.1,1.9-0.3,2.5-1h0.1v-14.9H85.1z"/>
	<path d="M250.1,120.9c-3.7,3.7-8.4,6.3-13.4,7.6H113.2l-7.9,3.7l-5.5-3.5h-5.6c-1.4,0.8-2.6,1.8-3.5,3.1c-0.9,1.2-1.6,2.6-2,4.1
		h143.4c5.6-1.2,10.9-3.5,15.6-6.8c3.1-2.3,5.9-5,8.3-8.1L250.1,120.9z"/>
	<path d="M100.1,113.6c2.6,2.1,5.5,3.7,8.6,4.7c2.9,1,13.7,4.6,21.9-2.3c6.4-5.5,8.8-14.4,5.9-22.3c-0.5-1.3-1.2-2.6-2-3.7
		c-0.2,1.8-0.9,3.5-1.8,5c-2.5,3.9-7.1,6-11.7,5.5c-6.4-1-10.2-8.2-10-14.1c0.3-7.9,8-13.4,14.5-14.5c8.6-1.4,18.1,4.4,22.1,14.5
		c1.8,2.5,4.4,6.2,7.6,10.5c5.4,7.2,8,10.8,9.8,12.6c9.8,9.7,24.5,9.8,27,9.8c10.3,0,20.3-3.6,28.3-10.2
		c-14.8-1.7-25.1-6.5-32.2-11.3c-5.7-3.8-6.9-6-23.8-22.8C146,56.7,142.8,54.6,138.6,53c-3.4-1.4-16.3-6.6-30.3-0.6
		c-12.8,5.5-18.2,16.9-19.5,19.9c-4.1,4.7-6.5,10.6-7,16.8c-0.1,2.6-0.7,12,6.3,18.8C91.5,110.9,95.7,113,100.1,113.6z"/>
	<path d="M139.8,84c-0.7-1-3.6-5.7-9.3-6.5c-4.5-0.6-8.9,1.3-11.6,4.9c-0.4,0.6-2.9,4.3-1.5,8.3c0.6,1.9,2,3.5,3.8,4.2
		c2.4,0.8,5,0,6.6-1.9c0.7-0.9,1.1-1.9,1.1-3c0.1-1.1-0.3-1.4-0.1-2.1c0.3-1.4,2-2.4,3.2-2.7c3.1-0.8,6.1,2.3,6.7,2.9
		c3.6,3.9,2.5,9.7,2.3,10.5C141.3,97.7,143.9,90.5,139.8,84z"/>
	<path d="M146.9,142.5c-2.4-1.9-5.1-3.2-8-4.1c-7.4-2.2-18.8-1.4-25.1,6.8c-3.8,4.9-5.8,12.5-3,19.3c1.1,2.6,2.8,5,5.1,6.8
		c-1.1-2.6-1.2-5.5-0.2-8.1c2-4.6,7.6-6.2,11.7-5.5c6.4,1,10.2,8.2,10,14.1c-0.3,7.9-8,13.2-14.5,14.5c-7.2,1.5-14.9-1.7-19.7-8.1
		c-2.4-3.5-6.1-8.7-10.5-14.9c-6.6-9.3-10-14-11.6-15.6c-12-11.9-28.9-12.5-30-12.5c-11.1-0.1-21.9,3.8-30.3,11.1
		c19,1.5,31.1,7.5,38.5,12.5c6.6,4.6,7.4,6.8,24.4,22.8c13.7,12.9,20.7,19.3,26.1,21.4c12.8,5,32,5.3,42.3-6c2.9-3.2,4.9-7,6-11.2
		c4.4-4.6,7.1-10.6,7.6-16.9c0.2-2.3,0.9-11.2-5.6-18.7C156.7,146.4,152,143.6,146.9,142.5z"/>
	<path d="M110.5,176.3c0.8,1,4.4,5.5,10.4,5.5c4.7,0.1,9.1-2.4,11.4-6.5c0.3-0.6,2.5-4.8,0.6-8.7c-0.8-1.9-2.4-3.3-4.4-3.9
		c-2.5-0.5-5.1,0.6-6.5,2.8c-0.6,1-0.9,2.1-0.9,3.3c0,1.1,0.4,1.4,0.4,2.2c-0.2,1.5-1.8,2.7-3,3.1c-3.1,1.2-6.6-1.6-7.2-2.1
		c-4.2-3.6-3.8-9.7-3.7-10.6C107.3,162.3,105.4,170.1,110.5,176.3z"/>
	<path class="st0" d="M251,119.9l-1.9,0.3c-0.1,0.2-0.3,0.4-0.5,0.7h1.5C250.4,120.6,250.7,120.2,251,119.9z"/>
</g>
</svg>
