<?xml version="1.0" encoding="utf-8"?>
<!-- Generator: Adobe Illustrator 27.0.1, SVG Export Plug-In . SVG Version: 6.00 Build 0)  -->
<svg version="1.1" id="图层_1" xmlns="http://www.w3.org/2000/svg" xmlns:xlink="http://www.w3.org/1999/xlink" x="0px" y="0px"
	 viewBox="0 0 256 256" style="enable-background:new 0 0 256 256;" xml:space="preserve">
<g>
	<g>
		<path d="M118.6,82.1c-1.4,0.7-2.7,1.5-4.1,2c-3.3,1.3-6.7,2.2-10.3,2.1c-1.1,0-2.2-0.2-3.2-0.7c-3.1-1.6-6.1-3.5-8.3-6.3
			c-0.2-0.3-0.5-0.6-0.7-0.9c-1.6-2.2-1.6-3.6,0.3-5.6c2-2.1,4.3-3.6,7.2-4.3c4.3-1,8.6-2.1,12.7-3.4c2.1-0.7,3.9-2,5.8-3.1
			c0.3-0.2,0.6-0.7,0.6-1.1c-0.4-4.6-0.7-9.3-1.2-13.9c-0.4-3.8-1-7.6-1.9-11.3c-0.5-2.2-1.6-4.3-2.5-6.4c-0.3-0.7-0.2-1.1,0.2-1.6
			c1.1-1.6,2.7-2.1,4.5-1.8c4,0.8,7.9,1.8,11.9,2.8c0.7,0.2,1.3,0.5,2,0.9c1.4,0.8,1.5,1.7,1.2,3.3c-0.3,1.5-0.3,3.2-0.2,4.8
			c0.3,7,1.5,13.8,3.3,20.7c0.2,0,0.5,0,0.7,0c2.1-0.7,4.3-1.4,6.4-2c0.6-0.2,0.9-0.4,0.9-1.1c-0.1-9.4-0.2-18.8-0.4-28.3
			c-0.1-4.1-0.5-8.3-0.6-12.4c0-1.9,0.2-3.8,0.5-5.7c0.3-2.2,1.5-4.1,3-5.8c1.5-1.6,3.4-1.9,5.4-0.8c3.7,2.2,7.4,4.4,10.9,6.9
			c3.3,2.4,5.7,5.7,7.6,9.3c1,1.9,0.5,4.1-0.2,6.1c-1.2,3.4-2.6,6.8-3.5,10.3c-1.2,4.4-2.2,9-2.2,13.6c0,1.2,0.6,2.4,1,3.6
			c0.3,0.8,1,1,2,0.8c3-0.7,6.1-1.5,9.1-1.8c6.9-0.6,12.6,2.1,17.3,7c1.4,1.5,2.6,3.2,3.9,4.8c0.9,1.1,1.2,2.2,0.8,3.6
			c-0.4,1.6-0.7,3.2-1.2,4.7c-0.8,2.6-3,4-4.9,5.6c-6.7,5.7-13.1,11.7-17.9,19.1c-1.8,2.7-4.5,4.6-7.3,6.1c-0.7,0.4-1.1,0.9-1.2,1.7
			c-0.4,3-0.8,6-1.2,8.9c0,0.2,0,0.4,0,0.8c1.2-0.3,2.3-0.6,3.3-0.9c10.8-3.2,21.7-6.3,32.5-9.6c2.8-0.9,5.5-0.8,8.2,0.2
			c5.6,2,10.6,4.9,14.9,8.9c3,2.8,5.9,5.6,8.8,8.5c1.5,1.5,2.7,3.4,3.2,5.6c0.2,1,0.3,2-0.7,2.9c-15,12.8-28.1,27.3-39.2,43.6
			c-4,5.8-8,11.6-12.1,17.3c-0.8,1.1-1.8,2-2.6,3c-1.2,1.6-2.9,2-4.8,2.2c-2.9,0.4-5.6-0.3-8.2-2c0.2,1.6,0.5,3.1,0.6,4.5
			c0.3,3,0.6,6,0.9,9c0.3,3.6,0.8,7.1,0.9,10.7c0.1,2.9-0.3,5.8-0.6,8.6c-0.5,3.9-0.9,7.9-1.6,11.8c-0.9,5.2-2.8,10.2-4.9,15
			c-0.5,1.1-2.9,2.3-4.1,2.1c-1.1-0.2-2.2-1.5-2.4-3c-0.9-6.3-1.7-12.6-2.5-18.9c-0.3-2.2-0.9-4.4-1.1-6.6
			c-0.4-3.8-0.6-7.5-0.7-11.3c-0.2-10.3-0.3-20.7-0.4-31c0-0.4-0.3-1-0.7-1.3c-4.1-2.8-8.2-5.6-12.3-8.3c-2.6-1.7-5.3-2.4-7.3-2.2
			c-0.1,1.1-0.2,2.3-0.3,3.5c-0.3,6.1-0.7,12.2-1,18.3c-0.3,6-0.5,12-2.5,17.7c-1.4,3.9-3.8,7.3-7.3,9.6c-1.1,0.7-3.4,0.3-4.1-0.8
			c-2.2-3.3-3.2-7.1-3.8-10.9c-0.5-3-0.9-6.1-0.8-9.1c0.1-4.7,0.6-9.3,0.8-14c0.3-8.2,0.5-16.4,0.6-24.6c0-2.2-0.5-4.5-0.8-6.8
			c-0.1-0.4-0.3-0.9-0.5-1.3c-0.8-1.7-0.9-1.7-2.5-0.9c-5.8,3.1-11.5,6.3-17.4,9.3c-1.2,0.6-3,0.6-4.3,0.3
			c-4.8-1.2-8.8-3.9-11.8-7.6c-2.9-3.6-3.1-8.2-1.9-12.7c0.1-0.4,0.6-0.7,0.9-0.9c2.4-1.1,4.8-2.2,7.2-3.3c2.8-1.2,5.1-3.1,6.9-5.6
			c3.6-4.8,7.3-9.4,11.1-14.1c0.5-0.6,0.5-1,0.1-1.6c-1-1.8-2.5-2.8-4.4-3.5c-3.1-1.2-3.2-1.8-1.4-4.5c0.8-1.1,1.7-1.9,2.9-2.5
			c6.2-3.1,12.4-6.2,18.5-9.4c1.6-0.8,2.6-2.5,2.8-4.2c0.3-3.3,0.2-6.6,0.2-9.9C118.7,82.4,118.6,82.3,118.6,82.1z M165.7,156.6
			c0,1.2,0,2.4,0,3.6c0,1.2,0,2.4-0.1,3.7c-0.1,1.4,0.3,2.7,1,3.9c1.9,3.3,3.7,3.6,6.2,0.8c2.7-3,5.2-6.2,7.7-9.3
			c4.3-5.6,8.7-11.2,12.8-17c2.8-3.9,5.2-8.1,6.3-12.8c0.2-0.8,0.1-1.2-0.8-1.5c-2.9-1.1-5.9-1.3-8.9-0.6c-7,1.5-13.9,3-20.9,4.4
			c-0.8,0.2-1.1,0.6-1.2,1.4C166.3,140.8,166,148.7,165.7,156.6z M131.5,166.2c6.5,0,12.9,0,19.3,0c1.9-10.4,1.2-20.8,0.2-31.4
			c-1.3,0.6-2.4,1.1-3.6,1.6c-5.1,2.1-10.1,4.1-15.2,6.2c-0.7,0.3-0.9,0.7-0.9,1.4c0.1,4.3,0.1,8.6,0.2,12.9
			C131.5,160,131.5,163.1,131.5,166.2z M131.2,85.7c0.1,0,0.1,0,0.1,0c0.1,1.7,0.2,3.3,0.3,5c0.1,1.6,2.2,3,3.7,2.5
			c2.2-0.7,4.4-1.5,6.6-2c2.3-0.5,3.4-1.7,4.2-4c1.2-3.3,2.2-6.6,1.4-10.1c-0.2-1.1-0.4-2.4-1-3.3c-1-1.6-2.8-2.3-4.5-2.9
			c-0.2-0.1-0.5-0.1-0.7,0c-3,1.6-5.9,3.2-8.9,4.8c-0.3,0.2-0.5,0.6-0.5,0.9C131.8,79.8,131.5,82.7,131.2,85.7z M131.1,120.5
			c-0.1,1.3-0.2,2.6,1.5,2.8c0.1,0,0.2,0.2,0.3,0.2c0.4,0.1,1,0.3,1.4,0.2c4.5-1.6,9-3.2,13.5-4.8c0.3-0.1,0.6-0.4,0.6-0.7
			c0.2-1.8,0.4-3.6,0.4-5.3c0-1.8-1.3-2.7-3-2.1c-1.2,0.4-2.4,0.9-3.6,1.5c-3,1.5-6,3.2-9.1,4.4c-1.9,0.7-2,1.9-2,3.4
			C131.1,120.2,131.1,120.3,131.1,120.5z M163.6,76.1c0,0.7,0,1.5,0.1,2.2c0.3,2,1.8,2.7,3.4,1.7c4-2.5,5.9-6.1,6-10.8
			c0.1-1.7-0.7-3-2.2-3.6c-1.4-0.6-2.6,0.2-3.5,1.3C165.1,69.4,163.4,72.3,163.6,76.1z M116.3,122.3c-2.2,0.8-4.3,1.7-6.4,2.1
			c-2.3,0.5-3.6,1.6-3.8,4c-0.1,1-0.4,2-0.2,2.9c0.4,1.9,1.7,2.4,3.3,1.5c0.9-0.5,1.9-0.9,2.8-1.6c1-0.7,2.1-1.4,2.9-2.3
			C116.7,127,117.3,124.7,116.3,122.3z"/>
		<path d="M46.5,218.1c0.4-3.3,0.8-6.3,1-9.4c0.2-3,0.2-6.1,0.2-9.2c-0.1-5.1-0.5-10.1-0.5-15.2c0-3.6,0.4-7.2,0.7-10.7
			c0.4-5.5,0.6-10.9-0.2-16.4c-0.4-2.9-0.3-5.8-0.4-8.7c-0.1-2.8-0.3-5.6-0.4-8.3c0-0.2,0-0.3,0-0.5c-0.4-2.1-1.6-2.5-3.2-1.1
			c-3,2.7-5.8,5.5-8.9,8.1c-2.3,2-4.9,3.8-7.4,5.6c-0.2,0.2-0.5,0.3-0.8,0.3c-3.3,0.3-6.4-2.4-6.2-5.7c0-1.3,0.3-2.7,0.7-4
			c5.6-15.3,12.3-30,19.7-44.5c0.4-0.8,0.4-1.8,0.5-2.7c0.2-2.7,1.4-4.8,3.5-6.4c0.2-0.2,0.5-0.4,0.6-0.6c1.6-2.5,3.3-4.9,4.7-7.4
			c2.8-5,5.6-10.1,8.3-15.2c2.1-4,4.3-8,6.2-12.1c1-2.2,2.6-3.6,4.6-4.7c4-2.2,5.9-2.1,9,1.3c1.7,1.9,3.1,4.2,4.2,6.4
			c1.5,2.9,2.9,6,4,9.1c1.4,3.9,2.1,8,1.3,12.1c-0.6,3.3-2.4,6.2-4.3,8.9c-3,4.4-6.2,8.7-9.2,13.1c-2,2.8-4.1,5.6-5.8,8.6
			c-0.8,1.3-0.8,3-1,4.6c-1.2,9.2-0.6,18.4-0.7,27.6c-0.1,9-0.5,17.9-0.6,26.9c-0.1,5.4,0.3,10.7,1.7,16c0.6,2,1.2,3.9,2.8,5.4
			c0.2,0.2,0.2,0.6,0.2,0.9c-0.3,4.8-0.9,9.5-2.5,14c-0.3,0.8-0.4,1.6-0.4,2.4c-0.2,5.5-0.6,10.9-2.1,16.1c-1.1,3.8-3.2,7-6.5,9.4
			c-0.8,0.6-1.3,0.6-2.1,0c-4.2-2.8-7.3-6.6-10-10.8C46.6,220.6,46.7,219.1,46.5,218.1z"/>
	</g>
</g>
</svg>
