<?xml version="1.0" encoding="utf-8"?>
<!-- Generator: Adobe Illustrator 27.0.1, SVG Export Plug-In . SVG Version: 6.00 Build 0)  -->
<svg version="1.1" id="图层_1" xmlns="http://www.w3.org/2000/svg" xmlns:xlink="http://www.w3.org/1999/xlink" x="0px" y="0px"
	 viewBox="0 0 256 256" style="enable-background:new 0 0 256 256;" xml:space="preserve">
<style type="text/css">
	.st0{fill-rule:evenodd;clip-rule:evenodd;}
</style>
<g>
	<path class="st0" d="M227.4,127.1c-0.5-3.2-3.7-1.1-3.7-1.1s-10.3,9.2-24,21.3c-8.6,7.6-21.9,14.6-32,17.9
		c-6.1,2-11.8,2.6-14.9,3.9c-2.1,0.9-2.3,4.8-2.3,4.8s0,22.2-2.7,38.1c-2.9,16.7-9.9,25.8-16.2,28.9l-6.3-0.2c0,0,0,0,0,0.1
		c-7-1.4-14.2-14.9-17.6-31.1c-2-9.2-2-30.9-1.2-40.1c0.2-2-1.2-3-1.2-3s-19.6-3.7-42.1-14.9c-9.5-4.7-20.7-15.2-25.9-19.7
		c-2.4-2.2-4.7-1.8-6.4-2.1c-2.8-0.4-2.5,2.3-2.5,2.3s9.2,13.2,15.8,32.3c2.4,7,4.6,26.9,7.3,37.8c4.2,17.3,10.1,22.7,10.1,22.7
		s0.6-9.6,0.9-16.3c0.8-17.6,10.1-30.7,10.1-30.7s3-4.9,6.9-0.7c3.9,4.3,4.8,12.4,4.8,12.4s1.6-6.8,3-10.6c1.3-3.4,3-5.5,3-5.5
		s4.2-1.8,5,1.4c0.8,3.2-1.5,2.8-2.7,7.8c-1.7,6.8-2.9,13.7-0.9,17.4c2.1,3.9-2.7,5.7-4.8,4.6c-6-3.1-13.1-10.6-13.1-10.6
		c-6.4,12.7-3.9,26.5,2.8,34.2c9.2,10.6,24.9,12.6,24.9,12.6c-6.9-11.4-11.5-17.2-8.9-18.3c2-0.9,4.6,1.6,4.6,1.6
		c11.6,27.6,29.3,28.2,29.3,28.2v-0.1c0.1,0.2,0.1,0.3,0.2,0.3c2.6,0.6,5.3,0,5.3,0s7.6-0.5,14.9-9.2c5.5-6.5,8.4-15.2,12.8-19.5
		c2-2,4.7-1.9,3.9,1.1c-0.6,2.3-3.9,6.9-9.1,15.6c0,0,9.7-1,18.3-7.1c11-7.9,20.8-22.6,14-37.4c0,0-26.2,19.6-23.8,2.1
		c1-7.4-1.5-16.1-0.4-19.2c0.6-1.7,4.7-3.5,5.3,3.4c0.3,3.9,2.3,8.3,2.3,8.3s1.5-4.9,3.9-8.7c2.1-3.3,5.3-5.5,5.3-5.5
		s10.7-5.9,12.8,12.4c2.1,17.5,3.2,35.5,3.2,35.5s10.6-47.7,18.5-64.4c4.5-9.6,5.3-13.2,10.5-19.7
		C225.8,138.4,227.9,130.1,227.4,127.1z"/>
	<path class="st0" d="M127.4,185.3c-10.1,0.1-16,7.5-16,16.3c0,8.8,8,17.2,16.7,17.2s14.7-6.7,14.6-16.7
		C142.7,192.8,137.4,185.2,127.4,185.3z"/>
	<path class="st0" d="M197,114.4c-2.9,0.6-0.1,7.1-14.6,18.3c-6.6,5.1-12.2,7-16,7.6c-5.8,0.9-4.6-4.4-4.6-4.4
		c1.4-2.4,3.2-2.6,5-3.7c17.2-10.3,17.2-30,17.2-30c-0.2-10.6-4.4-21.1-4.4-21.1c-2.1-6.2-1.4-12.8,6.9-21.5
		c-15.2-0.4-20.1,9-23.1,27.7c-3,19-13.1,21.2-21.5,19.3c-4.8-1.1-4.1-9-3.4-15.4c0.4-3.8-0.2-8.7-0.2-8.7
		c-0.9-6.9-3.9-11.5-10.1-23.2c-5.6-10.6-3-27.3,1.6-39.9C132.7,11.4,134,3,134,3s-11.7,5.2-23.1,23.4c-12.6,20.1-9.3,39.1-6.2,53.5
		c5.8,26.5-8.5,27-8.5,27s-6.9,0.6-7.1-8.2c-0.1-5.9,1.1-10.1,5.3-25c1.6-5.7-0.8-16.6-3.9-22c-4.1-7.3-9.4-8.5-9.4-8.5
		c0.5,30.8-22.4,25.4-24,61.5c-1.6,36.1,42.1,56.3,61.6,58c21,1.8,33.7,1,51.5-6.4c30.4-12.8,29.8-30.5,29.8-30.5
		C200.1,120.8,199.1,114,197,114.4z"/>
	<path class="st0" d="M164,21.4c0,0-23.7,7.6-24.5,32.8c-0.6,18.9,20.1,17.2,22.9,9.4c3.2-8.9-1.6-10.5-3.7-15.6
		C157.1,44,157.2,32,164,21.4z"/>
</g>
</svg>
