<?xml version="1.0" encoding="utf-8"?>
<!-- Generator: Adobe Illustrator 27.0.1, SVG Export Plug-In . SVG Version: 6.00 Build 0)  -->
<svg version="1.1" id="图层_1" xmlns="http://www.w3.org/2000/svg" xmlns:xlink="http://www.w3.org/1999/xlink" x="0px" y="0px"
	 viewBox="0 0 256 256" style="enable-background:new 0 0 256 256;" xml:space="preserve">
<g>
	<g>
		<path d="M162.4,246c3.7-3.1,6.9-6.7,9.9-10.6c6.7-8.9,10.4-18.9,11.9-29.9c1.3-9.3,1.2-18.6-0.9-27.9c-2.8-12.5-9-23-17.9-32.1
			c-8.9-9.1-19.5-16.1-30.7-22.2c-7.5-4.1-15.2-8.1-22.6-12.3c-5.8-3.3-11.2-7.3-15.6-12.4C91.6,93,89,86.4,88,79.1
			c-1.3-9.8-1.3-19.5,0.6-29.2c1.7-8.7,5.6-16.5,10-24.1c3.2-5.4,6.8-10.3,11.8-14.2c5.6-4.3,11.9-6.7,19-6.6
			c18.4,0.1,36.1,4.1,52.7,12c24.1,11.4,42.9,28.7,56,52c7.5,13.2,12.2,27.4,14.2,42.4c3.4,24.9-0.5,48.7-11.8,71.2
			c-12.1,23.9-30.2,41.9-53.9,54.3c-7.2,3.8-14.6,6.7-22.4,9C163.7,246,163,245.9,162.4,246L162.4,246z M153,39.6
			c-8.1,0.2-16.1,4.2-20.7,13.5c-4.3,8.8-1.8,18.4,6.2,23.3c4.9,3.1,10.3,4.6,16.1,3.2c6.5-1.5,10.6-5.9,12.9-11.9s5-6.4,9.5-5
			c5,1.5,8.9,4.8,12.4,8.5c4.8,5,8.6,10.7,11.9,16.8c0.1,0.3,0.4,0.5,0.5,0.8c0.1-0.3,0.2-0.6,0.2-1c0.1-3.6-0.5-7.1-1.7-10.5
			c-4.8-13.6-13.4-24.2-25.6-31.9C168.8,41.8,162.2,39.6,153,39.6z"/>
		<path d="M2.5,127.9C2.9,95.6,14,67.5,36.3,44c17.6-18.7,39.2-30.5,64.3-36.2c0.2,0,0.3-0.1,0.5-0.1c0.2,0,0.5-0.1,0.7-0.1
			c-0.1,0.2-0.3,0.5-0.4,0.7c-3.2,3.8-6.6,7.4-9.5,11.4c-5.1,6.9-8.2,14.6-10.3,22.9C79.3,51.7,78,60.9,78,70.2
			c0,6.4,0.7,12.7,2.6,18.8c2.4,8,7.2,14.3,13.3,19.9c7.3,6.7,15.6,11.9,24.1,16.8s17,9.8,24.8,15.7c8.8,6.7,16.7,14.3,22.7,23.7
			c7.6,11.9,10.7,25,10.3,39c-0.2,8-1.9,15.6-5.9,22.6c-5,8.7-12.5,14.6-21.6,18.6c-7.5,3.3-15.3,5.2-23.4,5.6
			c-4.6,0.2-9.2-0.4-13.7-0.9c-13-1.6-25.5-5.1-37.2-10.9c-36.1-17.7-59.3-45.8-68.6-85C3.3,145.5,2.5,136.7,2.5,127.9z M23.6,120.1
			c0.4,4.3,0.6,8.7,1.2,13c1.3,9.6,4.1,18.8,7.3,27.9c4.8,13.4,11.3,25.9,21.1,36.5c10.4,11.3,22.8,18.9,38.3,20.8
			c5.5,0.7,10.9,0.3,16.1-2.1c6.6-3,11.7-7.6,14.1-14.6c1.5-4.4,1.4-9,0.6-13.5c-1.7-8.8-6.1-13.6-15.3-15.6
			c-4.8-1-9.7,2.1-11.1,6.6c-1,3.2,0.6,6.2,3.9,7.1c2.5,0.7,4.8,0.2,6.9-1.3c0.9-0.6,1.7-1.4,2.6-2.1c1.1-0.9,1.6-0.8,2.3,0.3
			c1.2,1.8,1.7,3.9,1.5,6.1c-0.6,4.7-3.4,7.6-7.7,9.2c-4.5,1.7-9.2,1.8-13.8,0.8c-11.1-2.4-19.5-13.2-19.2-24.6
			c0.1-6.1,2.2-11.6,6.6-15.8c7.2-7,16.1-8.8,25.8-7.2c10.7,1.7,19.6,6.9,26.8,15c5.6,6.4,9.1,13.7,9.2,22.4c0,0.6,0.2,1.3,0.4,1.9
			c0.5-0.5,1.1-0.9,1.4-1.4c3.4-5.5,5.3-13.3-0.5-20.5c-3.3-4-6.9-7.6-11-10.8c-9.9-7.7-19.9-15.3-30-22.8
			c-6.5-4.9-12.9-9.8-18.2-16.1c-10.2-12.1-16.4-25.8-18-41.6c-1.4-14,1.1-27.4,7.2-40c1.7-3.5,3.7-6.8,5.6-10.2
			c0.1-0.2,0.2-0.4,0.2-0.5c-0.2,0-0.4,0-0.5,0.1c-5,3.2-10.5,5.7-14.8,9.9c-1.8,1.8-3.7,3.5-5.5,5.3c-9.1,9.3-16.5,19.8-22,31.6
			C27.9,88.5,23.8,103.8,23.6,120.1z"/>
		<path d="M162.4,246C162.4,246,162.4,246.1,162.4,246C162.5,246.1,162.5,246.1,162.4,246C162.5,246,162.5,246,162.4,246L162.4,246z
			"/>
	</g>
</g>
</svg>
