<?xml version="1.0" encoding="utf-8"?>
<!-- Generator: Adobe Illustrator 27.0.1, SVG Export Plug-In . SVG Version: 6.00 Build 0)  -->
<svg version="1.1" id="图层_1" xmlns="http://www.w3.org/2000/svg" xmlns:xlink="http://www.w3.org/1999/xlink" x="0px" y="0px"
	 viewBox="0 0 256 256" style="enable-background:new 0 0 256 256;" xml:space="preserve">
<g>
	<g>
		<path d="M220.5,148.5c-0.4,2.5-0.7,5.1-1.1,7.6c-3.4,18.5-13.2,32.8-28.3,43.8c-1.3,1-2.7,1.8-4,2.7c-0.1,0.1-0.3,0.1-0.5,0.1
			c0-0.2-0.1-0.3-0.1-0.5c0.9-5.4-2.6-7.7-7.1-8.2c-4.9-0.6-9.6,0.2-14.3,1.4c-3.3,0.9-6.4,2.1-9.8,2.8c-8,1.6-15,5.5-21.5,10.2
			c-6,4.3-10.9,9.7-13.8,16.6c-3.2,7.6-2.2,15.1,0.6,22.5c0.7,1.7,1.5,3.4,2.1,5.2c-0.5-0.7-1.1-1.4-1.6-2c-4.6-6.1-8.4-12.5-10-20
			c-2.7-12.7,1.8-22.9,11.8-30.5c6-4.6,12.7-8.5,19.3-12.3c6-3.4,12.3-6.3,18.5-9.3c7.7-3.6,14.8-8.1,19.9-14.9
			c11.1-14.7,12.9-32.4,1.5-49.1c-4.2-6.2-9.4-11.5-14.6-16.8c-7.1-7.3-12.6-15.5-15.1-25.5c-2.4-9.8-1.5-19.4,2.4-28.7
			c0.2-0.5,0.5-0.9,0.7-1.4c0-0.1,0.2-0.1,0.1-0.1c0,4.3-0.3,8.7,0.1,13c0.7,9.3,3.9,17.5,11.2,23.7c6.4,5.4,12.9,10.7,19.2,16.2
			c10,8.8,17.3,19.4,20.8,32.4c3.4,13,1.4,25.4-3.4,37.6c-0.3,0.7-0.6,1.4-0.9,2.2c8.4-3.5,15.6-18.6,16.9-34.6
			c0.3,2.2,0.6,4.4,0.9,6.6C220.5,142.4,220.5,145.4,220.5,148.5z"/>
		<path d="M35.5,136.5c0.2-1.4,0.5-2.9,0.7-4.3c0.5,16.7,6.5,30.3,21.6,38.9c-0.4-0.6-0.8-1.1-1.2-1.7c-7.4-10.5-10.5-22.1-9.7-34.9
			c0.7-11,4.9-20.7,11.1-29.7c6.9-9.9,15-18.6,24-26.7c9.5-8.5,18.6-17.3,26.1-27.7c5.5-7.7,9.1-16.3,10.4-25.7
			c1-7.5,0.2-14.8-1.9-22c-0.1-0.2-0.1-0.5-0.2-0.8c0,0,0-0.1,0.1-0.2c2.1,4,3.6,8.2,4.7,12.6c2.8,11.4,2.5,22.7-2.7,33.4
			c-1.8,3.7-4,7.2-6.4,10.4c-6.2,8.2-12.8,16-20.1,23.3c-10.8,10.9-19.3,23.5-23.6,38.4c-5.3,18.4-2.2,35.4,9.7,50.4
			c7.3,9.2,16.9,15.6,27.5,20.3c5.1,2.3,10.4,4,15.7,6c0.4,0.1,0.8,0.3,1.1,0.7c-1.4-0.1-2.7-0.1-4.1-0.2c-1.4-0.1-2.7-0.2-4.1-0.3
			c-8.9-0.7-17.7-2.5-26.4-4.7c-4-1-8.1-1.6-12.3-1.2c-5.8,0.6-8.6,4.1-7.7,9.9c0.1,0.7,0.2,1.3,0,2.2c-3.1-2.6-6.3-5-9.2-7.7
			c-13-12.1-20.4-27.1-22.5-44.7c-0.2-1.4-0.4-2.9-0.6-4.3C35.5,143,35.5,139.8,35.5,136.5z"/>
		<path d="M123.4,176c4.3-11.6,13.3-18.4,23.3-24.3c4.4-2.6,8.6-5.4,12.2-9c4.9-4.8,7.2-10.7,7.6-17.4c0.4-6.4-0.8-12.6-3.4-18.5
			c0.3,0.3,0.5,0.6,0.8,1c5.3,7.9,8,16.5,7.3,26.1c-0.9,12-7.5,20.2-17.9,25.7c-7.3,3.8-12.8,9.3-15.8,17c-1.2,3.1-1.6,6.6-2.8,9.8
			c-0.9,2.6-2.1,5.1-3.6,7.4c-1.2,1.9-1.9,1.8-3.5,0.3c-3.1-2.9-4.4-6.6-4.7-10.7c-0.1-1-0.4-1.6-1.2-2.2c-3.6-2.6-6.6-5.8-9.1-9.5
			c-0.3-0.5-0.8-0.9-1.3-1.3c-4.5-3.7-9.2-7.2-13.5-11.2c-6.7-6.2-9.2-14.2-8.5-23.3c0.5-5.7,2.3-10.9,6-15.4
			c0.3-0.4,0.7-0.8,1.3-1.4c-0.4,1.7-0.8,2.9-1.1,4.2c-0.7,3.4-0.2,6.7,1.4,9.8c2,4.1,2.7,8.4,2.7,12.9c0,4.8,1.2,9.2,4.1,13.1
			c1.9,2.6,3.9,5,5.9,7.5c0.1-0.1,0.2-0.1,0.3-0.2c-0.4-1.7-0.9-3.4-1.1-5.1c-1.2-9.9,1.5-18.6,8.2-26.1c2.4-2.7,5.1-5.1,7.8-7.4
			c3.9-3.5,7.9-7,9.2-12.4c1-4.4,0.6-8.8-1.5-12.8c-4.5-8.8-16.9-10.7-24.4-3.8c-3.9,3.6-5.8,8.1-5.9,13.4c0,0.4,0,0.7,0,1.1
			c0,0.1-0.1,0.2-0.2,0.6c-1-5.4-0.9-10.4,1.5-15.2c5.5-10.7,16.2-15.9,28.2-15c14.8,1.1,25.9,15.2,27.4,27.6
			c2,16.8-5.3,28.2-19.7,36c-5.1,2.8-9.9,6-14.1,10.1C119.8,162.6,119,170,123.4,176z"/>
		<path d="M126.3,22.7c2.2,4.7,3.5,9.6,4.4,14.6c2.4,14.1,0.4,27.7-5,40.9c-0.5,1.2-1.1,1.6-2.3,1.8c-11.9,1.9-20,8.6-24.4,19.8
			c-1.5,3.8-1.6,7.8-1.2,11.8c0.1,0.5-0.1,1.2-0.4,1.5c-6.1,5-9.9,11.4-11.2,19.2c-2.1,12.3,1.2,22.8,10.7,31.1
			c3.9,3.4,7.9,6.5,11.9,9.7c0.5,0.4,0.9,1,1.4,1.5c2.7,2.9,5.3,5.7,8,8.6c0.6,0.6,1.1,1.5,1.3,2.3c0.8,2.4,1.4,4.8,2.1,7.5
			c-4.5-1.8-9.1-3.4-13.5-5.4c-11-5-20.9-11.5-28.3-21.3c-8.4-11.2-11.5-23.9-9.5-37.8c1.8-11.9,7.1-22.2,13.8-31.9
			c4.2-6,9.3-11.3,14.4-16.5c7.9-8.2,15.2-16.9,21.2-26.6c5.5-9,7.5-19,6.7-29.5C126.3,23.6,126.3,23.1,126.3,22.7z"/>
		<path d="M150.8,79.8c1.2,2.4,2.3,4.7,3.5,6.9c3.1,5.4,7.1,10.2,11.4,14.7c5,5.1,9.9,10.2,13.8,16.2c5.8,8.8,8.2,18.4,5.5,28.8
			c-3,11.8-10.2,20.5-20.8,26.2c-6.4,3.4-12.9,6.4-19.4,9.6c-2,1-3.9,2.1-5.9,3.2c1.5-10.1,6.6-17.4,15.4-22.1
			c5.8-3.1,10.9-7,14.7-12.4c4.8-6.9,6.4-14.7,5.8-23c-0.6-8.8-3.7-16.7-9-23.7c-1.4-1.9-3.6-3.1-5.4-4.7c-0.8-0.7-1.6-1.3-2.2-2.1
			c-0.9-1.2-1.5-2.7-2.5-3.8c-3.2-3.1-3.9-7.2-4.7-11.2c-0.1-0.7-0.2-1.3-0.3-2C150.7,80.3,150.8,80.1,150.8,79.8z"/>
		<path d="M142.2,206.6c-1.9,1.6-3.9,3.1-5.6,4.9c-4,4.2-4.8,9-2.5,14.3c2.2,5.1,6,8.9,10.2,12.3c1.4,1.1,2.9,2.2,4.4,3.3
			c-2.9,3.6-2.9,4.1-1.3,12.8c-3.8-2.8-7.7-5.5-11.4-8.4c-3.5-2.7-6.4-6-8.7-9.8c-2.5-4.4-3.8-9-2.2-14c1.1-3.6,3.4-6.6,6.3-9
			c3.1-2.7,6.5-4.7,10.3-6.2C141.8,206.7,142.1,206.7,142.2,206.6z"/>
		<path d="M104.3,152.9c-0.3-2.4-0.8-4.8-0.9-7.2c-0.1-4.8-0.7-9.4-2.8-13.7c-2-4-2-7.9,0-12.3c1.5,1.8,3.2,3.4,4.2,5.3
			c1.9,3.7,4.3,7,7.4,10c-4.5,5.2-6.2,11.4-7.4,17.9C104.7,152.9,104.5,152.9,104.3,152.9z"/>
	</g>
</g>
</svg>
