<?xml version="1.0" encoding="utf-8"?>
<!-- Generator: Adobe Illustrator 27.0.1, SVG Export Plug-In . SVG Version: 6.00 Build 0)  -->
<svg version="1.1" id="图层_1" xmlns="http://www.w3.org/2000/svg" xmlns:xlink="http://www.w3.org/1999/xlink" x="0px" y="0px"
	 viewBox="0 0 256 256" style="enable-background:new 0 0 256 256;" xml:space="preserve">
<g>
	<path d="M141.3,134.3v3.8c2.1-1.1,4.2-2.1,6.5-3.2v-3.4C145.9,132.3,143.7,133.2,141.3,134.3z"/>
	<path d="M150.8,130.3v3.6c1.8-0.7,3.6-1.4,5.6-2.1v-4C154.4,128.6,152.6,129.5,150.8,130.3z"/>
	<path d="M176,113.4c10.1-10.5,16.7-25,16.4-28c0.3-4.2-14.6-26.8-28.8-26.9c0.4-0.2-0.1-2-0.2-2.6c3.5-1.8,7.3,0.9,16.9-4.8
		c7.9-4.6,8.7-9.9,9-15.4c-1.4,3.4-12.1,11.1-22.8,11.2c-10.1,0.1-16.3,0.1-24.4,0.5c-7.7,0.4-16.4,4.3-19.1,7.4
		c-2.6,3.1-2.1,5.6-1.9,6.9c0,0,1.5,0.3,1.5,0.2c0.1-4.8,7.4-5.4,8.9-3.6c1.8,2.1,1.8,5.3-1.2,7.8c-4.5,3.8-12.7,5.1-15.7-1.9
		c-4-9.3,12.2-22.3,24.7-22.3c24.4,0,29.2-1.2,37.8-9.5c3.8-3.7,5.9-21-7.7-30.9c0,6.2,1.8,14.6-17.7,24
		c-19,9.2-31.9,12.5-41.1,24.7c-6.7,8.8-15.9,29.6-4.4,50.4c8.3,14.9,25.6,19.8,41.4,15c14.3-4.4,25.9-16,13.8-30.9
		c0.8,4.6,3.4,11.7-8,15.7c-6.3,2.2-16.4-0.9-18.9-8.8c-2.2-7.2,1.3-19.4,14.8-20.9c25.5-2.9,24.3,24.1,19.9,33.5
		c-1.4,3-4.9,7-9.8,10.6v11.5C164.4,123.4,169.9,119.8,176,113.4z"/>
	<path d="M156.3,127.7v-11.1c-1.7,1.1-3.6,2.1-5.6,2.9v10.8C152.6,129.5,154.4,128.6,156.3,127.7z"/>
	<path d="M124.5,121.5c-28.5-8.8-29.9-33.5-28.6-42.1c1.7-10.6,5.8-28.8-1.7-35.9c-10.4-9.9-18.3-10.8-24-11.4
		c13,15.8,7.9,40.2,9.7,55.6c1.2,9.8,4.6,14.4,7,17.6c0.8,1.1,4.2,4.3,4.1,4.3c-2.3-2-7.4-5.4-14.8-7.8c-3.9-1.3-9.4-2.2-12.8,0.5
		c5.9,1.4,12.3,6.7,18.6,16.2c4.3,6.5,9.6,11.1,15.2,14.7c2.8,1.8,12.6,5.9,15.2,6.2c0.3,0,0,2.9,0,2.9
		C97,140.3,95.9,157,96.2,163.1c0.2,6.3,3.6,14.5,4.4,14.7c0,0-1.6-12.4,14.3-26.4c9.4-8.3,17.3-12.8,23.6-15.8v-12.8
		C134,123.2,129.3,123,124.5,121.5z"/>
	<path d="M147.9,131.5v-10.8c-2.1,0.8-4.3,1.3-6.5,1.7v11.8C143.7,133.2,145.9,132.3,147.9,131.5z"/>
	<path d="M159.2,130.6v72.2l-2.9,2.4v-73.5c-2,0.7-3.8,1.4-5.6,2.1v79.4h-2.9v-78.3c-2.4,1-4.5,2.1-6.5,3.2v100.4h-2.9v-98.9
		c-16.4,9.4-20.9,19.3-20.9,19.3v2.7c1.1-0.4,3.7,2.6,4.5,5.5c1,3.7,1,9.8-1.7,16.2c-4.2,9.7-10.2,22.8-10.2,22.9
		c0.1,2.8,0.9,6.9,1.9,8c7.4,7.2,10.3,16.1,10.8,16.4c3.9-4.6,5.1-16.5,2-21.6c-0.3,1.4-3.7,2.7-6.2,1c-3.9-2.7-0.7-8.1,3.4-8.7
		c4.3-0.6,10.1,5.4,10.2,15.8c0.1,7.6-5.4,17.1-5.4,17.1c1.5,1.8,19.2,20.5,21.4,20.5c2.5,0,21.4-26.4,23-36.8
		c0.3-2.1,0.4-45.6,0.7-65.1c0.1,0,1.1-7.2,2.7-15.2c1-5.3,1.1-6.9,1.9-9.3c0.9-2.7,1.6-5,2.7-6.9c0,0.2,0.1-3.9,0.3-6.2
		C172.2,124,169.1,127.3,159.2,130.6z"/>
</g>
</svg>
