<?xml version="1.0" encoding="utf-8"?>
<!-- Generator: Adobe Illustrator 27.0.1, SVG Export Plug-In . SVG Version: 6.00 Build 0)  -->
<svg version="1.1" id="图层_1" xmlns="http://www.w3.org/2000/svg" xmlns:xlink="http://www.w3.org/1999/xlink" x="0px" y="0px"
	 viewBox="0 0 256 256" style="enable-background:new 0 0 256 256;" xml:space="preserve">
<style type="text/css">
	.st0{fill-rule:evenodd;clip-rule:evenodd;}
</style>
<g>
	<path class="st0" d="M158.8,26.5c-13.8-4.5-21.7-4.1-21.7-4.1s-2.1,1.6-6.5,3.8c-4.4,2.2-11.4,4.1-18.6,0.7
		c-7.2-3.4-9.6-13.3-9.6-13.3c0.1,7,3.9,13.3,5.8,16.2c7.3,9.5,16.2,9.5,16.2,9.5c3-3,7.5-5.8,12-7.1c16.4-4.1,24.6,9.3,24.8,14
		c0.9,10.3-1.6,15.3-6.8,19.2c-3.4,2.6-8.5,3.4-11.6,3.7c0.5,1.1,1.7,2.6,1.7,2.6c2.1,2.7,7,6.3,14.1,3.5c3.5-1.4,6.9-6.5,9.3-9.5
		c2.4-2.9,7.7-10.3,9.2-12.3c3.3-4.2,6.6-8.5,7.3-12.4C179.8,37.2,170.1,30.2,158.8,26.5z"/>
	<path class="st0" d="M99.7,73.8c-4.3-2.5-7-11.2-1-16.4c6-5.2,14.5-1,14.5-1C112.4,53,110,49.4,105,46c-5-3.4-11.3-3.3-11.3-3.3
		c-4.8,2.9-10.8,9.2-27.2,8.8C50,51.1,44.3,39.1,44.3,39.1c1.6,5.6,5.6,11.7,9.4,15c10.7,8.6,24.1,10.5,24.1,10.5
		c1,4.5,3.2,10.5,6.3,15.2c8.8,12.7,18.3,14.7,18.3,14.7c5.6-5.5,11-8.1,13.6-9.2c0.1-1.4,0.3-4.5,1.6-7.1c1.2-2.4,2.4-4,3.1-5.2
		C110.7,78.7,103.4,76,99.7,73.8z"/>
	<path class="st0" d="M212.3,92.6c-1.2-5.8-3.4-15.1-7-23.1c-1.3-2.8-2.3-4.6-3.1-5.9c-1.3,1.9-2.9,3.7-2.9,3.7
		c-2.3,2.5-3.8,4.3-6,6.5c-1.6,1.6-1.4,2.6-1.4,2.6c0,0.4,0.5,1.4,2.6,2c1.7,0.5,3.3,1.9,3.3,1.9c-7.6,4.2-12,11.1-8.6,19.6
		c1.5,3.7,5.5,6.2,10.1,7.7c5.5,1.3,11.8-0.4,14.3-1.1C213.6,103.3,213.3,96.9,212.3,92.6z"/>
	<path class="st0" d="M253.8,127c-0.7-7.1-2.2-13-4.1-18c-1.9-5.1-4.2-9.3-6.5-15.7c-2.4-6.4-2.2-8.5-2.4-12.6
		c-0.4-7.6,5.8-14.2,5.8-14.2c-2.6,2-7.4,5.2-9.6,12.4c-2.3,7.2,0,13.6,1,18.8c1,5.2,1,12.4,0.7,17.1c-0.3,4.7-2.6,12.1-5.6,17.6
		c-2.9,5.5-6.4,9.5-12.3,9.7c-5.8,0.2-8.8-3.2-9.6-7.1c-0.8-3.9,1.1-10.4,1.4-11.9c-1.2,0.7-7.5,4.6-12.4,6.3
		c-6.5,2.2-9.4,1.8-9.9,1.9c-0.1,4.3-1.7,14.1-7.3,24.6c-6.6,12.5-16.6,19.4-26.8,24.9c-6.2,3.4-14.4,5.9-19.7,7.4
		c-1.6,2-4.4,5.6-8,8.7c-4.1,3.4-7.3,5.2-14.3,10c-6.8,4.7-8.9,10-8.9,10c-2.8,5.8-2.8,14-2.8,16.1c27.8,4,57.5-0.3,77.8-7.5
		c21.6-7.7,30.8-17.2,36.9-23.8c6.2-6.5,10.1-15.4,10.1-15.4c-2,2.1-7.1,9.4-14.7,14.3c-7.7,4.9-16.7,5.9-16.7,5.9s-10.9,1.5-12-5.9
		c-1.2-7.5,5.6-13.5,9.6-16.4c4-2.9,15.5-6.1,18.6-6.9c3-0.8,20.5-4.4,30.1-16.1C253.2,148.6,254.5,134.1,253.8,127z"/>
	<path class="st0" d="M41.3,170c-7.5-8.7-10.5-17.3-8.2-28.7c2.4-11.5,12.2-21.4,22.2-24.2c0,0-12.4,0.2-24.1,13.1
		c-11.7,12.9-13.9,32.9-11.6,43c2.2,9.8,5.4,22.4,21.3,34.4c0.6-0.8,1.6-2.1,2.4-3.4c0,0,5.7-7.9,9.2-12.3c3.5-4.3,5-5.9,5-5.9
		s1.7-1.5,3.3-3C56.7,181.2,47.1,176.7,41.3,170z"/>
	<path class="st0" d="M61.4,100.9c0,0-14.6-5.1-30.6,2.4c-16,7.5-24,21.9-26.5,28.5c-2.5,6.6-2.2,11.6-2.2,11.6s4.2,2.9,5.6,11.2
		c1.4,8.3,1,18.5,1,18.5s6.3,14.9,19.3,24.5c0,0-11.5-13.3-13.5-30.9c-2-17.6,2.7-34,8.9-42.3C29.4,116.2,42,99.2,61.4,100.9z"/>
	<path class="st0" d="M213.1,108.5c-10.7,2.6-16.4,0.7-21.4-2.4c-5.1-3.1-7.1-11.1-6-15.5c1.2-7.5,8.2-10.4,8.2-10.4
		c-2.1-0.1-4.9,1.1-8.9,5.7c-4,4.5-4.5,10.7-9.9,21.6c-5.4,10.9-14.8,23.6-19.8,28.5c-4.9,4.9-20.4,20-37.1,27.1
		c-16.7,7.1-14.8,4.2-29.4,7.9c-14.6,3.6-18.4,7.4-21.7,9.7c-3.3,2.3-8.5,7.4-9.7,8.8c-1.1,1.4-13.6,18.4-17.8,23.7
		c-4.2,5.4-21.7,28.5-21.7,28.5s21.2,5.1,42.2,3.1c21-2,37.4-9.5,37.4-9.5c-0.1-16.7,3.1-20.6,7.9-26.6c4.7-5.8,12.7-9,17.4-12.6
		c4.7-3.6,8.2-6.2,13.7-13.8c5.6-7.6,7-17.8,7-17.8c-0.3,1.6-3.9,9-3.9,9c-5,9.6-16,15-22.9,16.6s-15,1.1-19.3,0.5
		c-4.3-0.6-5.7-0.8-10.1,0.5c-11.5,3.7-11.2,12.2-9.6,15.7c1.6,3.5,7.6,5.1,11.3,3.1c2.3-1.2,3.3-3.4,3.7-4.9c0.1-0.5,0.3-1,0.4-1.5
		c0,0-0.1,0.7-0.4,1.5c-1,5.2-5,10-11,9.7c-10.2-0.9-12.2-9.4-10.8-15.7c1.3-6.2,6-12.2,16.6-15.2c10.6-3,15.8,0,24.6-0.2
		c8.8-0.2,17.5-5.4,20.8-8.8c3.2-3.4,6.7-8.3,7.7-9.8c1-1.5,6.2-8.6,8.4-11.6c2.3-3.1,17.8-24,17.8-24s10.3-14.1,12.3-16.4
		c2-2.3,3.6-2.9,4.1-3.1c4.3-2.4,10.4,0.8,11.3,5c0.9,3.9,0.4,7.3-3.1,10.5c-3.5,3.1-11.1,2.8-11.1,2.8c9.9,3.1,19.3-0.3,23.1-2.6
		c3.9-2.3,9.9-6.4,14.7-12.1c9.1-11,12.1-20.9,12.1-20.9C226,102.2,218.3,107,213.1,108.5z"/>
	<path class="st0" d="M229.5,50.1c0,0,0.7-1.7,0.2-3.8c-0.4-2.1-1.9-3.9-4.8-4.5c-0.9-0.1-2.8,0.1-4.8-0.7c-2-0.8-3.1-3.6-2.4-5.5
		c0.4-1,0.5-1.7-0.7-2.8c-1.2-1.1-3.1-2.1-5.6-3.3c-2.4-1.2-6.4-2.8-7.2-6.4c-0.8-3.6,0.5-4.3,0.5-4.3s0.7,3.5,5.1,5.9
		c4.4,2.4,8.9,4.6,11.1,6.9c2.2,2.3,1.4,3.8,1.4,3.8s-0.4,2.9,1.9,3.8c2.4,0.9,4.4-0.1,5.1-2.1c0.7-2,0.2-6.1-3.1-9.3
		c-3.4-3.2-12.4-6.3-14.5-8.5c-2.1-2.2-5.2-4.6-2.4-8.6c0,0-6.9-0.1-9.4,5.2c-2.5,5.4-0.8,10.2,4.6,15c0,0-2.1-0.6-5.1,0
		c0,0-5.1-10.1-15.7-14.7c-10.6-4.6-17.2-3-21.4-2.2c0,0,13.6-2.5,22.7,10.7c3,4.8,5.5,14.4-0.2,23.5c-1.4,2.2-9.4,12.7-12.8,17.4
		c-1.2,1.5-3.9,4.7-5.5,6.9c-1.6,2.2-3.5,4.8-8.4,6.2c-4.9,1.3-12.7,0.8-16.6-6.7c0,0-2.4-4-2.4-10.5c0-6.5,0.1-12.5-3.6-17.3
		c0,0-2-3.1-4.3-4.3c0,0,3.6,5.7,2.9,13.1c-0.7,7.4-6.8,15.5-8.7,17.8c-1.9,2.2-6.8,6-7.5,14c-0.7,8,3,14.9,12.8,18.5
		c3.7,1.1,8,0.2,11.3-2.4c3.4-2.6,3.6-8.1,3.6-8.1s-4,4.6-9.4,1.7c-5.4-2.9-3.4-10.5,1-11.9c4.4-1.4,12.2-0.1,14.5,9.5
		c2.2,9.6-5.9,20.4-15.4,22.6c-9.6,2.2-17.1-1.4-20.3-3.8l-23.9,32.3c0,0-4.9,7.4-12.1,10.5c-7.2,3-16.1,1.9-19.1,0.9
		c0,0,10.8,6.4,30.1,6.7c19.3,0.2,32.5-7.7,37.9-10.7c5.4-3,19.3-11.2,30.6-25c11.3-13.7,15.1-23.8,17.6-29.5
		c2.5-5.6,5.1-14.1,12.1-21.9c7-7.7,10.7-10.8,11.1-13.5c0,0,5.1,5.1,11.3,1.4c0,0-6-1.6-6.5-7.4c-0.4-3.6,1-6.7,1-6.7l-1.7-1.9
		c0,0,5.6,0.5,7.5,0.9c1.9,0.5,5.4,1.7,6.3,5.2c0.9,3.5-2.3,6.3-5.6,6.2c0,0,1.3,4.3,6,2.4c0,0,2.5,2.2,4.6,1.9
		c2.1-0.4,2.9-1.4,2.9-1.4s3.9-0.8,5.1-3.5C232,55.1,230.4,51.4,229.5,50.1z"/>
</g>
</svg>
