<?xml version="1.0" encoding="utf-8"?>
<!-- Generator: Adobe Illustrator 27.0.1, SVG Export Plug-In . SVG Version: 6.00 Build 0)  -->
<svg version="1.1" id="图层_1" xmlns="http://www.w3.org/2000/svg" xmlns:xlink="http://www.w3.org/1999/xlink" x="0px" y="0px"
	 viewBox="0 0 256 256" style="enable-background:new 0 0 256 256;" xml:space="preserve">
<g>
	<g>
		<path d="M93.8,84.1c2.1-0.2,4.2-0.1,6.3-0.6c2.9-0.6,5.6-1.9,7.9-3.7c4.3-3.3,9.1-5.4,14.4-6.2c5.7-0.9,11.2-0.3,16.6,1.4
			c3.1,0.9,5.6,3.1,8.2,5c3.8,2.8,7.9,4.2,12.7,4.5c3.6,0.2,7.2,0.4,10.7,1.2c6.9,1.5,11.9,5.6,14.9,12.1c0.9,1.9,2.1,3.7,3.3,5.3
			c2.4,3.1,6,4.1,9.5,5.2c4.6,1.3,8.7,3.4,11.8,7.1c3,3.5,5,7.4,5.5,12c0.7,7,3.8,12.8,9.2,17.3c3.8,3.3,7.2,7.1,9.7,11.5
			c0.5,0.8,0.9,1.7,1.2,2.6c0.9,2.4,0,4.1-2.4,4.9c-2.2,0.7-4.4,1.2-6.6,1.8c-7.8,2.1-15.6,4-23.3,6.3c-5.7,1.7-11.3,3.7-17,5.6
			c-0.9,0.3-1.9,0.5-2.8,0.6c-2.3,0.4-3,0-3.9-2.2c-4.7-11-12.6-19.4-21.4-26.9c-5.1-4.4-10.9-7.6-17.4-9.5
			c-5.5-1.6-11.1-2.4-16.8-1.8c-7.6,0.8-14.8,2.8-21.5,6.8c-6.6,3.9-12.3,8.6-16.8,14.9c-3.1,4.4-6.1,8.9-9.1,13.4
			c-0.9,1.3-1.5,2.8-2.3,4.1c-0.7,1.3-1.9,1.7-3.3,1.5c-1.3-0.2-2.7-0.4-4-0.7c-7.6-2.2-15.3-4.5-22.9-6.8
			c-7.1-2.1-14.1-4.4-21.2-6.5c-3.9-1.2-4.6-2.7-3-6.5c1.2-2.8,3.3-5,5.5-7.1c4.7-4.4,8.4-9.5,11.5-15.1c1.6-2.9,2.5-6.2,2.9-9.5
			c0.9-7.2,4.8-12.4,11-15.9c2-1.1,4.1-2.1,6.2-2.8c6.3-2,10.8-6,14-11.8c3.5-6.5,9.2-10,16.2-11.3c2.1-0.4,4.3-0.3,6.4-0.4
			C93.8,84,93.8,84.1,93.8,84.1z M127.8,99.6c-0.9,0.9-1.8,1.9-2.7,2.8c-0.2,0.2-0.8,0.4-0.9,0.3c-2.2-1.3-4.4-2.8-6.8-4.2
			c0.5-0.4,0.9-0.6,1.2-0.9c1.2-1.2,2.6-2.3,3.7-3.6c1.2-1.4,0.6-2.8-1.1-3.1c-2.3-0.5-4.2,0.3-5.6,2c-2.7,3.1-3.5,7-4.4,10.8
			c-0.3,1.3-0.9,2-2.1,2.5c-0.8,0.3-1.5,0.5-2.3,0.8c-1.5,0.6-2.2,1.8-1.7,3.3c0.4,1.3,1.2,2.5,1.8,3.7c0.7,1.4,1.7,2.8,2.2,4.3
			c1,2.8-0.8,5.8-3.5,6.6c-3,0.8-5.4-0.7-6.1-4c-0.4-2.2-0.5-4.6-1-6.8c-0.7-3.2-1.8-4.8-5.5-4c-1.9,0.4-3.3,1.5-3.5,3.1
			c-0.2,1.4,0.4,2.3,2.5,3.3c1,0.5,1,0.7,0.2,1.6c-2.2,2.3-4.5,4.5-6.7,6.9c-0.5,0.5-0.9,1.2-1,1.9c-0.4,2.4-0.4,4.9-0.9,7.3
			c-0.5,2.6-0.5,2.8,2,3.5c3.5,1,7.1,0.8,10.6,0.1c1.3-0.3,2.7-0.6,3.7-1.9c-1.4-0.4-2.8-0.8-4.1-1.2c-1.9-0.5-4-0.7-5.7-2
			c-1.7-1.4-2.2-3.1-1.8-5.1c0.3-2,1.7-3.2,3.7-3.7c2.1-0.6,4.1,0,5.9,1.1c1.9,1.2,3.7,2.6,5.6,3.9c0.6,0.5,1.2,0.5,1.7-0.1
			c0.8-0.8,1.5-1.7,2.4-2.5c0.3-0.3,1-0.5,1.2-0.4c1.7,1,3.3,2.1,5,3c1.7,1,3.5,1.9,5.4,2.9c2.4-3.5,4.6-6.9,6.8-10.2
			c-1.7-1.3-2.1-1.3-2.8,0.3c-1.2,2.5-1.2,2.6-4,2.2c-2.1-0.3-4.2-1-6.6-1.7c1.6-1.9,3-3.4,4.2-4.8c-1.3-1.3-2.6-2.3-3.6-3.5
			c-2.3-2.9-0.8-8.4,3.6-9c1.8-0.2,3.2,0.2,4.7,1.1c0.8,0.6,1.7,1,2.5,1.6c1.9-3.9,4.4-3.6,7.1-0.7c1.6-0.7,3-1.6,4.6-2
			c3.3-0.9,6.8,1.3,7,4.4c0.2,2.7-0.7,5-3.2,6.4c-0.6,0.3-1.1,0.7-1.8,1.1c1.5,1.9,2.8,3.6,4.3,5.5c-1.7,0.5-3.4,1.1-5.1,1.6
			c-3.5,1.1-3.5,1-5.3-2.1c-0.8-1.4-1.2-1.5-2.6-0.4c2.6,3.3,5.3,6.7,8,10.1c0.4-0.3,0.8-0.4,1.1-0.6c2-1.4,4-2.9,6-4.3
			c1.6-1.1,2-1.1,3.4,0.3c0.9,0.9,1.8,1.8,2.8,2.6c1.3,1.2,1.5,1.2,2.9,0c1.2-1.1,2.5-2.3,3.7-3.4c1.4-1.2,3-1.9,4.9-1.9
			c2.5,0.1,4.2,1.7,4.2,4.3c0,3.6-1.1,4.9-4.6,5.5c-0.8,0.1-1.6,0-2.3,0.2c-1.1,0.3-2.4,0.4-3.3,1c-1.3,0.8-1.1,1.8,0.4,2.1
			c2.1,0.5,4.4,0.9,6.6,1c3.2,0.2,6.2-0.4,8.9-2c0.6-0.4,1-0.8,0.6-1.5c-1.4-2.4-1.5-5.1-1.4-7.8c0-0.3-0.2-0.7-0.4-0.9
			c-1.2-1.2-2.5-2.4-3.7-3.6c-1.6-1.6-3.1-3.3-4.6-5c-0.5-0.6-0.5-0.9,0.3-1.2c0.8-0.2,1.5-0.6,2.1-1.1c1.4-1.1,1.5-2.9,0.2-4.1
			c-2.5-2.1-6.8-1.9-8.2,1.7c-0.8,2.2-0.9,4.4-0.9,6.7c0,1.8-0.5,3.5-2.3,4.2c-2.1,0.8-4.3,0.9-6.2-0.7c-1.8-1.5-1.9-3.8-0.5-6
			c1.1-1.7,2.4-3.3,3.6-4.9c1.8-2.4,0.5-5.2-1.9-6.1c-0.8-0.3-1.5-0.5-2.3-0.7c-0.7-0.2-1.4-0.5-1.4-1.5c-0.1-1-0.4-1.9-0.6-2.9
			c-0.8-3.6-2.5-6.6-5.5-8.8c-1.6-1.2-3.3-1.9-5.3-0.9c-0.7,0.4-1.1,0.9-0.8,1.8c0.3,1.1,0.8,1.8,1.7,2.5c1.2,0.9,2.4,2,3.6,3.1
			c-1.4,1.7-3.2,2.6-4.9,3.7c-0.5,0.3-0.9,0.3-1.3,0C130,101.4,128.9,100.5,127.8,99.6z M70.4,146.2c0.8-0.2,1.7-0.3,2.3-0.7
			c0.5-0.3,1.1-1.1,1.1-1.6c0-0.5-0.7-1.3-1.2-1.5c-1.7-0.7-3.2-0.2-4.6,0.9c-0.9,0.7-0.8,1.7,0.2,2.2
			C68.9,145.9,69.7,146,70.4,146.2z M184.8,142.3c0,0,0,0.1,0,0.1c-0.2,0-0.5-0.1-0.7,0c-0.6,0.4-1.4,0.7-1.8,1.2
			c-0.5,0.7-0.1,1.5,0.6,2.1c1,1,2.1,1.2,3.4,0.7c0.8-0.3,1.7-0.6,1.7-1.6c0-1.1-0.6-1.7-1.5-2.1
			C185.9,142.4,185.3,142.4,184.8,142.3z M178.7,117.1c0,1.5,0.8,2.2,2.5,2.2c1.6,0,2.4-0.7,2.4-1.9c0-1.3-1.4-2.5-2.8-2.5
			C179.4,114.9,178.7,115.7,178.7,117.1z M72.6,120.7c1.4,0,2.7-1,2.7-2.2c0-1.4-0.6-2.1-1.8-2.1c-1.2,0-2.5,1.4-2.5,2.8
			C70.9,120,71.6,120.7,72.6,120.7z M206.9,141.9C206.9,141.9,206.9,141.9,206.9,141.9c0.3,0,0.7,0.1,0.9,0c0.5-0.4,1.1-0.9,1.3-1.4
			c0.1-0.3-0.4-1.1-0.8-1.3c-0.8-0.6-2.4-0.3-3,0.4c-0.3,0.4-0.6,1-0.4,1.4c0.1,0.4,0.7,0.7,1.1,1
			C206.3,142,206.6,141.9,206.9,141.9z M49.7,141.7c0.8,0.1,1.5-0.2,1.6-1.2c0.1-0.8-0.9-1.6-2-1.6c-1.1,0-1.9,0.5-1.9,1.3
			C47.4,141,48.4,141.7,49.7,141.7z"/>
		<path d="M110.3,172.2c0.8-0.7,1.5-1.3,2.3-2.1c-1.6-1.9-3.1-3.8-4.6-5.6c-2.4-2.9-4.7-5.8-7.1-8.8c-0.9-1.1-0.9-2.4-0.6-3.7
			c0.2-1.4,1.7-2.3,3.7-2.3c1.8,0.1,3.4,0.7,4.3,2.4c2.9,4.9,5.9,9.8,8.8,14.7c1.1-0.4,2.1-0.8,3.2-1.3c-1.1-1.9-2.3-3.8-3.4-5.7
			c-1.6-2.7-3.3-5.4-4.8-8.1c-0.5-1-0.9-2.1-1.1-3.2c-0.5-3.2,2.8-4.7,5.4-3.4c1.8,0.9,2.7,2.4,3.3,4.2c1.5,4.2,2.9,8.5,4.4,12.7
			c0.1,0.3,0.2,0.5,0.6,0.7c-0.1-1.6-0.1-3.2-0.2-4.8c-0.2-2.7-0.6-5.3-0.9-8c-0.2-1.4-0.4-2.9-0.5-4.3c-0.1-1.6,0.4-2.8,1.9-3.5
			c1.8-0.8,3.5-0.5,5,0.6c1.2,0.9,1.4,2.2,1.1,3.6c-0.3,2.1-0.5,4.3-0.8,6.5c-0.3,2.7-0.5,5.4-0.7,8c0,0.4,0,0.9,0.2,1.4
			c0.9-2.4,1.8-4.9,2.8-7.3c1-2.6,1.9-5.2,3.1-7.7c1.4-2.9,4.2-3.5,6.6-1.6c1.3,1,1.7,2.5,0.9,3.9c-1.6,2.8-3.4,5.5-5.1,8.3
			c-1,1.7-2,3.5-2.9,5.3c-0.3,0.6-0.5,1.2-0.7,1.8c0.5,0.2,0.9,0.4,1.2,0.6c2.2,1,2.2,1,3.4-1.1c1.9-3.4,3.9-6.9,5.9-10.4
			c0.4-0.8,1-1.5,1.5-2.1c1.7-2,4.3-2.1,6.1-0.3c1,1,1.1,2.3,0.6,3.5c-0.4,1-1.1,1.8-1.7,2.7c-2.9,3.7-5.8,7.4-8.8,11.1
			c-0.4,0.5-0.3,0.9,0.2,1.3c0.6,0.5,1.2,1.1,2.2,2.1c0.7-0.8,1.3-1.6,2-2.4c3.2-3.5,6.5-6.9,9.7-10.3c0.3-0.4,0.8-0.7,1.1-1
			c1.8-1.4,3.6-1.2,5.2,0.3c1.6,1.6,1.9,3.9,0.6,5.5c-0.6,0.8-1.5,1.3-2.3,1.9c-3.4,2.4-6.8,4.8-10.1,7.1c-0.3,0.2-0.6,0.4-0.9,0.7
			c-1.7,1.4-1.7,1.7-0.3,3.8c2.6-1.4,5.3-2.7,7.9-4.1s5.2-2.9,7.9-4.2c1.4-0.7,3.1-0.9,4.5,0.1c1.7,1.1,2.6,2.8,2.4,4.8
			c-0.2,2.1-1.4,3.7-3.4,4.4c-3.8,1.4-7.5,2.7-11.4,3.9c-4.3,1.4-8.7,2.7-13.1,4c-1.3,0.4-1.4,0.3-1.8-1c-1.3-5.1-3.5-9.6-8.2-12.4
			c-6.3-3.8-16.9-2.2-21.1,6.4c-1,2-1.9,4-2.1,6.2c0,0.4-0.3,0.8-0.5,1.3c-2.6-0.7-5-1.3-7.5-2c-5.2-1.4-10.4-2.8-15.7-4.3
			c-1.7-0.5-3.2-1.2-4.8-1.9c-3.1-1.4-3.2-4.7-1.7-7.2c0.4-0.6,0.9-1.1,1.4-1.7c1.4-1.5,3.1-2.1,5-1.2c3,1.3,5.9,2.9,8.8,4.4
			c2.6,1.4,5.2,2.9,7.8,4.4c0.6,0.4,1.2,0.5,1.6-0.3c0.7-1.3,0.7-1.8-0.2-2.3c-2.4-1.4-4.8-2.8-7.2-4.3c-2.2-1.4-4.4-3-6.6-4.6
			c-1.2-0.9-2-2.2-2.2-3.8c-0.2-1.4,0-2.6,1.2-3.5c1.3-1.1,2.8-1.4,4.2-0.4c1.8,1.3,3.6,2.7,5.3,4.2c2.8,2.6,5.4,5.4,8.1,8.1
			C109.5,171.5,109.9,171.9,110.3,172.2z"/>
		<path d="M111.4,192.6c2.1-0.7,4.2-1.4,6.3-2c1.7-0.5,1.5-0.5,1.5-2.2c0-1.7,0.1-3.5,0.4-5.2c0.3-1.6,1.4-2.7,2.9-3.3
			c2.9-1.1,5.8-1.3,8.8-0.2c1.8,0.7,3.1,1.9,3.4,3.8c0.3,1.6,0.5,3.2,0.5,4.8c0,0.9,0.2,1.4,1.2,1.7c2.1,0.6,4.1,1.3,6.1,2
			c1.5,0.5,1.8,1.2,1,2.5c-1.4,2.3-3.3,4-5.8,5.1c-5.1,2.2-10.4,2.4-15.8,1.6c-4.8-0.7-8.4-3.1-10.5-7.6c-0.1-0.2-0.2-0.3-0.2-0.5
			C111.3,193,111.3,192.9,111.4,192.6z"/>
		<path d="M221.3,115.2c-0.8-0.1-1.7-0.2-2.4-0.4c-1.7-0.4-2.3-1.8-2.5-3.3c-0.3-3,1.1-6.5,4-8.2c1.5-0.9,3.2-0.9,4.6,0.1
			c1.3,0.9,2.5,2.1,3.4,3.4c1.4,2.1,0.7,4.8-1.6,6.6C225.2,114.5,223.4,115.1,221.3,115.2z"/>
		<path d="M36.3,114.7c-2.6,0.1-4.6-0.8-6.2-2.4c-2.1-2-2.3-4.3-0.6-6.6c1.2-1.6,2.4-3.2,4.6-3.4c2.6-0.3,4.3,1.1,5.6,3.1
			c1.2,1.9,1.5,4.1,1,6.4c-0.4,2-1.6,2.9-3.7,3C36.8,114.7,36.4,114.7,36.3,114.7z"/>
		<path d="M8.4,157.9C6.3,158,4.6,157.2,3,156c-1-0.8-1.6-1.8-1.5-3.1c0-2.7,1.2-4.9,3.3-6.5c1.8-1.4,3.9-0.8,5.7,0.3
			c2.8,1.7,3.9,4.4,3.9,7.6c0,1.5-1.6,2.9-3.6,3.3C10,157.8,9.2,157.8,8.4,157.9z"/>
		<path d="M254.5,152.2c0.4,2.4-2.2,4.8-4.5,5.3c-1.6,0.4-3.4,0.3-5.1,0.1c-2.2-0.3-3.3-1.6-3.2-3.8c0.1-2.7,1-5.2,3.2-6.9
			c2.6-2.1,5.6-1.7,7.6,1C253.6,149.2,254.8,150.4,254.5,152.2z"/>
		<path d="M179.8,82.2c-1.4,0.1-2.4-0.5-3.1-1.7c-1.6-3.1-1.1-7.5,1.4-9.8c1.1-1,2.3-1.6,3.9-1.2c1.9,0.5,3.5,1.4,4.8,2.7
			c1.9,2.1,1.5,4.8-0.7,7.2C184.5,81.2,182.2,82,179.8,82.2z"/>
		<path d="M121.4,59.5c-0.2-3.1,1.7-4.8,4.8-5.1c1.2-0.1,2.4-0.1,3.6,0.1c3,0.7,3.9,3.7,3.4,6.5c-0.4,2.3-1.8,4.3-3.8,5.7
			c-1.3,0.9-2.6,0.9-3.8,0C122.9,65.1,121.5,62.7,121.4,59.5z"/>
		<path d="M81,76.1c-0.1,0.8-0.2,1.6-0.3,2.4c-0.7,3-2,4-5,3.4c-2.8-0.5-5-2-6.3-4.6c-1-2.1-0.7-3.8,0.9-5.4
			c1.3-1.3,2.8-2.3,4.6-2.6c3.6-0.5,5.8,3,5.9,5.5C80.9,75.2,80.9,75.6,81,76.1C80.9,76.1,80.9,76.1,81,76.1z"/>
	</g>
</g>
</svg>
