<svg id="图层_35_复制" data-name="图层 35_复制" xmlns="http://www.w3.org/2000/svg" viewBox="0 0 240 240"><g id="图层_6_复制" data-name="图层 6_复制"><path d="M217.74,19.53A17.75,17.75,0,0,0,219,16.11a15.1,15.1,0,0,0-2,.57c-8.78,4.62-17.32,9.78-26.38,13.75a49.24,49.24,0,0,1-37.54,1.37c-9.1-3.27-18.47-5.87-27.84-8.34a75.74,75.74,0,0,0-16-2.64,77,77,0,0,0-15.48,1.37,91.54,91.54,0,0,0-15.46,3.68c-8,2.79-15.65,6.39-23.56,9.34-8.2,3.06-23.72,2.23-30.29-7-.31-.44-1.07-.55-1.62-.82l-1,.63c1.45,3.15,2.53,6.54,4.41,9.4,5.27,8,14.12,11.35,22,15.93,0,0,9.32,14.69,17.35,18.92h0C72.23,77,80,77.71,90.26,77.48a30.94,30.94,0,0,0,10.13-2c5.28-2,5.6-7.43,1-10.81-3.52-2.6-7-3.05-10.94-.85a22.58,22.58,0,0,1-4.36,1.47l-.47-1.16c1.06-.8,2.11-1.62,3.17-2.4s2.13-1.52,3.19-2.27l-.21-.92c-.79-.12-1.68-.54-2.35-.32a60.47,60.47,0,0,0-9.69,3.52C74.16,64.61,73.16,67.1,74.3,73l-.85.72c-2.46-2.6-5.06-5.08-7.36-7.82-1.64-2-6.19-8-5-10.31,1.39-2.79,4.17-4.18,5.56-11.14a18.24,18.24,0,0,1,.53-2,18.59,18.59,0,0,1,6.5-3.68c3.47-1.31,6.55-3.68,9.78-5.61l1.14-.68a4.15,4.15,0,0,1,5.91,1.7l.81,1.65a3.59,3.59,0,0,0,1.17,0,68.79,68.79,0,0,1,25.2-1.24c12.5,1.91,23.15,7.39,30.58,17.93,6.39,9,5.35,18.32-3.34,25.23a44.6,44.6,0,0,1-33.73,9.83c-4.22-.47-8.33-1.93-12.54-2.67-11.4-2-22.41-1.23-32.42,5.32C62,93,60,99,61.2,103.66a9,9,0,0,1-.63,4.83c-.6,1.71-1.83,3.19-2.57,4.87-1.32,3,0,5,3.19,6.66-1.49-4.27,1-6.54,3.51-8.61a28.33,28.33,0,0,1,12.85-6.2l.21,0c.4-.07.81-.11,1.22-.17,3.07-.35,8.43-.31,11.29,3.51,3.81,5.08,1.26,10.81.77,11.79a35.09,35.09,0,0,1-3,4.15c-6.31,7.28-12.23,14.79-16.52,23.46-1.82,3.69-3.38,7.51-5.06,11.27l.85.52a81.47,81.47,0,0,1,26.27-20.44c-13.33,13.12-15.35,30.22-17.67,47.21a29.58,29.58,0,0,0,2.35-5.68c5.93-20.58,19.38-34,39.26-41.29,1.51-.55,3.54.34,5.32.56a21.41,21.41,0,0,1-2.3,4.22c-3.71,4.27-7.9,8.15-11.29,12.64-2.71,3.58-4.52,7.84-6.73,11.8l.82.66c2.45-2.22,4.76-4.62,7.36-6.63,10.44-8.08,21-16,31.44-24.07a41.84,41.84,0,0,0,12-15.47c2.78-5.84-2-10.45-6.83-10.17a69.29,69.29,0,0,0-14.62,2.31c-4.63,1.3-8.94,3.69-13.44,5.46a11.24,11.24,0,0,1-3.36.23,12.7,12.7,0,0,1,1.62-2.73q19-19,38.14-37.9c7.54-7.5,15-15,22.58-22.54,2.66-2.65,3-2.59,4.53,1a31.66,31.66,0,0,1,2.2,6.54c1.65,9.39.56,19-8.44,25a4.77,4.77,0,0,0-.91,1.18c5.25.89,10.52,1.09,15.29,2.74,6.35,2.2,10,7.4,8.76,11.11-4-2.32-8-4.69-13-3.3.13.72.09,1,.23,1.16.48.48,1,.89,1.53,1.37a34.6,34.6,0,0,1,10.52,21.69c1,9.38.64,18.8-3,27.7-1.07,2.65-2.18,5.3-3.37,7.91-.47.82-3.5,6.35-7.68,9.13-2.78,1.4-2.78,4.18-5.56,4.18a34.91,34.91,0,0,1-11.27-7.22l-3.69-3.9a42.13,42.13,0,0,1-5.45-8.43c-.94,1.52-1.86,14,14.84,25.12,5.54,4.15,11.48,14,14.08,16.76.17.33.35.66.52,1,4.06,8.35,11.19,12.65,19.64,15.28.4.13.95-.22,1.82-.45-1.17-1.08-2-1.86-2.84-2.61-7.16-6.38-10.32-14.4-8.14-23.7,1.63-6.91,4.4-13.58,6.91-20.27,5.15-13.75,9.52-27.61,7.82-42.59-.26-2.31-.7-4.6-.81-6.91-.53-11.59-3.78-22.52-8.48-33A44.46,44.46,0,0,1,201.22,56C204.13,42.75,210.21,30.77,217.74,19.53Z"/><path d="M76.19,167.42c-16.5,22.48-20,54.13-5.57,72.47.45-4.37.66-8.47,1.32-12.5,1.35-8.25,2.11-16.34.81-24.83-1-6.59,0-13.57.7-20.33C73.93,177.25,75.25,172.36,76.19,167.42Z"/></g></svg>