<?xml version="1.0" encoding="utf-8"?>
<!-- Generator: Adobe Illustrator 27.0.1, SVG Export Plug-In . SVG Version: 6.00 Build 0)  -->
<svg version="1.1" id="图层_1" xmlns="http://www.w3.org/2000/svg" xmlns:xlink="http://www.w3.org/1999/xlink" x="0px" y="0px"
	 viewBox="0 0 256 256" style="enable-background:new 0 0 256 256;" xml:space="preserve">
<style type="text/css">
	.st0{fill-rule:evenodd;clip-rule:evenodd;}
</style>
<g>
	<path class="st0" d="M242.6,208c-2.9,3.1-9.2,6.5-12.7,6.9c-22.6,2.9-31.2-11.1-25.3-25.4c4.1-10,13.6-19.2,24.4-27.6
		c14.4-11.3,27-31.5,24.9-54.4c-2.1-21.9-17.8-37.3-39-40.2c-22.3-3.1-53.2,4.8-70.8,13.6c-0.3,1-0.3,1.5-0.8,3
		c0,0,51.6-16.6,66.9,15.2c13,21.1,10.2,36.5-5.1,56.2c-3,3.8-8,6.4-7.9,3.8c0,0,0.1-1.4-0.6-5.5c-3.7-3.5-12.7-10.2-25.6-5.3
		c-15.4,5.8-6.6,21.3,1,20.5c4.8-0.5,10.3-4.3,7.6-9.8c1.2,0.2,9.9,0.8,8.1,10.9c-1,5.5-12.3,10.4-19.3,9.9
		c-8.9-0.7-12.7-4.3-11.7-12.4c0.1-0.9-1-2-2.8-2.3c0,0-4.2-1.5-11.9,7.1c-2.4,2.7-13.7,5.5-21.5,2c-14.2-6.2-21.9-25.1-8.6-36.7
		c11.8-10.2,28.4-4.6,27.1,10.4c-0.5,6.5-9,9.1-10.7,5.1c-3.3-8,0.7-3.4,1-8.9c0.1-2.4-0.5-4.1-4.1-5.3c0,0-10.5,0.9-11.2,12.1
		c-0.5,8.3,6.4,20.4,24.4,15.9c15.2-7.1,15.2-25.6,15.2-25.6s2.1-0.7,3.8,0.5c1.5,1.1,2.5,4.1,2.5,4.1s5.6-13.1,21-7.6
		c9,3.2,12.5,6,13.8,7.7c-0.3-1.1-0.6-2.4-0.9-3.7c-3.2-12.7-23.2-41.8-57.8-42c-1.3,0-2-1.2-1.3-2.5c0,0,6.3-7.5,3.3-24.8
		c-2.1-11.7-9.8-27.1-23.6-34.6c-26.2-14.4-48.4-6.6-48.4-6.6S56.2,4,21.2,2.1c-2.6-0.1-5.2,0.9-7.1,2c0,0,0,1.1,2,3.3
		c7.2,8,20.8,24,14.7,42c0,0-7.6,8.4-11.9,21.2c-4.3,12.7-5.4,29.7,3,43.1c5.6,8.9,9.8,11.7,16,16.1c1.7,1.2,6,2.5,8.9,4
		c2,1.1,2.9,2.5,3.3,3.3c0.9,1.8-1.2,4-2.3,5.1c-3.9,3.8-6.1,8.3-6.1,8.3s-5.8,14-7.1,23c-1.3,9-4.4,45.3,22.6,64
		c27,18.7,70.8,22.2,99.9,6.1c0,0,18.5-10.3,23.6-19.7c0,0,7.4,12.7,23.3,14.9c25.8,3.6,56.9-18.1,45.7-39.7
		C249.7,199.1,249,201.3,242.6,208z"/>
	<path class="st0" d="M45.6,236.1c-4.2,0-15.6-3.4-22.1-9.9c-6.5-6.5-7.5-11.8-1.3-18.2c6.2-6.4,5.5-8.6,5.3-16.7
		c-0.2-8.1-2-16.9-2-16.9S10.2,180,4.7,194.1c-5.4,14.1-2.9,30.3,9.6,39.5c12.6,9.2,27.8,10.5,35.2,9.6c1.3-0.2,2.3-0.9,1.8-2.3
		C50.9,239.5,49.8,236.1,45.6,236.1z"/>
</g>
</svg>
