<?xml version="1.0" encoding="utf-8"?>
<!-- Generator: Adobe Illustrator 27.0.1, SVG Export Plug-In . SVG Version: 6.00 Build 0)  -->
<svg version="1.1" id="图层_1" xmlns="http://www.w3.org/2000/svg" xmlns:xlink="http://www.w3.org/1999/xlink" x="0px" y="0px"
	 viewBox="0 0 256 256" style="enable-background:new 0 0 256 256;" xml:space="preserve">
<style type="text/css">
	.st0{fill-rule:evenodd;clip-rule:evenodd;}
</style>
<g>
	<path class="st0" d="M136,54.7c-4.4-2.4-11.4-5.6-14.3-5.8c-3-0.2-13.6,0-18.5,2c-5,2-7.4,3.6-9.9,5.6c-2.5,2-7,3.9-8.4,4.6
		c-1.4,0.7-3.3,4.4-4.2,7.1c-0.9,2.7-1.9,4-3.2,5.6c-1.3,1.6-3,8.1-2.9,9.2c0.1,1.1-0.7,0.9,0,1.3c0.7,0.4,1.1-0.3,2.9-2
		c1.8-1.7,16.5-11.8,29.9-15.8c13.4-4,22.5-5.6,26.7-5.9c4.2-0.2,6.9-1.1,7.9-1.5C141.9,59,140.4,57.1,136,54.7z"/>
	<path class="st0" d="M139.5,64.4c-4.8,1.1-6.6,4.1-10.1,7.1c-3.5,3.1-7.5,5.3-12.1,5.1c-4.6-0.2-17.7-1.8-25.5,5.9
		c-7.8,7.7-8.9,18.4-8.9,24c-0.1,5.5,1.2,15.4,7.4,24.2c0.5,0.7,2.6-0.4,2.5-2.6c-0.1-2.1-0.9-7-0.5-11.2c0.4-4.2,2.2-14,3.4-16.1
		c1.3-2,8.9-6.4,10.9-8.4c0,0,14.8-2.2,17.3-3.3c2.5-1.1,6.4-3.7,7.4-6.4c1-2.7,3-4.3,4.9-4.8c1.9-0.5,3.9-2.4,5.9-3.8
		c2.1-1.5,7.2-3.3,7.2-3.3S144.3,63.3,139.5,64.4z"/>
	<path class="st0" d="M145.9,200.4c-21.7-6.4-33.6-18.8-45.5-28.5c-11.9-9.8-12.3-18.7-12.6-22.4c-0.3-3.7-2.3-5.3-2.5-11.5
		c-0.2-6.2-2.2-11-2.2-11c-3.1-4.5-7.1-16.1-6.7-21.9c0.5-5.8,5.7-17.6,5.7-17.6c-2.6-2-8.1,1-9.6,2.5c-1.6,1.5-3.6,4.3-5.7,5.6
		c-2.1,1.3-3.5,2.8-3.5,2.8c-8.5,7-8.3,16.5-9.6,24.5s2.7,9.4-2.5,14.5c-5.1,5.1-12.6,0.5-12.6,0.5s-0.8,0.3,2.7,5.6
		c3.5,5.3,8.9,6.9,8.9,6.9l4.4-3.3c0,0,3.8,9.3,6.9,14c3.1,4.7,6.9,13.2,11.1,16.8c4.2,3.6,2.9,7.7,13.6,14
		c10.7,6.3,19.3,5.3,19.3,5.3s8.3,4.9,9.9,5.4c1.6,0.5,6.2-0.8,6.2-0.8c27.8,6.9,43,0.3,43,0.3S153.7,202.7,145.9,200.4z"/>
	<path class="st0" d="M185.7,74.3c-2.4-11.4-11.6-16.6-13.1-17.1c-1.5-0.5-1.2,0.3-1.2,0.3c2.3,1.9,5.2,9.5,6.2,16.8
		c1,7.3-1.8,21.8-4.7,25.5c-2.9,3.7-7.9,9.9-8.6,11.5c-0.7,1.5,0.1,1.9,2.2,7.1s2.2,16.3-0.5,29.8c-2.7,13.5-14.1,19.1-19,21.2
		c-4.9,2-12.9,1.9-23.7-0.5c-10.8-2.4-17-8.5-17.8-9.9c-0.8-1.5-2.1-6.5-2.7-4.8c-1.3,3.4-3.1,4.2-3.5,5.4c-0.4,1.1,2.5,1.3,3.2,3.1
		c0.7,1.7,2.8,6.4,6.2,8.7c3.4,2.2,12,9.6,32.1,11.2c20.1,1.6,29.2-11.1,35.8-25.5c6.6-14.3,3.8-30.8,2.5-35.2
		c-1.3-4.3-4.7-9.9-4.7-9.9l5.9-3.3l-1.5-0.3C187.2,103,188.2,85.7,185.7,74.3z"/>
	<path class="st0" d="M216.9,118.9c1.2-28.6-11.3-46.8-17.8-58.6c-6.5-11.8-19.3-22.2-19.3-22.2s1.7,1.6,6.9-1.5
		c5.3-3.2,7.1-6.9,4.2-10.7c-2.8-3.9-5.2-1.8-5.2-1.8c1,2.2-2.8,5.6-5.9,7.6c-3.1,2-9.4-0.9-16.6-4.1c-7.1-3.2-24.1-7.2-35.6-7.6
		c-11.5-0.5-18.2,2.2-25.7,3.8c-7.5,1.7-22,7.9-22,7.9l1.7,0.2c3.4,0.2,20.1,4.2,26.7,6.9c6.6,2.7,14.3,6.4,14.3,6.4
		s-0.7-3.2-5.4-7.9c-4.7-4.7-9.9-7.1-9.9-7.1s10.4-1.1,15.1-1.5c4.7-0.5,19.6,2.5,33.9,9.7c14.3,7.2,26.6,19.2,34.1,35.1
		c7.6,15.9,0.7,29.9-1.7,33.6c-2.5,3.8-4.7,6.1-4.7,6.1c2.9,2.5,6.5,13.1,6.7,15c0.1,1.9-1,1-1,1l-0.2,8.4
		c-0.5,18.9-14.2,36.6-18.1,40.5s-10.9,10.1-22,10.4c-11.1,0.3-33.1-8.7-33.1-8.7c10.4,10.9,38.3,18.1,38.3,18.1
		c2.5-1.1,8.2-1,14.8-1.3c6.6-0.3,19.9-9,25.4-13.5c5.5-4.5,10.1-12,10.1-12v-2.3c-2.7,1.6-8.4,1.8-8.4,1.8
		C201.6,164.6,215.7,147.4,216.9,118.9z"/>
	<path class="st0" d="M251.9,76.1c-2.4-5.4-9.2-10.9-11.9-11.7c-2.7-0.8-10-2.7-13.8-5.1c-3.8-2.4-14.9-7.2-18-8.1
		c-3.1-0.9-2,1.3-2,1.3s6.4,6.6,12.9,12.5c6.5,5.9,11.4,9.6,14.3,18.3c3,8.8,3.1,30.3,2.7,38.5c-0.3,8.2-2,14.8-2,14.8
		s-4.9-12.9-5.9-14.5c-1-1.7-4.2-5.1-4.2-5.1s-0.7,0.5-1.7,2c-1.1,1.5,0.3,3.8,0.3,3.8l-1.2,1.8c0.9,14.4-0.5,22.1-4.2,34.9
		c-3.7,12.8-15,23.7-25.5,32.1c-10.5,8.4-26.6,13.4-34.1,15.8c-7.5,2.4-14.3,4.1-14.3,4.1h2.5c0,0-0.1,0.7-5.2,2.6
		c-5.1,1.8-20.8-0.2-20.8-0.2l-3.2,0.8c5.6,4.9,26.9,9,29.7,8.1c2.7-0.8,11.6-2.1,18.5-2.8c6.9-0.7,15.9-2.4,19-5.1
		c3.1-2.6,14.7-10,22.3-14.5c7.5-4.5,17.1-18.3,19.5-22.7c2.4-4.4,7.8-17.7,8.1-19.6c0.4-1.9,0.2-6.9,0.2-6.9s4.5-2.1,4.5-3.8
		c0-1.8,1.8-6.8,3.4-13.5c1.7-6.7,6.8-21.2,10.1-31.1C255.3,92.6,254.3,81.5,251.9,76.1z"/>
	<path class="st0" d="M152.6,228.2c0,0-3.6-2.4-12.4-2.8c-8.8-0.5-16.1-3-23.5-6.9c-7.4-3.9-18.1-5.9-21.8-6.1
		c-3.7-0.2-10.4-4.1-10.4-4.1s3.5,0.2,7.9-0.5c4.4-0.8,8.4-6.6,8.4-6.6s-4.4,0.4-7.9,1.3c-3.5,0.8-9.1-0.6-13.8-5.6
		c-4.7-5-17-9-23-10.7c-6-1.7-13.9-10-14.8-15c-1-5.1,0.3-10.5-5-13c-5.2-2.5-5.2-6.6-5.2-6.6c0.4,1.1,1.7,2,1.7,2s1-1.3,1.5-3.6
		c0.5-2.2-1.7-0.7-3.7-5.1c-2-4.4,2.7-40.9,8.7-54.8S52.2,74.2,54,70.2c1.7-3.9,3.6-8.1,14.8-17.8C80,42.6,94,37.6,94,37.6
		c-5.1-2.4-9.4-0.1-13.1-0.5c-3.7-0.4-12.4-3.1-18.8-2.8c-6.4,0.3-9.5,1-10.1,3.3c-0.6,2.3-2.7,4.5-7.7,7.1c-5,2.7-4.8,6.8-6.4,9.2
		c-1.6,2.4-7.8,6-8.6,9.4c-0.8,3.4-6.8,13.9-8.1,15.8c-1.4,1.9-2.8,2.3-3,5.1C18,87,18,88.7,16.9,91.1c-1.1,2.5-2.8,3.8-2.7,5.1
		c0.1,1.3,2.1,4.6,2.5,6.6c0.4,2,1.6,6.2,0.2,9.2c-1.3,3,1.7,5.4,3.5,9.9c1.7,4.6,3.8,16.5,3,21.7c-0.8,5.2-6,10.7-6,10.7
		s7,5.9,12.1,12.5c5.1,6.6,5.4,12.2,9.9,24.5c4.5,12.3,12.9,22.9,12.9,22.9s0.7,0.8,1.2,1.5c0.5,0.7,9.9,7.9,9.9,7.9l0.7-9.4
		c0,0,0.9,3.3,9.9,10.5c9,7.2,18.2,10.3,22.3,11.2c4.1,0.8,16.3-1.3,16.3-1.3l-2.7-2.8c0,0,2,0.7,6.7,0.5c4.6-0.2,14.2,3.9,21,2.8
		c6.8-1.1,17.8-6.6,17.8-6.6L152.6,228.2z"/>
	<path class="st0" d="M27.8,184.1c-8.2-8.4-13.3-13.9-14.6-21.4c-1.3-7.5-2.8-18-0.7-25c0,0-6.9,6.2-6.2,18.9
		c0.8,12.7,6,20.1,13.9,29.1c7.8,8.9,6.3,17,2.2,20.1c-4.1,3.2-4,4.3-4,4.3s5,6.9,10.9,4.8c5.9-2.1,10.2-7,9.2-12.2
		C37.3,197.5,36,192.5,27.8,184.1z"/>
	<path class="st0" d="M33.9,52.1c4.6-4.6,5.9-9,3.2-15.5C34.5,30,27,30.7,27,30.7c-2,0.8-7.4,3.3-7.4,3.3s1.5,1.2,3.7,6.1
		c2.2,4.9-0.4,11.8-5.9,18.3C11.8,65.1,3.6,73.6,2,88.6c-1.5,15,11.6,20.9,11.6,20.9c-2.7-6.2-3.9-16.7-1-27.3
		C15.6,71.6,29.3,56.8,33.9,52.1z"/>
</g>
</svg>
