<?xml version="1.0" encoding="utf-8"?>
<!-- Generator: Adobe Illustrator 27.0.1, SVG Export Plug-In . SVG Version: 6.00 Build 0)  -->
<svg version="1.1" id="图层_1" xmlns="http://www.w3.org/2000/svg" xmlns:xlink="http://www.w3.org/1999/xlink" x="0px" y="0px"
	 viewBox="0 0 256 256" style="enable-background:new 0 0 256 256;" xml:space="preserve">
<style type="text/css">
	.st0{fill-rule:evenodd;clip-rule:evenodd;}
</style>
<g>
	<path class="st0" d="M231.5,181.3c-14.8,22.8-28.8,30.1-34.3,32.6c-23.5,12.1-47.3,9.1-41.6,9.3c-22.8,0-42.4-10.5-56.9-22.5
		c-9.7-8-29.2-30.6-34.3-35c-9.5-8.3-30.4-17.1-45.6-8.2h-0.4c19.2-16.8,46.9-21.7,61.4-15.2c5.7,1.2,12.5,6.2,11.5,15.2
		c0.3,7.1-10.3,12.8-15.4,3.9c0.7,13.2,14.6,11.6,19.3,7.7c6.9-6,6-19.5-0.1-27.1c-10.5-10.2-29.5-12.8-38.5-11.6
		c7-7.1,22.3-12.7,34.7-7.7c0.7,6.4,10.9,6.1,11.5,0c0.4-5.3,0.4-13.6-23.1-11.6c9.6-6.6,15.1-7.7,24-7.8c7.7-0.1,10.5,0.6,18.3-3.8
		c7.7-4.6,22.9-17.6,23.1-26.7v26.7c-17.3,7.8-27,26.8-27,46.5c2.6,26.1,25,46.5,55.8,46.5c30.8,0,55.9-24.3,55.9-54.2
		c0-14.9-6.2-28.4-16.2-38.2C249,128.1,236.2,174.9,231.5,181.3z"/>
	<path class="st0" d="M195,83.4c-9.3,8.4-42,26-46,27.6c11.1-8,15.4-19.4,15.4-19.4c22-8.9,34.6-22.6,29.6-39.8
		c-5.1-16.7-25.3-23.5-55.6-14.9c-7.9,2.3-14.3,7.9-20.2,11.9v0.2c-7.4,7.5-24,7.9-34.7,7.7c15.4,0.8,26.8-15.2,23.2-11.5
		C114,38,119.5,29,122.7,19c1.5-3.1,2.6-6,3.2-8.6c0.5-2.2,0.4-4.7-0.2-6.8c0-0.6,0.1-1.2,0.1-1.8c4.2,4.2,4.5,8.4,4.1,12.1
		c-0.6,7.6-4.1,15-8,19.9c-1.3,1.2-2.5,2.4-3.6,3.7c1.2-1,2.4-2.2,3.6-3.7c9-8.3,22.6-14.6,38.7-15.1c18.2,0,43.9,8.2,49.2,26.2
		C212.5,54.6,208.6,71,195,83.4z"/>
	<path class="st0" d="M210.7,36.6c5.9,8.3,9.4,37.5-19.3,51.1C218.4,79.6,234.1,51.2,210.7,36.6z"/>
	<path class="st0" d="M133.6,52.9c22.3-3.8,14.1,22.6,15.4,61.9c7.2-6.8,15.4-15.5,15.4-15.5V41.3C164.4,41.3,145.8,38.5,133.6,52.9
		z"/>
	<path class="st0" d="M133.6,52.9c29.9-7.8,30.8,16,30.8,38.7s0-50.3,0-50.3C160.6,41.3,142.2,38.1,133.6,52.9z"/>
	<path class="st0" d="M149,157.5c0-25.6-0.7-34.2,7.7-42.6c17.7-14,30.4-20.6,34.3-22.7c-5.1,6.5-8.7,14.3-10.3,22.8
		c-0.3,7.5-1.2,10.7-8.5,15.7C164.3,135.9,150.5,144.3,149,157.5z M152.9,153.6c3.2-5.8,11.8-12.5,19.7-18.9c2.6-2.1,5.1-4,7.3-5.8
		c0,0,0,16.5,0,18.9c0,10.1-6.9,13.7-11.4,17.6c-6.4,6.2-13.4,12.3-19.4,19.2C150.2,179,146.5,161,152.9,153.6z M149,196.2
		c0-10.1,17.3-22.1,30.8-35.2v52.7c-1.3,16.4-8.6,36.2-42.4,40.6C151,250.7,149,225.6,149,196.2z"/>
</g>
</svg>
