<?xml version="1.0" encoding="utf-8"?>
<!-- Generator: Adobe Illustrator 27.0.1, SVG Export Plug-In . SVG Version: 6.00 Build 0)  -->
<svg version="1.1" id="图层_1" xmlns="http://www.w3.org/2000/svg" xmlns:xlink="http://www.w3.org/1999/xlink" x="0px" y="0px"
	 viewBox="0 0 256 256" style="enable-background:new 0 0 256 256;" xml:space="preserve">
<style type="text/css">
	.st0{fill-rule:evenodd;clip-rule:evenodd;}
</style>
<g>
	<path class="st0" d="M113,164.4c0,0-3.2-0.6-4.7,1.6c0,0,1.5,8.3,0,12.2c-1.5,4-4,7.2-10.9,9.5c-6.8,2.2-17.7,4.4-21.5,3.9
		c-3.8-0.5-14-4.2-18.2-7c0,0-0.8,0-0.7,0.9c0,0,6,9.9,11.3,14.3c5.4,4.3,12.8,10.7,20.8,13.6c0,0,3.9,0.7,8.7-2.3
		c4.8-2.9,13.6-9.2,17.3-14.2c3.7-5,7.8-11.4,6.8-19.5C121,169.3,117.3,166.1,113,164.4z"/>
	<path class="st0" d="M100.5,165.6c-1.3-2-11.4-11.8-13.5-12.4c-2.1-0.6-8.1-0.9-12.8-0.9c-4.7,0-10.3-0.1-12.3-0.2
		c-2-0.1-14.4-7.7-16.8-9.1c-2.3-1.4-4-2.4-5.2-0.9c-1.2,1.5-0.5,2.5-0.5,2.5L39,165.1c0,0,8,8.5,20.6,10.4c12.5,1.9,15.4,2,15.4,2
		l11.6,4.3c0,0,10.5-1,12.5-2.9c2-2,2.6-4.5,2.6-4.5S101.7,167.5,100.5,165.6z"/>
	<path class="st0" d="M115.8,150.6c-1.5-2.5-5.2-6.1-5.2-6.1l-20.6-10.4l-18.4,0.4c0,0-5-0.4-5.2-3.4c-0.2-2.9-0.6-7.6-2.4-10.2
		c-1.8-2.6-24.3-26.6-24.8-27.2c-0.5-0.5-2.4-2.2-3.1-5.9c-0.7-3.6-1.4-5.7-1.4-5.7l-0.9,29.2c0,0,0.5,2.4,2.4,5.4
		c1.9,3,13,17.5,20.1,22.2c0,0,0.8,1.2,3.8,1.6c3,0.3,19.9,0.3,23.9,1.1c3.9,0.8,8,4.7,9.9,6.6c1.9,1.8,8.7,8.2,10.4,10.4
		c0,0,1.8,2.7,5.2,1.4c3.4-1.3,5.7-3.5,6.9-5.2C116.3,154.9,117.4,153.1,115.8,150.6z"/>
	<path class="st0" d="M82.7,107.4C70.2,101,55.8,96.3,55.8,96.3s9.2,10.9,14.4,17.4c5.2,6.5,12.3,8,17.7,8.1s12.8,1.4,12.8,1.4
		S95.3,113.8,82.7,107.4z"/>
	<path class="st0" d="M125.3,117.8c-0.2-2.1-0.4-11.8,0-19.2c0.4-7.5,0.7-16.1-2.6-20.8c0,0-1.2,6.8-2.1,10c-0.9,3.1-4.9,9-5.7,11.5
		c-0.8,2.5-2.9,2.7-5.4,1.4c-2.5-1.3-5.5-2.7-5.9-5c-0.4-2.3-0.6-4.8-1.4-6.8c-0.8-1.9-5.6-11.9-17-19.2
		c-11.5-7.3-30.5-10.3-41.6-8.8c0,0-3.2,0.2-4.3,3.6c-1.1,3.4,0.9,4.8,0.9,4.8s4,3.2,9.7,5c5.7,1.8,23.3,8.3,27.4,11.3
		c4.1,3,16.2,12.1,22,20.1c5.8,8,9,13,10.9,14c1.8,1.1,7.5,5,11.8,6.6c0,0,2.9,1,3.6-0.9C126.2,123.4,125.4,119.9,125.3,117.8z"/>
	<path class="st0" d="M116.5,58.3c-2.3-5.8-13.5-20.8-21-27.1C88,24.8,79.7,17.4,79.7,17.4s-3.7-2.2-6.4-0.7
		C70.6,18.1,59.8,27.9,56,33.4c0,0-2.1,2.6-2.6,3.2c-0.5,0.6-0.6,1.6-0.5,2.3c0.2,0.6,0.1,4,3.3,5.2c3.2,1.2,7.7,1.2,11.3,1.6
		c3.6,0.4,6.3,1,12.8,6.1c6.4,5.1,17.4,15.3,18.4,16.7c1.1,1.4,3.7,5,4.7,5.9c1.1,0.9,3.4,4.9,4,6.3c0.6,1.5,1.9,3.6,1.9,3.6
		s4.9-3.6,6.1-7.9C116.8,72.1,118.8,64.1,116.5,58.3z"/>
	<path class="st0" d="M154.8,153.6c5.2-4.7,8.1-7.8,10.4-8.2s9.6-0.1,14.2-1.6c4.5-1.5,7.5-2.2,9.9-5.2c2.4-2.9,9.3-16.4,16.8-22.2
		s10.7-8.4,13.5-9.5c0,0,2.4-1.6,2.6-4.1c0.2-2.4-1.6-12.2-2.6-19c-1-6.8-2.5-11.9-4-15.8c-1.5-4-4.4-7.9-9-8.8
		c-4.6-0.9-18.4-1.6-20.3-1.4c-2,0.3-17,7.6-20.6,10.4c-3.5,2.8-23.9,25.3-23.9,25.3s-0.9,0.2-1.2-1.4c-0.3-1.5,0-9.7,0-9.7
		s12.3-15.3,17.7-20.8c5.4-5.5,9.1-6.7,11.1-8.2c2-1.5,11.3-13.5,12.8-17.4c1.5-3.9,4.3-9,3.8-11.3c-0.6-2.3-3.4-5.8-6.1-7.7
		c-2.8-1.9-18.9-10-27.9-11.8c-9-1.7-21-2.9-21-2.9l-0.2,1.1v70.8v161.3c0,0-0.1,4.3-3.1,8.8c-3,4.5-1.9,8.8-0.5,9.1
		c0.5,0.1,0.8-0.9,1.4-2c0.6-1.1,2.7-3.9,6.1-6.8c3.5-2.9,8.8-10.7,11.3-14.2s7.3-9.3,9.7-10.9c2.3-1.6,9.8-5.8,13.2-7.2
		c3.5-1.4,11-6,13.9-8.6c2.9-2.6,4-3.3,7.1-7.7s6.3-10.1,7.3-13.1c1.1-3.1,4.1-9.6,6.4-13.4c2.3-3.7,5-8.1,8.3-11.3
		c3.3-3.2,6.4-9.7,7.1-12c0.7-2.3,2.5-8.3,2.1-10.9l-3.3-0.5c0,0-2.7,3.1-5.4,5.2c-2.7,2.1-16.3,10.9-20.6,12.9c0,0-8.1-2.8-13-2.3
		c-4.9,0.6-15.7,2.2-21.5,7.2s-9.2,13.7-7.1,19.7c2.1,6,10.7,7.4,13.5,7c2.7-0.4,8.6-2.5,9.9-8.6c1.3-6.1-2.1-10.4-3.3-11.1
		c0,0-0.8-1,0.5-1.1c1.3-0.2,2.8-0.4,3.3,0s5,7.7,2.4,15.4c-2.7,7.7-10,10.4-18.2,8.4c-8.2-2-12.1-6.2-12.5-14.2
		C145.4,165.5,149.6,158.3,154.8,153.6z M145.8,121.9c0,0,2.5,0.3,4.5-1.4s7.1-6.8,10.2-9.7c3.1-3,9.1-9.4,12.3-11.5
		c3.2-2.2,8.7-4.8,11.6-6.6c2.9-1.7,4.5-2,4.5-2s13.2-0.1,14.2,0.2c0,0,0.7,0.4-0.2,1.1c-0.9,0.7-4.4,3.8-9.2,8.8
		c-4.8,5.1-8.2,10.9-10.6,14.9c-2.4,4.1-4.1,7.4-11.3,8.6c-7.2,1.2-16.2-0.2-20.3-0.9C147.2,122.8,145.4,122.6,145.8,121.9z"/>
</g>
</svg>
