<?xml version="1.0" encoding="utf-8"?>
<!-- Generator: Adobe Illustrator 27.0.1, SVG Export Plug-In . SVG Version: 6.00 Build 0)  -->
<svg version="1.1" id="图层_1" xmlns="http://www.w3.org/2000/svg" xmlns:xlink="http://www.w3.org/1999/xlink" x="0px" y="0px"
	 viewBox="0 0 256 256" style="enable-background:new 0 0 256 256;" xml:space="preserve">
<style type="text/css">
	.st0{fill-rule:evenodd;clip-rule:evenodd;}
</style>
<path class="st0" d="M219.3,137c-4.9-5.7-14.7-14.1-14.7-14.1s4.5,2.7,10.6,4.1c8.9,2.1,12.4-3,12.4-3c-8.6-2.2-11.5-11.2-11.5-11.2
	c6.3-3.9,5.3-14.3,3.7-18.4c-1.6-4.1-4.8-8-4.8-8l3-1.1c0,0-4.8-1.1-8.9-3.4c-4.1-2.4-13.5-7.3-17.7-10.5c-4.2-3.1-4.6-5-4.6-5
	c12.7-0.8,13.8-10.5,13.8-10.5s-12.1,3.6-24.8,3c-12.7-0.7-16.1-6.4-16.1-6.4c1.9-6.1,0.6-11.6-4.4-15c-5-3.4-12.6,0.7-12.6,0.7
	c-2.7-4.4-5.3-5.7-7.8-5.9c-2.5-0.2-3.7,2.3-3.7,2.3s-2.8-5.3-3.2-11.1c-0.4-5.9,1.2-12.2,2.8-15.9c1.6-3.7,8.5-5.5,8.5-5.5
	s-2.8-2-9.7,1.4c-6.9,3.3-7.1,13.9-7.1,13.9c-1.3-1.3-2.8-0.2-2.8-0.2c-2.4,1.5-1.7,12.1-0.9,17.3c0.8,5.2-1.8,6.6-1.8,6.6
	c-3.1-4.4-8.8-8-17-3.9c-8.2,4.1-5.3,15.7-5.3,15.7c-19.9,6.9-38.4-0.5-38.4-0.5c-1.2,8.7,14,11.4,14,11.4s-3.1,4.3-12.9,10
	C47.6,79.5,36,84.3,36,84.3l3.5,0.9c-10.3,15.9,0.5,25.7,0.5,25.7c-4.4,9.6-12,13.2-12,13.2c6.3,7.9,20-3.2,20-3.2
	c-0.1,1.7-3.9,6.5-9.9,11.6c-6,5.1-16,20.2-11.7,33.7c4.2,13.5,19.3,18.7,19.3,18.7c-0.8,6.9,3.3,17.9,16.3,20.2
	c13,2.4,26.1,9.3,29.4,12.7c3.3,3.5,6.7,13.6-1.6,15.5c-8.3,1.9-8.7-7.7-8.7-7.7c-7,6.3,0.4,19,11.7,15.9c11.3-3,11.2-15.3,8-23.7
	c-3.2-8.4-16.1-13.2-16.1-13.2c4.2-5.7,12-13.9,21.6-13.4c9.6,0.5,7.3,15.9,7.3,15.9c-8.2,2.4-8.9,8.6-8.9,8.6
	c-3.8,12.8,7.6,17.5,7.6,17.5c0.9,8.8,9.7,13.4,9.7,13.4c2.4,4.8,5.1,7.7,5.1,7.7c1.6-1.8,4.8-8,4.8-8c8.8-4.1,9.2-13.9,9.2-13.9
	c7.2-3.4,8.6-9.9,6.9-15.9c-1.7-6.1-9.6-10.5-9.6-10.5s-0.4-1.9,0.9-7.1c2.1-7.9,4.7-8.3,11.5-8c6.8,0.4,19.3,12.5,19.3,12.5
	s-2.5,0.9-8,3.4c-5.5,2.5-10.6,8.1-12,15c-1.3,6.9,1.7,18.2,11,19.8c9.3,1.6,13.9-4.7,14.5-10c0.6-5.3-2.8-7.3-2.8-7.3
	s0,1.2-0.5,3.4c-0.5,2.2-5.3,8.5-11.5,3c-6.2-5.5-1.6-13.7,9.4-19.1c11-5.5,25.4-5.4,33.3-12.1c7.9-6.6,5.3-16.1,5.3-16.1
	s3.7-0.4,7.6-2c3.9-1.7,13.2-5.1,14.2-17.1C231.6,152.6,224.2,142.8,219.3,137z M142.4,180.5c-5.3,3.9-7.9,6.1-15.6,23.4
	c0,0-6.6-17.5-13.1-21.4c-6.5-3.9-7.3-5.2-20.9-3.6c0,0,6.1-1.8,11-5.9s21.3-23.5,22.5-25.5c0,0,0-1,0.9,0
	c0.9,1,14.4,19.2,18.8,22.8c4.4,3.5,8.3,7.3,16.1,9.6C162.1,179.8,147.7,176.6,142.4,180.5z M209.2,155.5c-2.1,7.9-10,6.6-13.1,6.4
	c0,0,5.6-9.3,2.8-14.6c-2.9-5.3-12.4-11.7-16.5-3.9c0,0,8.1-2.2,9.2,3.6c1.1,5.8-3.7,12-12.9,12.7c0,0,14.4,5.1,8.7,15.5
	c0,0-4.7,5.9-12,6.1c0,0,6.6-2.8,5.3-7.7c-1.4-4.9-3.4-4-7.1-4.8c-3.7-0.8-13-4.4-18.9-9.3c-5.9-4.9-17.8-17.5-19.3-29.8
	c-1.5-12.3-1.4-14.7,0.2-21.8c0,0,3-0.5,6.7,0.9c3.7,1.4,9.4,5.3,8.7,14.3c-0.7,9-4.6,13.2-4.6,13.2s-1.3,3,0.7,4.6
	c2,1.5,6.1,4.5,11,2.5c4.9-2,8.8-12.9,7.1-22.5c-1.6-9.6-7-16.6-9.7-18.7c-2.6-2-9.1-6.4-21.1-6.2c0,0-1.2-3.2,7.6-4.1
	c8.8-0.9,29.4-1.6,29.4-1.6s2.3-0.9,2.3-4.3c0-3.4-2.3-5.7-2.3-5.7s-17.9-2.4-27.3-2.3c-9.4,0.1-53.1-0.2-53.1-0.2s-6.8,0.2-9.2,4.3
	C79.6,86.3,82.7,89,87,90c4.3,1,17.8,2.1,24.6,2.5c6.7,0.4,8.9,2.7,8.5,3.4c0,0-5.6-0.1-12,1.4c-6.4,1.5-16.3,8-17.9,14.3
	c-1.6,6.3-3.8,18-1.6,24.6c2.2,6.5,11.4,10.3,16.8,4.8c0,0,1.7-0.8,0.7-5c0,0-2.7-4.6-3.2-8.9c-0.5-4.3-3.1-9.9,3.2-15.2
	c6.3-5.3,10-4.7,12.2-4.6c0,0,0.8-0.8,0.9,2.7c0.1,3.6-0.6,23.8-6.2,31.4c-5.6,7.6-12,21.4-30.6,26.6c0,0-7.7,1-8.5,5.7
	c-0.8,4.7,4.9,7,8.7,6.8l0.9,0.5c0,0-3.3,1.4-9.2,0.7c-5.9-0.7-12-7.7-7.3-13.7c4.6-5.9,10.6-7.5,10.6-7.5s-13.5-2.7-14.5-8.6
	c-1-5.9,3.8-8.5,8-8c0,0-4.9-5.9-11.2-1.6c-6.3,4.3-6,15.5-0.2,21.4c0,0-7.3,3.6-12.6-2.7c-5.3-6.3,1.6-17.2,5.5-20.7
	s10.9-7.6,11.2-10.7c0.3-3,0.5-5.3,0.2-7.7c-0.2-2.4,1.8-6.1,4.6-8.4c2.8-2.3,6.8-5.3,7.8-6.8c1.1-1.5,0.8-3,0.5-4.6
	c-0.3-1.6-2.8-7.2-1.4-10.7c1.4-3.5,2-4.5,3.2-5.2c1.2-0.8,1.2-1.8-0.5-2.5c-1.6-0.7-7.5-0.6-10.3,3c-2.8,3.5-3.5,6.6,0.7,12.1
	c0,0-4.3,1.8-6.7-2.3c-2.3-4.1-2.2-9.8,5-15c7.2-5.2,14.8-7.4,26-7.3c11.2,0.1,17.9,0.4,18.8-3.4c0.9-3.8-3.3-7.6-7.4-9.6
	c0,0,6,1.1,9.9-3c0,0,0.8-0.5,0.7,0.2c-0.1,0.7-2.3,4-1.2,8.4c1.2,4.5,5.4,10.1,13.3,9.3c7.9-0.8,9.6-5.1,10.8-9.6
	c1.2-4.5-1.4-8-1.4-8s-0.1-1.3,0.9-0.9c1,0.4,2.2,2.5,7.8,3.4c0,0,1.9,1.1-0.2,2.5c-2.1,1.4-7.9,4-4.6,8.2
	c3.2,4.2,11.8,2.4,16.3,2.7c4.5,0.3,18.9-0.5,27.3,4.3c8.5,4.8,19.2,18.2,2.3,22.3c0,0,6.2-10.3-1.2-15.7c-4.2-3.1-6.6-2.2-8.9-1.1
	c1.2,1,9.3,9.5,2.5,16.8c-1.2,1.3-3.5,2.2-3,4.3c0.5,2.1,4.9,4.8,8.3,7.1c3.3,2.3,6.8,5.1,7.1,10c0.3,4.9-0.5,8.6,6,13.9
	C203.8,141.7,211.3,147.6,209.2,155.5z"/>
</svg>
