<?xml version="1.0" encoding="utf-8"?>
<!-- Generator: Adobe Illustrator 27.0.1, SVG Export Plug-In . SVG Version: 6.00 Build 0)  -->
<svg version="1.1" id="图层_1" xmlns="http://www.w3.org/2000/svg" xmlns:xlink="http://www.w3.org/1999/xlink" x="0px" y="0px"
	 viewBox="0 0 256 256" style="enable-background:new 0 0 256 256;" xml:space="preserve">
<style type="text/css">
	.st0{fill-rule:evenodd;clip-rule:evenodd;}
</style>
<g>
	<path class="st0" d="M83.2,209.9l-2.4-4.6l2.1-9.9l10.1,2.4l0.2-30.8l-3.6-2.6l0.2-8.9l-5-5.5l0.5-13.7l-4.3-3.1l0.2-19l4.8-4.3
		l8.4,7l0.7-5.8L75.8,87.8L67.7,82l2.9-24.8L68.6,55l0.2-16.4l4.1-2.9l15.6-9.4l3.8,1.2l-9.6,10.6l-0.5,3.4l6-0.5l33.3-34.2
		l-1.9-4.6l-16.8,0.2l-7.4,6.3L62.7,29l-15.1,4.8l-1.2,4.6l13.4,1.9l7.2,7.7l0.5,11.3l-8.9-0.2l-6-2.9l-5,1L36.8,46.3l-2.1,4.6
		l0.7,19.8l4.5,2.7l38.1,46l-0.2,24.1l-4.3-0.3l-6-7.2l-17.3-31.3l-3.3-1.4l-12.7,0.2l11,20l-1,7.5l6,14.5l1.2,13.7l3.8,2.7
		l3.8,12.3v5.8l-2.6,2.4l-3.8-0.7l-4.3-13.2l-4.1-3.1l-6-1.9l-0.5,2.4l1,6.5l5.7,5l2.9,6.3v11.1l3.8,5.8l6.7,7.5l1,9.6l1.7,4.1
		L83,240.7l7.2,13l3.6,0.2l1.2-29.2l1.5-2.6l-8.4-9.6L83.2,209.9z"/>
	<path class="st0" d="M211.8,164.9l-4.1,3.1l-4.3,13.2l-3.8,0.7l-2.6-2.4v-5.8l3.8-12.3l3.8-2.7l1.2-13.7l6-14.4l-1-7.5l11-20
		l-12.7-0.2l-3.4,1.4l-17.2,31.3l-6,7.2l-4.3,0.2l-0.2-24.1l38-46l4.6-2.6l0.7-19.8l-2.1-4.6l-10.8,10.8l-5-1l-6,2.9l-8.9,0.2
		l0.5-11.3l7.2-7.7l13.4-1.9l-1.2-4.6l-15.1-4.8L160.6,8.5l-7.4-6.3L136.4,2l-1.9,4.6l33.3,34.2l6,0.5l-0.5-3.4l-9.6-10.6l3.8-1.2
		l15.6,9.4l4.1,2.9l0.2,16.4l-1.9,2.2l2.9,24.8l-8.1,5.8l-19.4,23.1l0.7,5.8l8.4-7l4.8,4.3l0.2,19l-4.3,3.1l0.5,13.7l-5,5.5l0.2,8.9
		l-3.6,2.6l0.2,30.8l10-2.4l2.1,9.9l-2.4,4.6l-4.8,2.6l-8.4,9.6l1.4,2.6l1.2,29.1l3.6-0.2l7.2-13l22.5-19.3l1.7-4.1l1-9.6l6.7-7.5
		l3.8-5.8v-11.1l2.9-6.3l5.7-5.1l0.9-6.5l-0.5-2.4L211.8,164.9z"/>
	<path class="st0" d="M182.6,56.2l-0.2-10.8l-2.3-1.4l-7.5,7.5l-6.4-0.5l-34.6-33.4L128,17l-3.6,0.9L89.8,51.3l-6.4,0.4l-7.5-7.5
		l-2.3,1.4l-0.2,10.8l1.8,3.4l-1.4,19.5l5.7,4.1l18.9,24l-0.2,16.8l-1.6,0.2l-8.4-7.1l-2.3,2.8l0.7,12.2l3,1.8l-0.2,14.4l4.5,4.6
		l-0.2,8l5.5,4.8V197l-2,5.7l-3.9-0.5l-6.1-1.4l-0.2,2l1.2,3.4l3.4,1.8l32.1,38.9l1.5,4.4l3,0.4l3-0.4l1.6-4.6l31.9-38.7l3.3-1.9
		l1.5-3.1l-0.6-2.3l-5.8,1.3l-3.9,0.4l-2.1-5.7v-30.9l5.5-4.8l-0.2-8l4.6-4.6l-0.2-14.4l3-1.8l0.7-12.2l-2.3-2.7l-8.4,7.1l-1.6-0.2
		l-0.2-16.8l18.9-24.1l5.7-4.1l-1.4-19.5L182.6,56.2z M142.1,110.4l-8.1,8.8l-0.4,70.5l-5.6,6.2l-5.4-6.3l0.1-70.5l-8.6-8v-2.4
		l1.9-1.9l23.5,0.2l2.6,1.5V110.4z M122,88.7l4.3-8.2l1.7-1l2.2,1.2l4.3,8.9l-1.9,1.9h-9.3L122,88.7z M150.3,91.6l-2.1,2.4H139
		l1.2-9.1l-11.5-14.4l-1.6,0.1l-11.5,15v1.9l2.9,7l-9.6-0.2l-3.1-2.2l-1.2-4.8l18-31.1l4.2-2.6l2.1,0l4.6,2.4l17.7,31.3L150.3,91.6z
		"/>
</g>
</svg>
