<?xml version="1.0" encoding="utf-8"?>
<!-- Generator: Adobe Illustrator 27.0.1, SVG Export Plug-In . SVG Version: 6.00 Build 0)  -->
<svg version="1.1" id="图层_1" xmlns="http://www.w3.org/2000/svg" xmlns:xlink="http://www.w3.org/1999/xlink" x="0px" y="0px"
	 viewBox="0 0 256 256" style="enable-background:new 0 0 256 256;" xml:space="preserve">
<g>
	<g>
		<path d="M100,15.2c-0.7,1.8-2,2.5-3.7,1.9c-3.5-1.3-4.7-3.4-3.2-7.1c1.4-3.5,4.4-5.3,8-6.1c5.8-1.4,11,0.1,15.6,3.8
			c6.9,5.5,13.7,11.2,20.8,16.4c6.2,4.6,13.2,7.6,20.7,9.6c4.2,1.1,8.2,3,12.2,4.9c14.5,7,27.1,16.4,37.2,29
			c5.8,7.2,10.2,15.1,13.3,23.8c0.1,0.1,0.1,0.3,0,0.4c-0.1-0.3-0.3-0.6-0.4-0.8c-12.5-26.2-33-42.7-61.2-49.3
			c-6.5-1.5-13.1-2.6-19.9-2.2c-21,1-40.1,7.1-56.6,20.4c-12.3,10-20.5,22.8-26.1,37.5c-4.7,12.4-6.3,25.3-5.2,38.4
			c2,23.4,11.7,42.9,29.1,58.7c13.5,12.2,29.3,19.4,47.2,22c20.3,3,39.3-1.3,56.9-11.6c11.7-6.8,21.2-15.9,29-26.9
			c0.2-0.3,0.4-0.5,0.7-0.8c-0.1,0.2-0.1,0.3-0.2,0.5c-8.4,13.9-19,25.8-32.6,34.8c-9.2,6-19.2,10.1-30,12.1
			c-2.3,0.4-4.3,1.3-6.1,2.9c-1.8,1.6-2.4,3.6-1.6,5.9c1.1,2.9,2.5,5.8,4.9,8c1.6,1.5,3.5,2.4,5.6,2.7c1.1,0.2,2.1-0.1,2.9-1
			c1.3-1.6,1.1-2.3-0.7-3.1c1.8-0.9,3.8-0.8,4.9,0.3c1.1,1.1,1.6,3.4,0.9,5.1c-1.5,3.7-4.5,5.6-8.3,6.5c-4.7,1.1-9.1,0.2-13.2-2.1
			c-3.8-2-7.2-4.8-10.3-7.8c-1.4-1.3-2.8-2.6-4.3-3.8c-5.8-4.5-11.7-9-18.3-12.3c-1.8-0.9-3.8-1.6-5.7-2.1
			c-10.5-2.8-20.1-7.4-29-13.5c-15.9-10.9-27.6-25.2-35.4-42.8c-2.9-6.4-4.5-13.3-5.7-20.2c-1.6-8.9-2.1-17.9-1.4-27
			c1.6-20.6,8.4-39.1,21.9-54.9c10-11.7,21.4-21.5,35.6-27.8c3.9-1.8,8-3,12.1-4.5c3.3-1.2,6.4-2.6,9.3-4.6c1.8-1.3,2.2-2.2,1.7-4.3
			c-1-4.4-3.4-7.9-6.9-10.6c-1-0.8-2.4-1.2-3.7-1.7c-0.6-0.2-1.4-0.1-2,0.1c-1.3,0.4-1.9,1.3-1.6,2.3C97.7,15.4,98.3,15.7,100,15.2z
			"/>
		<path d="M176.6,197.7c1.5-1,3.1-2,4.6-3.1c14.2-9.9,22.8-23.5,25.8-40.6c1.3-7.3,0.9-14.6-0.5-21.9c-1.9-9.8-5.6-19-11.4-27.2
			c-9.9-13.8-23.4-21.9-40.2-24.2c-6.6-0.9-13.4-0.8-20.1,0.3c-3.2,0.5-5.5,2.3-6.9,5.3c-0.5,1-1,1.9-1.6,2.8
			c-4,5.8-9.9,7.6-16.4,4.9c-1.7-0.7-3.4-1.7-4.8-2.9c-3.7-2.9-7.7-4.6-12.4-3.7c-7.5,1.4-11.9,8.4-10.1,16.1
			c0.1,0.2,0.1,0.5,0.2,1.1c-2.1-2.3-3.4-4.8-3.9-7.6c-0.7-3.5-0.1-6.8,1.4-9.9c2.1-4.3,5.9-6.3,10.5-7c4-0.6,7.9,0,11.8,0.7
			c1.8,0.3,3.8,0.3,5.6,0c4.5-0.8,7.2-4.3,7.4-9.2c0-1.4-0.1-2.9,0.1-4.3c0.5-3.6,2.6-6.3,5.6-8.3c3.6-2.4,7.7-3.7,11.9-4.3
			c8.3-1.2,16.6-1.4,24.8-0.1c11.3,1.7,21.6,5.7,31.1,12.1c15.5,10.5,26.6,24.5,32.7,42.3c3.5,10.2,4.6,20.8,3,31.4
			c-1.9,12.2-6.6,23.3-13.9,33.2c-7.2,9.7-16.1,17.1-27.2,21.9c-1.9,0.8-4,1.4-6,2.1c-0.3,0.1-0.7,0.1-1,0.2
			C176.6,197.8,176.6,197.7,176.6,197.7z"/>
		<path d="M159.6,167.8c-3.7-3.3-7.9-4.8-12.7-4.7c-4.4,0.1-8,2-11.3,4.8c-4.8,4-8.5,8.7-9.6,15c-0.9,5.3,0.2,10.3,2.5,15.1
			c1.3,2.8,3.1,5.4,4.6,8c-0.5-0.1-1.1-0.3-1.7-0.5c-12.1-3.6-23.3-9.1-32.9-17.5C86,177.3,78,163.8,74.8,147.5
			c-0.1-0.3-0.1-0.6,0-0.9c2.2,6.8,5.2,13.2,9.2,19.1c4,5.9,8.7,11.2,14.7,15.5c0.2-1.7,0.2-3.2,0.4-4.7
			c1.5-10.9,7.5-18.3,17.4-22.7c10-4.4,20.1-4.6,30.1,0.1c5.7,2.7,9.8,7.2,12.5,12.9C159.3,167.1,159.4,167.5,159.6,167.8z"/>
		<path d="M194.8,167.2c-0.6-8-3.8-14.9-9.8-20.5c-3-2.9-6.6-4.6-10.5-5.8c-3.2-1.1-5.3-3.4-6-6.8c-0.1-0.3-0.1-0.6,0-0.9
			c0.9-3.7,4.5-5.8,8.1-4.8c0.7,0.2,1.3,0.4,1.9,0.8c5.4,3.3,10.3,7.1,14.4,12c2.6,3.1,3.7,6.8,4.7,10.6c2.3,9,1.6,17.7-3.7,25.7
			c-1.2,1.9-2.9,3.5-4.4,5.1c0.4-1.5,1-3.1,1.2-4.6c1.2-7.1-1-13-6.3-17.8c-2.2-1.9-4.7-3.3-7.6-4.2c-1.7-0.5-3.2-1.7-4.5-2.9
			c-1.5-1.4-0.9-4.9,0.9-6.2c2.3-1.7,5.1-1.7,7.7,0c7.1,4.6,11.6,11.1,13.6,19.3C194.6,166.5,194.7,166.9,194.8,167.2z"/>
		<path d="M134.8,84.7c4.1-1,8.3-1.3,12.5-1.1c16.2,0.8,29.6,7.7,40.8,19.1c1.4,1.4,2.4,3.1,3.4,4.8c5.9,9.4,9.9,19.6,11.5,30.6
			c0.8,5.3,1.2,10.9-0.4,19.3c-0.3-1.6-0.6-3.2-0.9-4.8c-1.3-5.8-3.4-11.4-7.1-16.1c-1.2-1.5-2.6-2.7-3.9-4.1
			c-0.4-0.4-0.7-1-0.8-1.5c-1.7-13.3-6.9-24.8-17.2-33.7c-6.5-5.7-14.2-9-22.6-10.8C145.1,85.3,140,84.8,134.8,84.7z"/>
		<path d="M184.3,164.8c4.7,8.2,4,17.8-3.2,24.7c-4.4,4.3-9.7,7.4-15.8,8.9c-3.9,0.9-7.8,1.2-11.4-0.6c-2.5-1.3-4.8-3.2-6.9-5.1
			c-3.5-3.2-6.3-7-7.4-11.8c-0.1-0.3-0.1-0.7-0.1-0.8c1.7,1.6,3.4,3.5,5.3,4.9c3.8,2.8,8.2,3.6,12.9,3.3c7.9-0.4,13.6-4.8,18.7-10.2
			c3.3-3.5,5.7-7.7,7.5-12.2C183.9,165.7,184.1,165.3,184.3,164.8z"/>
		<path d="M136.5,171.9c-1.9,8.3,1,15.2,6.2,21.2c2.8,3.2,6,6.1,9.7,8.1c2.5,1.3,5.3,1.9,8,2.6c4.4,1,8.9,1,13.4,0.1
			c0.1,0,0.3,0,0.5,0.2c-2.2,0.6-4.3,1.3-6.5,1.9c-9.9,2.5-19.8,3.1-29.9,1c-0.6-0.1-1.3-0.6-1.7-1.1c-3.5-4.8-6-10.1-6.7-16.1
			c-0.8-7,1.5-12.8,6.5-17.6C136.1,172,136.2,172,136.5,171.9z"/>
		<path d="M111.8,2.1c5.2-0.3,10.2,0.4,15.1,2.2c4.8,1.7,9.1,4.4,12.8,7.9c6.3,6,13.2,11.2,21.4,14.4c1.9,0.7,3.8,1.2,5.8,1.8
			c-2.9,0.8-5.7,0.8-8.5,0.4c-7.4-1-13.8-4.4-19.9-8.6c-4-2.8-7.8-6-11.2-9.5c-3.9-4-8.8-6.2-14-8.1C112.8,2.5,112.3,2.3,111.8,2.1z
			"/>
		<path d="M88.9,227.4c4.5-0.7,8.8-0.1,13.1,1.2c8.3,2.4,15.3,7.1,21.5,13.1c2.3,2.2,4.7,4.3,7.2,6.3c3.7,2.9,7.8,5,12.7,5.5
			c-2.1,0.6-6.5,0.6-9.5,0.1c-6.3-1.1-11.8-4-16.5-8.3c-6.2-5.7-12.9-10.9-20.5-14.6C94.4,229.4,91.7,228.5,88.9,227.4z"/>
		<path d="M81.4,125.9c3.7,0,6.7,3,6.7,6.7s-3,6.7-6.7,6.7c-3.7,0-6.6-3-6.7-6.6C74.7,128.9,77.7,125.9,81.4,125.9z"/>
		<path d="M109.3,154.3c7.2-6.4,15-11.1,25-11c3,0.1,5.9,0.7,8.6,2.1c0.8,0.4,1.5,0.9,2.1,1.5c1.3,1.2,1.2,2.6-0.1,3.8
			C132.4,144.7,120.7,147.7,109.3,154.3z"/>
		<path d="M110.7,118.6c-2.4,0-4.4-2-4.4-4.4c0-2.5,2.1-4.5,4.5-4.4c2.4,0.1,4.3,2.1,4.3,4.5C115.1,116.7,113.1,118.6,110.7,118.6z"
			/>
	</g>
</g>
</svg>
