<?xml version="1.0" encoding="utf-8"?>
<!-- Generator: Adobe Illustrator 27.0.1, SVG Export Plug-In . SVG Version: 6.00 Build 0)  -->
<svg version="1.1" id="图层_1" xmlns="http://www.w3.org/2000/svg" xmlns:xlink="http://www.w3.org/1999/xlink" x="0px" y="0px"
	 viewBox="0 0 256 256" style="enable-background:new 0 0 256 256;" xml:space="preserve">
<style type="text/css">
	.st0{fill-rule:evenodd;clip-rule:evenodd;}
</style>
<g>
	<path class="st0" d="M139.2,20.7c-0.3-2.5-4.4-13.4-6.3-15.9c-1-1.4-3.5-2.1-4.7-2.1c-1.2,0-3.5,1.1-4.3,1.9s-3.9,7.4-5.4,12.1
		c-1.5,4.6-1,7.4-0.4,8.1c0.5,0.7,3.2,0.7,3.2,0.7s14,0.3,16,0C139.2,25.2,139.5,23.2,139.2,20.7z"/>
	<path class="st0" d="M203.5,104.1c-1-0.5-5.8-3.2-9-3.8c-3.2-0.6-5.4-0.1-9,1.9c-3.6,2-5.5,5.9-5.7,8.1c-0.2,2.2,1.6,3.8,3.4,4.3
		c1.8,0.4,2.9-1.9,3.4-2.4c0.4-0.5,1.5-0.5,2.7,0.2c1.2,0.7,1.2,2.8,0.7,4.7c-0.5,2-2.6,5.1-4.7,4.7c-2.2-0.3-8-2.6-9.7-6.6
		c-3.6-8.5,0.9-13.7,5.9-18s10.6-3.6,12.7-2.6c2,1,5.9,3.3,8.1,2.1c2.2-1.1,2.7-3.9,2.7-12.6c0-8.6-1.4-20.9-2.3-25.8
		c-0.9-4.9-4.4-14.1-5.9-16.3c-1.4-2.3-6.8-7.4-9.9-10c-3.1-2.5-8.5-8.3-10.4-11.1c-1.9-2.9-3.4-7.2-4.7-8.3
		c-1.3-1.1-1.6-0.3-2.2,1.6c-0.6,2-3.3,6.1-4.7,8.5c-1.5,2.4-7.6,6.3-9.7,7.3c-2.1,1.1-4.1,1.7-4.1,1.7s-0.4,0.9,0.4,1.2
		c0.9,0.3,6.1,2.3,10.4,4c4.3,1.7,11.7,6.1,17.4,10.9c5.7,4.8,6.3,13.6,5.9,19.2c-0.5,5.6-4,10.2-8.4,15.6
		c-4.4,5.4-11.4,13.7-14.4,18c-3.1,4.3-4.1,8.1-4.1,12.1c0,4,4.7,6.6,7.4,8.8c2.8,2.2,14,11.8,17.4,14.2c3.4,2.4,6.9,2.8,9.5-2.6
		c2.5-5.3,11.1-20.4,12.2-23.4C205.7,106.8,204.5,104.6,203.5,104.1z"/>
	<path class="st0" d="M181.9,142.2c-1.6-1-10.3-7.3-11.5-8.5c-1.3-1.3-3.3-1.9-5.2-0.2c-1.9,1.7-9.9,18.8-12.6,32.4
		c-2.7,13.7-2.7,26.6-2.3,30.3c0.5,3.7,2.9,7.8,2.9,7.8s1.1-13.3,7.7-26.1c6.6-12.7,14.4-21.7,18.3-25.1c3.9-3.4,5.9-4.8,5.6-6.6
		C184.6,144.4,183.4,143.2,181.9,142.2z"/>
	<path class="st0" d="M94.3,37.1c4.3-1.7,9.5-3.7,10.4-4c0.9-0.3,0.5-1.2,0.5-1.2s-1.9-0.6-4.1-1.7c-2.2-1.1-8.3-4.9-9.7-7.3
		c-1.5-2.4-4.1-6.5-4.7-8.5c-0.6-2-0.9-2.8-2.3-1.7c-1.3,1.1-2.9,5.4-4.7,8.3c-1.9,2.8-7.3,8.6-10.4,11.1c-3.1,2.5-8.5,7.7-9.9,10
		c-1.5,2.2-5,11.4-5.9,16.3c-0.9,4.9-2.3,17.2-2.3,25.8c0,8.6,0.5,11.4,2.7,12.6c2.2,1.1,6.1-1.1,8.1-2.1c2-1,7.6-1.7,12.6,2.6
		c5,4.3,9.5,9.5,5.9,18c-1.7,4.1-7.5,6.3-9.7,6.6c-2.2,0.3-4.2-2.8-4.8-4.7c-0.5-2-0.5-4.1,0.7-4.7c1.2-0.7,2.3-0.7,2.7-0.2
		c0.4,0.5,1.6,2.8,3.4,2.4c1.8-0.4,3.6-2.1,3.4-4.3c-0.2-2.2-2-6-5.6-8.1c-3.6-2-5.8-2.5-9-1.9c-3.2,0.6-8.1,3.3-9,3.8
		s-2.2,2.7-1.1,5.7c1.1,3,9.7,18.1,12.2,23.4c2.5,5.4,6.1,5,9.5,2.6c3.4-2.4,14.6-12,17.4-14.2c2.8-2.2,7.4-4.8,7.4-8.8
		c0-4-1-7.8-4.1-12.1c-3.1-4.3-10.1-12.6-14.5-18c-4.4-5.4-7.9-10-8.4-15.6c-0.5-5.6,0.2-14.4,5.9-19.2C82.6,43.2,90,38.8,94.3,37.1
		z"/>
	<path class="st0" d="M104,165.9c-2.7-13.7-10.8-30.8-12.7-32.4c-1.9-1.7-3.9-1-5.2,0.2c-1.2,1.3-10,7.5-11.5,8.5
		c-1.5,1-2.7,2.2-2.9,4c-0.2,1.8,1.8,3.2,5.7,6.6c3.9,3.4,11.7,12.4,18.3,25.1c6.6,12.7,7.7,26.1,7.7,26.1s2.5-4.1,2.9-7.8
		C106.7,192.5,106.7,179.6,104,165.9z"/>
	<path class="st0" d="M169.2,68.3c-0.8-2.3-3.8-2.4-3.8-2.4h-25.7c-0.6-5.5-4.3-8.1-4.3-8.1s0.1-21.3,0-22.3
		c-0.1-0.9-2.3-3.6-3.2-4.5c-0.8-0.9-1.7-1.5-3.6-1.4c-1.9,0-2.5,0-3.8,1c-1.3,0.9-3.8,4.5-3.8,4.5l-0.5,23.2
		c-3.8,1-5.2,5.6-5.4,6.4c-0.2,0.8-0.4,1.2-1.3,1.2c-0.9,0-21.1-0.1-23.9,0C86.9,66,85.9,69,85.9,69s-0.2,3.5,0.9,5.7
		c1.2,2.2,4.5,2.1,4.5,2.1s73.2,0.2,75.4-0.2c2.2-0.4,2.7-3.8,2.7-3.8L169.2,68.3z"/>
	<path class="st0" d="M151.6,92.2c-0.3-1.2-2.3-1.4-3.8-1.4c-1.5,0-5.3-0.4-5.9-0.9c-0.6-0.6-2.2-4.4-3.6-6.2
		c-1.4-1.7-3.7-1.7-5-1.4c-1.3,0.3-2.4,1.2-2.5,1.9c0,0.7,0.9,8.8,0.9,10c0,1.2-0.3,2.2-1.8,3.1c-1.5,0.8-3.9,0.4-5.6-0.5
		c-1.7-0.8,0.3-7.4,0.4-9c0.2-1.6-0.2-3.4-0.9-4.3c-0.7-0.9-2.9-1-4.3-0.7c-1.7,0.4-3.1,3.8-3.8,5.4c-0.8,1.6-2.3,1.9-2.3,1.9
		s-4.9,0.4-7,0.5c-2.1,0.1-2.3,2.4-2.3,2.4c-0.7,3.9,2.2,6.4,3.2,7.8c0.9,1.4,6,4.4,7.2,5.2c1.2,0.8,1.3,4,1.3,4v26.8
		c0,0,0.6,87.1,0.7,89.8c0.1,2.6,1.1,4.5,1.1,4.5s6.8,15.6,8.3,18.7c1.6,3.1,2.7,3.6,2.7,3.6c2.2-1.7,11-22.7,11.5-24.4
		c0.5-1.7,0.4-4,0.4-4l-0.4-108.2c0,0-0.3-7.1,0.4-9c0.7-1.9,7.3-6.4,9.2-9C152,96.1,151.9,93.4,151.6,92.2z"/>
</g>
</svg>
