<?xml version="1.0" encoding="utf-8"?>
<!-- Generator: Adobe Illustrator 27.0.1, SVG Export Plug-In . SVG Version: 6.00 Build 0)  -->
<svg version="1.1" id="图层_1" xmlns="http://www.w3.org/2000/svg" xmlns:xlink="http://www.w3.org/1999/xlink" x="0px" y="0px"
	 viewBox="0 0 256 256" style="enable-background:new 0 0 256 256;" xml:space="preserve">
<g>
	<g>
		<path d="M48.9,21.7C61.1,27,69.5,35.8,72.7,49.1c2.2,9.1,1.6,18.1-0.7,27.1C69.4,87,67.3,97.8,67.4,109c0,1.7,0.2,3.5,0.6,5.2
			c0.2-1.7,0.4-3.3,0.7-5c2.9-18.1,11.8-32.6,25.7-44.3c11.7-9.8,25-15.7,40.2-17.2c21.6-2.1,40.6,4.1,57.4,17.7
			c1.6,1.3,3.1,2.7,4.5,4.1c0.7,0.7,1.1,0.8,2,0.4c9.9-4.3,19.9-8.3,30.3-11.2c5.4-1.5,10.8-2.9,16.4-3.3c1.1-0.1,2.3,0,3.4,0.3
			c3.3,0.7,5.1,3,4.5,6.4c-0.4,2.3-1,4.7-2.1,6.8c-4.3,8-10.3,14.9-17,21c-5.4,5-11.2,9.7-16.9,14.5c-0.5,0.4-0.9,0.7-0.7,1.6
			c5.4,20.9,3,41.2-5.5,60.8c-10.5,24.1-28,41.1-52.8,50.2c-13.4,5-27.3,6.4-41.4,5.2c-5-0.4-10-1.4-15-2.2c-0.2,0-0.5,0-1-0.1
			c33.3,13.3,76.4,8.8,108.4-32.9c-0.4,1.1-0.7,2.2-1.1,3.2c-2.8,7.2-6.5,13.9-10.4,20.6c-4.1,7-7.9,14.1-10.3,22
			c-0.1,0.5-0.3,0.9-0.5,1.6c-2.2-4.2-2.8-8.5-2.7-13c-0.5,0.2-0.9,0.4-1.3,0.6c-16,7.6-32.9,10.9-50.5,9.9
			c-29.9-1.7-54.9-13.8-75.4-35.5c-0.4-0.5-0.8-0.8-1.5-0.5c-10.1,4.5-20.8,7.1-31.6,9.1c-3.9,0.7-7.9,1.2-11.9,1.6
			c-1.4,0.1-2.9-0.2-4.4-0.6c-3.8-1-5.4-3.8-4.5-7.6c0.8-3.3,2.3-6.4,4.7-8.8c5.2-5.3,10.5-10.5,15.9-15.5
			c3.7-3.5,7.7-6.8,11.6-10.1c0.7-0.6,0.8-1,0.4-1.8c-5.5-13.1-7.1-26.6-5.7-40.7c1-10.7,3.4-21,7.6-30.9c2.8-6.5,6.1-12.8,8.9-19.3
			c4.1-9.6,6.8-19.5,7.1-30c0.2-4.5-0.1-8.9-1.7-13.1C51.1,25.9,49.9,23.8,48.9,21.7z M105,68.3c-0.4,3.7-1.2,5.1-3.9,7.3
			C80.7,92,71.9,113.2,76.3,139.1c7,40.6,50.2,64.1,88.3,48.6c2.9-1.2,5.8-1.5,8.8-0.4c1-3.8,1.9-5,4.5-6.9
			c21.7-16.5,30.8-38.4,25.9-65.1c-7.3-40.5-51.1-63.6-89-47.4C111.6,69.1,108.5,70.9,105,68.3z M83.9,174.4
			c-0.2-0.3-0.4-0.5-0.5-0.6c-7.4-7.8-12.8-16.9-16.6-26.9c-7.1-18.5-7.7-37.5-4-56.7c0.4-2,0.8-3.9,1.2-5.9
			c-0.5,0.4-0.8,0.9-1.1,1.3c-2.9,5.2-5.3,10.6-7.1,16.3c-4.2,13-5.6,26.2-2.9,39.7c2.6,13.1,8.6,24.5,17.3,34.6
			c2.3,2.7,2.3,2.7,5.6,1.4C78.5,176.6,81.2,175.5,83.9,174.4z M80.2,185.8c13.8,11.3,29.1,18.2,46.9,18.9
			c16.1,0.6,30.9-3.6,44.7-11.6c-0.6,0-1.2,0.2-1.7,0.3c-14.3,4.5-28.8,6-43.6,3.4c-12-2.1-23.1-6.5-32.8-13.9
			c-2.2-1.7-3.8-2-6.1-0.6C85.3,183.6,82.8,184.6,80.2,185.8z M209.4,99.4c2.6-2.4,4.9-4.5,7.1-6.7c5.4-5.2,10.5-10.7,14.3-17.2
			c1.1-2,1.9-4.3,2.5-6.5c0.6-2.5-0.7-4.4-3.2-5c-1.4-0.3-3-0.5-4.5-0.4c-8,0.7-15.5,3.4-22.9,6.5c-0.8,0.3-1.5,1-2.1,1.7
			c-0.6,0.6-0.5,1.3,0.1,2.1c1.7,2.3,3.6,4.6,5,7.1C208.8,86.5,211.3,92.3,209.4,99.4z M66.3,181.6c0-0.1-0.1-0.2-0.1-0.4
			c-1.1,0.1-2.2,0.2-3.3,0.2c-4.9,0.2-9.8-0.1-14.4-2.1c-4.2-1.8-7.5-4.6-8.9-9.1c-1.1-3.3-3.4-4.2-6-1.9c-3.3,2.9-6.5,6-9.5,9.2
			c-2.1,2.3-3.7,5-4.2,8.1c-0.3,1.8,0.5,3.5,2.1,4.2c1,0.5,2.1,0.9,3.2,0.9c3.5,0,7,0,10.5-0.4c6.9-0.9,13.5-3,20-5.2
			C59.3,184.1,62.8,182.9,66.3,181.6z"/>
		<path d="M137.9,81.2c-17.1,5.3-26.4,22.7-22.6,39.1c3.4,14.7,18.1,27.6,37,25.3c-4.8,2.6-9.7,5.3-14.5,7.9
			c-5.2-6.2-11.6-8.6-19.3-6.3c-6.6,1.9-10.7,7.2-12.1,14.9c-6.1-6-10.3-13-12.5-21c-2.3-8.1-2.4-16.3-0.3-24.5
			C99.1,95.3,117.8,81.8,137.9,81.2z"/>
		<path d="M178.8,102.8c8.6,12,11.2,31.6,1.8,48.4c-10.6,18.9-30.1,25.4-44.2,24.1c4-4.8,5.3-10.2,3.9-16.2c0.3-0.2,0.6-0.4,0.9-0.6
			c4.9-2.8,9.9-5.5,14.9-8.3c0.7-0.4,1.1-0.5,1.8,0.1c5,4.4,12.2,4.1,16.7-0.6c4.5-4.7,4.5-11.9-0.1-16.8c-0.2-0.2-0.4-0.5-0.7-0.7
			c3.1-4.3,5.1-9,6-14.2C180.7,112.9,180.2,107.9,178.8,102.8z"/>
		<path d="M123.6,177.5c-7.6,0-13.8-6.2-13.8-13.9c0-7.7,6.3-13.9,14-13.8c7.6,0.1,13.8,6.3,13.7,13.9
			C137.5,171.3,131.2,177.5,123.6,177.5z"/>
		<path d="M137.3,106.4c0.5,2.4,0,4.4-1.2,6.4c7.3,6.4,14.6,12.8,21.9,19.2c-0.9,1.2-1.8,2.3-2.7,3.6c-0.4-0.3-0.8-0.7-1.1-1
			c-6.4-6.4-12.9-12.7-19.3-19.1c-0.6-0.6-1-0.7-1.9-0.4c-3.4,1.5-7.1,0.3-9.1-2.7c-1.9-2.9-1.6-6.8,0.8-9.3c2.5-2.6,6.3-3,9.5-1.1
			c0.4,0.3,1.2,0.4,1.6,0.2c9.1-4.3,18.3-8.6,27.2-12.8c0-1.7-0.2-3.2,0.1-4.7c0.6-3.3,3.6-5.6,6.9-5.8c3.4-0.1,6.5,2.1,7.5,5.2
			c1,3.2-0.3,6.6-3.1,8.5c-2.8,1.8-6.6,1.6-9.1-0.8c-0.9-0.8-1.4-0.8-2.3-0.2c-8.1,4.7-16.2,9.3-24.3,14
			C138.2,105.9,137.8,106.1,137.3,106.4z M130.2,103.8c-2.5,0-4.6,2-4.6,4.5c0,2.6,2,4.7,4.6,4.7c2.6,0,4.6-2,4.6-4.5
			C134.8,105.8,132.8,103.8,130.2,103.8z"/>
		<path d="M166,150.6c-5.1,0-9.3-4.1-9.4-9.1c-0.1-5.2,4-9.4,9.2-9.4c5.1-0.1,9.4,4.1,9.4,9.2C175.2,146.4,171.1,150.6,166,150.6z"
			/>
	</g>
</g>
</svg>
