<svg xmlns="http://www.w3.org/2000/svg" width="228" height="146" viewBox="0 0 228 146">
  <rect width="228" height="146" rx="10" fill="#ffffff"/>
  <rect x="0.5" y="0.5" width="227" height="145" rx="9.5" fill="none" stroke="#edf2f6"/>
  <text x="216" y="17" text-anchor="end" font-size="10" font-weight="800" fill="#c9961f">易筋经</text>
  <line x1="22.0" y1="14" x2="22.0" y2="90" stroke="#edf2f6" stroke-width="1"/><text x="22.0" y="107" text-anchor="middle" font-size="9" font-weight="700" fill="#87929e">0</text><line x1="117.0" y1="14" x2="117.0" y2="90" stroke="#edf2f6" stroke-width="1"/><text x="117.0" y="107" text-anchor="middle" font-size="9" font-weight="700" fill="#87929e">0.5</text><line x1="212.0" y1="14" x2="212.0" y2="90" stroke="#edf2f6" stroke-width="1"/><text x="212.0" y="107" text-anchor="middle" font-size="9" font-weight="700" fill="#87929e">1</text><line x1="22" y1="33.0" x2="212" y2="33.0" stroke="#f1f5f8" stroke-width="1"/><line x1="22" y1="52.0" x2="212" y2="52.0" stroke="#f1f5f8" stroke-width="1"/><line x1="22" y1="71.0" x2="212" y2="71.0" stroke="#f1f5f8" stroke-width="1"/>
  <line x1="22" y1="90" x2="212" y2="90" stroke="#ccd8e2" stroke-width="1"/>
  <line x1="22" y1="14" x2="22" y2="90" stroke="#ccd8e2" stroke-width="1"/>
  <path d="M22.00,89.94 L23.06,82.62 L24.12,77.60 L25.18,73.30 L26.25,69.46 L27.31,65.97 L28.37,62.75 L29.43,59.77 L30.49,56.99 L31.55,54.40 L32.61,51.96 L33.68,49.68 L34.74,47.54 L35.80,45.52 L36.86,43.63 L37.92,41.85 L38.98,40.18 L40.04,38.61 L41.11,37.14 L42.17,35.75 L43.23,34.46 L44.29,33.25 L45.35,32.12 L46.41,31.07 L47.47,30.10 L48.54,29.19 L49.60,28.35 L50.66,27.58 L51.72,26.88 L52.78,26.23 L53.84,25.65 L54.91,25.12 L55.97,24.65 L57.03,24.23 L58.09,23.86 L59.15,23.55 L60.21,23.28 L61.27,23.06 L62.34,22.89 L63.40,22.75 L64.46,22.67 L65.52,22.62 L66.58,22.61 L67.64,22.64 L68.70,22.71 L69.77,22.81 L70.83,22.95 L71.89,23.12 L72.95,23.33 L74.01,23.57 L75.07,23.83 L76.13,24.13 L77.20,24.45 L78.26,24.80 L79.32,25.18 L80.38,25.58 L81.44,26.01 L82.50,26.46 L83.56,26.93 L84.63,27.43 L85.69,27.94 L86.75,28.48 L87.81,29.03 L88.87,29.60 L89.93,30.19 L90.99,30.80 L92.06,31.42 L93.12,32.06 L94.18,32.71 L95.24,33.38 L96.30,34.06 L97.36,34.75 L98.42,35.45 L99.49,36.16 L100.55,36.89 L101.61,37.62 L102.67,38.36 L103.73,39.12 L104.79,39.87 L105.85,40.64 L106.92,41.41 L107.98,42.19 L109.04,42.98 L110.10,43.76 L111.16,44.56 L112.22,45.36 L113.28,46.16 L114.35,46.96 L115.41,47.76 L116.47,48.57 L117.53,49.38 L118.59,50.19 L119.65,51.00 L120.72,51.81 L121.78,52.61 L122.84,53.42 L123.90,54.23 L124.96,55.03 L126.02,55.83 L127.08,56.63 L128.15,57.43 L129.21,58.22 L130.27,59.01 L131.33,59.79 L132.39,60.57 L133.45,61.34 L134.51,62.11 L135.58,62.87 L136.64,63.63 L137.70,64.38 L138.76,65.12 L139.82,65.86 L140.88,66.58 L141.94,67.30 L143.01,68.02 L144.07,68.72 L145.13,69.42 L146.19,70.10 L147.25,70.78 L148.31,71.45 L149.37,72.11 L150.44,72.75 L151.50,73.39 L152.56,74.02 L153.62,74.64 L154.68,75.24 L155.74,75.84 L156.80,76.42 L157.87,77.00 L158.93,77.56 L159.99,78.11 L161.05,78.65 L162.11,79.17 L163.17,79.69 L164.23,80.19 L165.30,80.68 L166.36,81.16 L167.42,81.62 L168.48,82.07 L169.54,82.51 L170.60,82.94 L171.66,83.35 L172.73,83.75 L173.79,84.14 L174.85,84.51 L175.91,84.87 L176.97,85.22 L178.03,85.56 L179.09,85.88 L180.16,86.19 L181.22,86.48 L182.28,86.77 L183.34,87.03 L184.40,87.29 L185.46,87.54 L186.53,87.77 L187.59,87.98 L188.65,88.19 L189.71,88.38 L190.77,88.56 L191.83,88.73 L192.89,88.89 L193.96,89.03 L195.02,89.17 L196.08,89.29 L197.14,89.40 L198.20,89.50 L199.26,89.59 L200.32,89.67 L201.39,89.74 L202.45,89.80 L203.51,89.85 L204.57,89.89 L205.63,89.93 L206.69,89.95 L207.75,89.97 L208.82,89.99 L209.88,90.00 L210.94,90.00 L212.00,90.00" fill="none" stroke="#8aa0b3" stroke-width="1.05" stroke-linecap="round" stroke-linejoin="round" opacity="0.22"/><path d="M22.00,90.00 L23.06,89.79 L24.12,89.34 L25.18,88.74 L26.25,88.00 L27.31,87.15 L28.37,86.20 L29.43,85.17 L30.49,84.07 L31.55,82.91 L32.61,81.69 L33.68,80.42 L34.74,79.11 L35.80,77.76 L36.86,76.38 L37.92,74.98 L38.98,73.55 L40.04,72.11 L41.11,70.65 L42.17,69.19 L43.23,67.71 L44.29,66.24 L45.35,64.76 L46.41,63.28 L47.47,61.81 L48.54,60.35 L49.60,58.90 L50.66,57.46 L51.72,56.03 L52.78,54.62 L53.84,53.23 L54.91,51.86 L55.97,50.51 L57.03,49.18 L58.09,47.88 L59.15,46.60 L60.21,45.35 L61.27,44.13 L62.34,42.94 L63.40,41.78 L64.46,40.65 L65.52,39.55 L66.58,38.49 L67.64,37.46 L68.70,36.46 L69.77,35.50 L70.83,34.58 L71.89,33.69 L72.95,32.84 L74.01,32.03 L75.07,31.25 L76.13,30.52 L77.20,29.82 L78.26,29.16 L79.32,28.54 L80.38,27.96 L81.44,27.42 L82.50,26.91 L83.56,26.45 L84.63,26.03 L85.69,25.64 L86.75,25.30 L87.81,24.99 L88.87,24.73 L89.93,24.50 L90.99,24.31 L92.06,24.16 L93.12,24.05 L94.18,23.97 L95.24,23.94 L96.30,23.94 L97.36,23.97 L98.42,24.05 L99.49,24.16 L100.55,24.30 L101.61,24.48 L102.67,24.69 L103.73,24.94 L104.79,25.22 L105.85,25.54 L106.92,25.88 L107.98,26.26 L109.04,26.67 L110.10,27.10 L111.16,27.57 L112.22,28.07 L113.28,28.59 L114.35,29.15 L115.41,29.73 L116.47,30.33 L117.53,30.96 L118.59,31.62 L119.65,32.29 L120.72,33.00 L121.78,33.72 L122.84,34.46 L123.90,35.23 L124.96,36.01 L126.02,36.82 L127.08,37.64 L128.15,38.48 L129.21,39.33 L130.27,40.20 L131.33,41.08 L132.39,41.98 L133.45,42.89 L134.51,43.81 L135.58,44.74 L136.64,45.68 L137.70,46.64 L138.76,47.59 L139.82,48.56 L140.88,49.53 L141.94,50.51 L143.01,51.49 L144.07,52.48 L145.13,53.46 L146.19,54.45 L147.25,55.44 L148.31,56.43 L149.37,57.42 L150.44,58.41 L151.50,59.40 L152.56,60.38 L153.62,61.35 L154.68,62.32 L155.74,63.29 L156.80,64.25 L157.87,65.20 L158.93,66.14 L159.99,67.07 L161.05,67.99 L162.11,68.90 L163.17,69.80 L164.23,70.68 L165.30,71.56 L166.36,72.41 L167.42,73.26 L168.48,74.08 L169.54,74.90 L170.60,75.69 L171.66,76.47 L172.73,77.23 L173.79,77.97 L174.85,78.69 L175.91,79.39 L176.97,80.07 L178.03,80.73 L179.09,81.37 L180.16,81.99 L181.22,82.58 L182.28,83.15 L183.34,83.70 L184.40,84.23 L185.46,84.73 L186.53,85.21 L187.59,85.67 L188.65,86.10 L189.71,86.51 L190.77,86.89 L191.83,87.25 L192.89,87.59 L193.96,87.90 L195.02,88.19 L196.08,88.45 L197.14,88.69 L198.20,88.91 L199.26,89.11 L200.32,89.28 L201.39,89.43 L202.45,89.57 L203.51,89.68 L204.57,89.77 L205.63,89.84 L206.69,89.90 L207.75,89.94 L208.82,89.97 L209.88,89.99 L210.94,90.00 L212.00,90.00" fill="none" stroke="#8aa0b3" stroke-width="1.05" stroke-linecap="round" stroke-linejoin="round" opacity="0.22"/><path d="M22.00,89.87 L23.06,79.59 L24.12,73.37 L25.18,68.27 L26.25,63.84 L27.31,59.91 L28.37,56.35 L29.43,53.11 L30.49,50.14 L31.55,47.40 L32.61,44.87 L33.68,42.53 L34.74,40.36 L35.80,38.36 L36.86,36.49 L37.92,34.76 L38.98,33.16 L40.04,31.68 L41.11,30.31 L42.17,29.05 L43.23,27.89 L44.29,26.82 L45.35,25.84 L46.41,24.95 L47.47,24.14 L48.54,23.40 L49.60,22.75 L50.66,22.16 L51.72,21.64 L52.78,21.19 L53.84,20.80 L54.91,20.47 L55.97,20.20 L57.03,19.98 L58.09,19.82 L59.15,19.71 L60.21,19.65 L61.27,19.63 L62.34,19.66 L63.40,19.73 L64.46,19.85 L65.52,20.00 L66.58,20.20 L67.64,20.43 L68.70,20.69 L69.77,20.99 L70.83,21.33 L71.89,21.69 L72.95,22.08 L74.01,22.51 L75.07,22.96 L76.13,23.43 L77.20,23.94 L78.26,24.46 L79.32,25.01 L80.38,25.58 L81.44,26.17 L82.50,26.79 L83.56,27.42 L84.63,28.06 L85.69,28.73 L86.75,29.41 L87.81,30.11 L88.87,30.82 L89.93,31.55 L90.99,32.28 L92.06,33.03 L93.12,33.79 L94.18,34.56 L95.24,35.34 L96.30,36.13 L97.36,36.93 L98.42,37.74 L99.49,38.55 L100.55,39.37 L101.61,40.19 L102.67,41.02 L103.73,41.85 L104.79,42.69 L105.85,43.53 L106.92,44.37 L107.98,45.21 L109.04,46.06 L110.10,46.91 L111.16,47.75 L112.22,48.60 L113.28,49.45 L114.35,50.29 L115.41,51.13 L116.47,51.97 L117.53,52.81 L118.59,53.65 L119.65,54.48 L120.72,55.31 L121.78,56.13 L122.84,56.95 L123.90,57.76 L124.96,58.57 L126.02,59.38 L127.08,60.17 L128.15,60.96 L129.21,61.75 L130.27,62.52 L131.33,63.29 L132.39,64.05 L133.45,64.81 L134.51,65.55 L135.58,66.29 L136.64,67.02 L137.70,67.74 L138.76,68.44 L139.82,69.14 L140.88,69.83 L141.94,70.51 L143.01,71.18 L144.07,71.84 L145.13,72.49 L146.19,73.13 L147.25,73.76 L148.31,74.37 L149.37,74.97 L150.44,75.57 L151.50,76.15 L152.56,76.72 L153.62,77.28 L154.68,77.82 L155.74,78.35 L156.80,78.87 L157.87,79.38 L158.93,79.88 L159.99,80.36 L161.05,80.84 L162.11,81.29 L163.17,81.74 L164.23,82.18 L165.30,82.60 L166.36,83.00 L167.42,83.40 L168.48,83.78 L169.54,84.15 L170.60,84.51 L171.66,84.86 L172.73,85.19 L173.79,85.51 L174.85,85.82 L175.91,86.11 L176.97,86.40 L178.03,86.67 L179.09,86.93 L180.16,87.17 L181.22,87.41 L182.28,87.63 L183.34,87.84 L184.40,88.04 L185.46,88.23 L186.53,88.41 L187.59,88.57 L188.65,88.73 L189.71,88.87 L190.77,89.01 L191.83,89.13 L192.89,89.25 L193.96,89.35 L195.02,89.45 L196.08,89.53 L197.14,89.61 L198.20,89.68 L199.26,89.74 L200.32,89.79 L201.39,89.84 L202.45,89.88 L203.51,89.91 L204.57,89.94 L205.63,89.96 L206.69,89.97 L207.75,89.99 L208.82,89.99 L209.88,90.00 L210.94,90.00 L212.00,90.00" fill="none" stroke="#8aa0b3" stroke-width="1.05" stroke-linecap="round" stroke-linejoin="round" opacity="0.22"/><path d="M22.00,90.00 L23.06,88.98 L24.12,87.64 L25.18,86.17 L26.25,84.63 L27.31,83.03 L28.37,81.39 L29.43,79.74 L30.49,78.07 L31.55,76.40 L32.61,74.73 L33.68,73.07 L34.74,71.41 L35.80,69.77 L36.86,68.15 L37.92,66.54 L38.98,64.96 L40.04,63.40 L41.11,61.86 L42.17,60.35 L43.23,58.87 L44.29,57.42 L45.35,56.00 L46.41,54.61 L47.47,53.25 L48.54,51.92 L49.60,50.63 L50.66,49.37 L51.72,48.15 L52.78,46.96 L53.84,45.80 L54.91,44.68 L55.97,43.60 L57.03,42.55 L58.09,41.54 L59.15,40.56 L60.21,39.62 L61.27,38.72 L62.34,37.85 L63.40,37.02 L64.46,36.22 L65.52,35.47 L66.58,34.74 L67.64,34.06 L68.70,33.41 L69.77,32.79 L70.83,32.21 L71.89,31.67 L72.95,31.16 L74.01,30.69 L75.07,30.25 L76.13,29.85 L77.20,29.48 L78.26,29.14 L79.32,28.84 L80.38,28.57 L81.44,28.33 L82.50,28.13 L83.56,27.95 L84.63,27.81 L85.69,27.70 L86.75,27.63 L87.81,27.58 L88.87,27.56 L89.93,27.57 L90.99,27.61 L92.06,27.69 L93.12,27.78 L94.18,27.91 L95.24,28.07 L96.30,28.25 L97.36,28.45 L98.42,28.69 L99.49,28.95 L100.55,29.23 L101.61,29.54 L102.67,29.88 L103.73,30.23 L104.79,30.61 L105.85,31.01 L106.92,31.44 L107.98,31.88 L109.04,32.35 L110.10,32.84 L111.16,33.34 L112.22,33.87 L113.28,34.42 L114.35,34.98 L115.41,35.56 L116.47,36.16 L117.53,36.77 L118.59,37.40 L119.65,38.05 L120.72,38.71 L121.78,39.38 L122.84,40.07 L123.90,40.77 L124.96,41.48 L126.02,42.21 L127.08,42.95 L128.15,43.69 L129.21,44.45 L130.27,45.22 L131.33,45.99 L132.39,46.78 L133.45,47.57 L134.51,48.37 L135.58,49.18 L136.64,49.99 L137.70,50.81 L138.76,51.63 L139.82,52.46 L140.88,53.29 L141.94,54.12 L143.01,54.96 L144.07,55.80 L145.13,56.64 L146.19,57.48 L147.25,58.32 L148.31,59.16 L149.37,60.00 L150.44,60.84 L151.50,61.67 L152.56,62.50 L153.62,63.33 L154.68,64.16 L155.74,64.98 L156.80,65.80 L157.87,66.61 L158.93,67.42 L159.99,68.22 L161.05,69.01 L162.11,69.79 L163.17,70.57 L164.23,71.34 L165.30,72.10 L166.36,72.85 L167.42,73.59 L168.48,74.31 L169.54,75.03 L170.60,75.73 L171.66,76.43 L172.73,77.11 L173.79,77.77 L174.85,78.43 L175.91,79.07 L176.97,79.69 L178.03,80.30 L179.09,80.89 L180.16,81.47 L181.22,82.03 L182.28,82.58 L183.34,83.11 L184.40,83.62 L185.46,84.11 L186.53,84.59 L187.59,85.04 L188.65,85.48 L189.71,85.90 L190.77,86.30 L191.83,86.67 L192.89,87.03 L193.96,87.37 L195.02,87.69 L196.08,87.99 L197.14,88.26 L198.20,88.52 L199.26,88.75 L200.32,88.97 L201.39,89.16 L202.45,89.33 L203.51,89.49 L204.57,89.62 L205.63,89.73 L206.69,89.82 L207.75,89.89 L208.82,89.94 L209.88,89.98 L210.94,90.00 L212.00,90.00" fill="none" stroke="#8aa0b3" stroke-width="1.05" stroke-linecap="round" stroke-linejoin="round" opacity="0.22"/><path d="M22.00,90.00 L23.06,89.06 L24.12,87.73 L25.18,86.24 L26.25,84.63 L27.31,82.95 L28.37,81.22 L29.43,79.45 L30.49,77.66 L31.55,75.86 L32.61,74.05 L33.68,72.24 L34.74,70.44 L35.80,68.65 L36.86,66.87 L37.92,65.11 L38.98,63.38 L40.04,61.67 L41.11,59.99 L42.17,58.33 L43.23,56.71 L44.29,55.12 L45.35,53.57 L46.41,52.05 L47.47,50.57 L48.54,49.12 L49.60,47.72 L50.66,46.35 L51.72,45.03 L52.78,43.74 L53.84,42.50 L54.91,41.30 L55.97,40.14 L57.03,39.02 L58.09,37.94 L59.15,36.91 L60.21,35.92 L61.27,34.98 L62.34,34.08 L63.40,33.22 L64.46,32.40 L65.52,31.63 L66.58,30.90 L67.64,30.21 L68.70,29.56 L69.77,28.96 L70.83,28.40 L71.89,27.88 L72.95,27.40 L74.01,26.96 L75.07,26.56 L76.13,26.20 L77.20,25.89 L78.26,25.61 L79.32,25.37 L80.38,25.17 L81.44,25.00 L82.50,24.88 L83.56,24.79 L84.63,24.73 L85.69,24.71 L86.75,24.73 L87.81,24.78 L88.87,24.87 L89.93,24.99 L90.99,25.14 L92.06,25.32 L93.12,25.53 L94.18,25.78 L95.24,26.05 L96.30,26.36 L97.36,26.69 L98.42,27.05 L99.49,27.44 L100.55,27.86 L101.61,28.30 L102.67,28.77 L103.73,29.26 L104.79,29.77 L105.85,30.31 L106.92,30.87 L107.98,31.46 L109.04,32.06 L110.10,32.68 L111.16,33.33 L112.22,33.99 L113.28,34.67 L114.35,35.37 L115.41,36.08 L116.47,36.81 L117.53,37.56 L118.59,38.32 L119.65,39.09 L120.72,39.88 L121.78,40.67 L122.84,41.48 L123.90,42.30 L124.96,43.13 L126.02,43.97 L127.08,44.82 L128.15,45.68 L129.21,46.54 L130.27,47.41 L131.33,48.29 L132.39,49.17 L133.45,50.05 L134.51,50.94 L135.58,51.83 L136.64,52.73 L137.70,53.62 L138.76,54.52 L139.82,55.41 L140.88,56.31 L141.94,57.20 L143.01,58.09 L144.07,58.98 L145.13,59.87 L146.19,60.75 L147.25,61.63 L148.31,62.50 L149.37,63.37 L150.44,64.23 L151.50,65.09 L152.56,65.94 L153.62,66.77 L154.68,67.61 L155.74,68.43 L156.80,69.24 L157.87,70.04 L158.93,70.83 L159.99,71.61 L161.05,72.38 L162.11,73.14 L163.17,73.88 L164.23,74.61 L165.30,75.33 L166.36,76.03 L167.42,76.72 L168.48,77.39 L169.54,78.05 L170.60,78.69 L171.66,79.32 L172.73,79.93 L173.79,80.53 L174.85,81.10 L175.91,81.66 L176.97,82.20 L178.03,82.73 L179.09,83.24 L180.16,83.72 L181.22,84.19 L182.28,84.64 L183.34,85.08 L184.40,85.49 L185.46,85.88 L186.53,86.26 L187.59,86.62 L188.65,86.95 L189.71,87.27 L190.77,87.57 L191.83,87.85 L192.89,88.11 L193.96,88.36 L195.02,88.58 L196.08,88.79 L197.14,88.97 L198.20,89.14 L199.26,89.30 L200.32,89.43 L201.39,89.55 L202.45,89.65 L203.51,89.74 L204.57,89.81 L205.63,89.87 L206.69,89.92 L207.75,89.95 L208.82,89.98 L209.88,89.99 L210.94,90.00 L212.00,90.00" fill="none" stroke="#8aa0b3" stroke-width="1.05" stroke-linecap="round" stroke-linejoin="round" opacity="0.22"/><path d="M22.00,90.00 L23.06,89.35 L24.12,88.47 L25.18,87.49 L26.25,86.43 L27.31,85.33 L28.37,84.20 L29.43,83.03 L30.49,81.85 L31.55,80.65 L32.61,79.44 L33.68,78.23 L34.74,77.01 L35.80,75.79 L36.86,74.57 L37.92,73.36 L38.98,72.14 L40.04,70.94 L41.11,69.74 L42.17,68.56 L43.23,67.38 L44.29,66.21 L45.35,65.06 L46.41,63.92 L47.47,62.80 L48.54,61.69 L49.60,60.59 L50.66,59.51 L51.72,58.45 L52.78,57.41 L53.84,56.38 L54.91,55.37 L55.97,54.38 L57.03,53.42 L58.09,52.47 L59.15,51.54 L60.21,50.63 L61.27,49.74 L62.34,48.87 L63.40,48.02 L64.46,47.20 L65.52,46.39 L66.58,45.61 L67.64,44.85 L68.70,44.12 L69.77,43.40 L70.83,42.71 L71.89,42.04 L72.95,41.39 L74.01,40.77 L75.07,40.17 L76.13,39.59 L77.20,39.03 L78.26,38.50 L79.32,37.99 L80.38,37.50 L81.44,37.04 L82.50,36.60 L83.56,36.18 L84.63,35.79 L85.69,35.42 L86.75,35.07 L87.81,34.75 L88.87,34.45 L89.93,34.17 L90.99,33.92 L92.06,33.68 L93.12,33.47 L94.18,33.29 L95.24,33.12 L96.30,32.98 L97.36,32.86 L98.42,32.76 L99.49,32.69 L100.55,32.63 L101.61,32.60 L102.67,32.59 L103.73,32.61 L104.79,32.64 L105.85,32.69 L106.92,32.77 L107.98,32.87 L109.04,32.98 L110.10,33.12 L111.16,33.28 L112.22,33.46 L113.28,33.66 L114.35,33.88 L115.41,34.11 L116.47,34.37 L117.53,34.65 L118.59,34.94 L119.65,35.26 L120.72,35.59 L121.78,35.94 L122.84,36.31 L123.90,36.70 L124.96,37.10 L126.02,37.52 L127.08,37.96 L128.15,38.41 L129.21,38.88 L130.27,39.37 L131.33,39.87 L132.39,40.39 L133.45,40.92 L134.51,41.47 L135.58,42.03 L136.64,42.61 L137.70,43.20 L138.76,43.80 L139.82,44.42 L140.88,45.05 L141.94,45.69 L143.01,46.34 L144.07,47.01 L145.13,47.69 L146.19,48.37 L147.25,49.07 L148.31,49.78 L149.37,50.50 L150.44,51.23 L151.50,51.96 L152.56,52.71 L153.62,53.46 L154.68,54.23 L155.74,54.99 L156.80,55.77 L157.87,56.55 L158.93,57.34 L159.99,58.13 L161.05,58.93 L162.11,59.73 L163.17,60.54 L164.23,61.35 L165.30,62.17 L166.36,62.98 L167.42,63.80 L168.48,64.62 L169.54,65.44 L170.60,66.26 L171.66,67.08 L172.73,67.90 L173.79,68.71 L174.85,69.53 L175.91,70.34 L176.97,71.15 L178.03,71.95 L179.09,72.75 L180.16,73.55 L181.22,74.34 L182.28,75.12 L183.34,75.89 L184.40,76.66 L185.46,77.41 L186.53,78.16 L187.59,78.89 L188.65,79.62 L189.71,80.33 L190.77,81.02 L191.83,81.71 L192.89,82.37 L193.96,83.02 L195.02,83.66 L196.08,84.27 L197.14,84.86 L198.20,85.44 L199.26,85.98 L200.32,86.51 L201.39,87.01 L202.45,87.48 L203.51,87.92 L204.57,88.33 L205.63,88.70 L206.69,89.04 L207.75,89.34 L208.82,89.59 L209.88,89.79 L210.94,89.94 L212.00,90.00" fill="none" stroke="#8aa0b3" stroke-width="1.05" stroke-linecap="round" stroke-linejoin="round" opacity="0.22"/><path d="M22.00,90.00 L23.06,88.52 L24.12,86.91 L25.18,85.28 L26.25,83.63 L27.31,81.99 L28.37,80.36 L29.43,78.75 L30.49,77.15 L31.55,75.57 L32.61,74.01 L33.68,72.48 L34.74,70.97 L35.80,69.49 L36.86,68.04 L37.92,66.61 L38.98,65.21 L40.04,63.83 L41.11,62.49 L42.17,61.18 L43.23,59.89 L44.29,58.63 L45.35,57.41 L46.41,56.21 L47.47,55.04 L48.54,53.90 L49.60,52.79 L50.66,51.72 L51.72,50.67 L52.78,49.65 L53.84,48.66 L54.91,47.70 L55.97,46.77 L57.03,45.88 L58.09,45.01 L59.15,44.17 L60.21,43.36 L61.27,42.57 L62.34,41.82 L63.40,41.10 L64.46,40.40 L65.52,39.74 L66.58,39.10 L67.64,38.49 L68.70,37.91 L69.77,37.36 L70.83,36.83 L71.89,36.34 L72.95,35.87 L74.01,35.42 L75.07,35.01 L76.13,34.62 L77.20,34.25 L78.26,33.92 L79.32,33.61 L80.38,33.32 L81.44,33.06 L82.50,32.83 L83.56,32.62 L84.63,32.44 L85.69,32.28 L86.75,32.14 L87.81,32.03 L88.87,31.94 L89.93,31.88 L90.99,31.84 L92.06,31.82 L93.12,31.83 L94.18,31.85 L95.24,31.90 L96.30,31.97 L97.36,32.07 L98.42,32.18 L99.49,32.32 L100.55,32.47 L101.61,32.65 L102.67,32.84 L103.73,33.06 L104.79,33.29 L105.85,33.55 L106.92,33.82 L107.98,34.11 L109.04,34.42 L110.10,34.75 L111.16,35.10 L112.22,35.46 L113.28,35.84 L114.35,36.23 L115.41,36.65 L116.47,37.07 L117.53,37.52 L118.59,37.97 L119.65,38.45 L120.72,38.94 L121.78,39.44 L122.84,39.95 L123.90,40.48 L124.96,41.03 L126.02,41.58 L127.08,42.15 L128.15,42.73 L129.21,43.32 L130.27,43.92 L131.33,44.53 L132.39,45.16 L133.45,45.79 L134.51,46.44 L135.58,47.09 L136.64,47.75 L137.70,48.42 L138.76,49.10 L139.82,49.79 L140.88,50.49 L141.94,51.19 L143.01,51.90 L144.07,52.61 L145.13,53.33 L146.19,54.06 L147.25,54.79 L148.31,55.53 L149.37,56.27 L150.44,57.01 L151.50,57.76 L152.56,58.51 L153.62,59.26 L154.68,60.02 L155.74,60.78 L156.80,61.54 L157.87,62.30 L158.93,63.06 L159.99,63.82 L161.05,64.58 L162.11,65.34 L163.17,66.09 L164.23,66.85 L165.30,67.60 L166.36,68.35 L167.42,69.10 L168.48,69.84 L169.54,70.58 L170.60,71.32 L171.66,72.04 L172.73,72.77 L173.79,73.49 L174.85,74.20 L175.91,74.90 L176.97,75.60 L178.03,76.28 L179.09,76.96 L180.16,77.63 L181.22,78.29 L182.28,78.94 L183.34,79.58 L184.40,80.20 L185.46,80.81 L186.53,81.42 L187.59,82.00 L188.65,82.58 L189.71,83.13 L190.77,83.68 L191.83,84.20 L192.89,84.71 L193.96,85.21 L195.02,85.68 L196.08,86.14 L197.14,86.57 L198.20,86.99 L199.26,87.38 L200.32,87.75 L201.39,88.10 L202.45,88.42 L203.51,88.72 L204.57,88.99 L205.63,89.23 L206.69,89.45 L207.75,89.63 L208.82,89.78 L209.88,89.89 L210.94,89.97 L212.00,90.00" fill="none" stroke="#8aa0b3" stroke-width="1.05" stroke-linecap="round" stroke-linejoin="round" opacity="0.22"/><path d="M22.00,90.00 L23.06,89.55 L24.12,88.94 L25.18,88.26 L26.25,87.53 L27.31,86.75 L28.37,85.95 L29.43,85.12 L30.49,84.28 L31.55,83.42 L32.61,82.55 L33.68,81.66 L34.74,80.77 L35.80,79.88 L36.86,78.98 L37.92,78.07 L38.98,77.16 L40.04,76.26 L41.11,75.35 L42.17,74.44 L43.23,73.54 L44.29,72.64 L45.35,71.74 L46.41,70.84 L47.47,69.95 L48.54,69.07 L49.60,68.19 L50.66,67.31 L51.72,66.45 L52.78,65.59 L53.84,64.73 L54.91,63.89 L55.97,63.05 L57.03,62.23 L58.09,61.41 L59.15,60.60 L60.21,59.80 L61.27,59.01 L62.34,58.23 L63.40,57.46 L64.46,56.71 L65.52,55.96 L66.58,55.23 L67.64,54.50 L68.70,53.79 L69.77,53.09 L70.83,52.40 L71.89,51.73 L72.95,51.07 L74.01,50.42 L75.07,49.78 L76.13,49.15 L77.20,48.54 L78.26,47.95 L79.32,47.36 L80.38,46.79 L81.44,46.24 L82.50,45.70 L83.56,45.17 L84.63,44.66 L85.69,44.16 L86.75,43.67 L87.81,43.20 L88.87,42.75 L89.93,42.31 L90.99,41.88 L92.06,41.47 L93.12,41.08 L94.18,40.70 L95.24,40.33 L96.30,39.98 L97.36,39.65 L98.42,39.33 L99.49,39.03 L100.55,38.74 L101.61,38.47 L102.67,38.22 L103.73,37.98 L104.79,37.75 L105.85,37.55 L106.92,37.35 L107.98,37.18 L109.04,37.02 L110.10,36.88 L111.16,36.75 L112.22,36.64 L113.28,36.55 L114.35,36.47 L115.41,36.41 L116.47,36.36 L117.53,36.33 L118.59,36.32 L119.65,36.32 L120.72,36.34 L121.78,36.38 L122.84,36.43 L123.90,36.50 L124.96,36.59 L126.02,36.69 L127.08,36.81 L128.15,36.95 L129.21,37.10 L130.27,37.27 L131.33,37.45 L132.39,37.65 L133.45,37.87 L134.51,38.11 L135.58,38.36 L136.64,38.62 L137.70,38.91 L138.76,39.20 L139.82,39.52 L140.88,39.85 L141.94,40.20 L143.01,40.56 L144.07,40.94 L145.13,41.34 L146.19,41.75 L147.25,42.18 L148.31,42.62 L149.37,43.08 L150.44,43.55 L151.50,44.04 L152.56,44.55 L153.62,45.07 L154.68,45.60 L155.74,46.16 L156.80,46.72 L157.87,47.30 L158.93,47.90 L159.99,48.51 L161.05,49.14 L162.11,49.78 L163.17,50.43 L164.23,51.10 L165.30,51.78 L166.36,52.48 L167.42,53.19 L168.48,53.91 L169.54,54.65 L170.60,55.40 L171.66,56.16 L172.73,56.94 L173.79,57.73 L174.85,58.53 L175.91,59.34 L176.97,60.16 L178.03,61.00 L179.09,61.85 L180.16,62.71 L181.22,63.57 L182.28,64.45 L183.34,65.34 L184.40,66.24 L185.46,67.15 L186.53,68.07 L187.59,68.99 L188.65,69.92 L189.71,70.86 L190.77,71.81 L191.83,72.76 L192.89,73.72 L193.96,74.68 L195.02,75.65 L196.08,76.61 L197.14,77.58 L198.20,78.56 L199.26,79.53 L200.32,80.49 L201.39,81.46 L202.45,82.42 L203.51,83.37 L204.57,84.31 L205.63,85.24 L206.69,86.15 L207.75,87.03 L208.82,87.88 L209.88,88.69 L210.94,89.43 L212.00,90.00" fill="none" stroke="#8aa0b3" stroke-width="1.05" stroke-linecap="round" stroke-linejoin="round" opacity="0.22"/><path d="M22.00,89.59 L23.06,78.73 L24.12,73.93 L25.18,70.29 L26.25,67.28 L27.31,64.68 L28.37,62.37 L29.43,60.30 L30.49,58.42 L31.55,56.70 L32.61,55.11 L33.68,53.64 L34.74,52.27 L35.80,51.00 L36.86,49.81 L37.92,48.70 L38.98,47.66 L40.04,46.68 L41.11,45.76 L42.17,44.90 L43.23,44.09 L44.29,43.33 L45.35,42.62 L46.41,41.95 L47.47,41.33 L48.54,40.74 L49.60,40.19 L50.66,39.68 L51.72,39.20 L52.78,38.75 L53.84,38.34 L54.91,37.96 L55.97,37.60 L57.03,37.27 L58.09,36.97 L59.15,36.70 L60.21,36.45 L61.27,36.23 L62.34,36.03 L63.40,35.85 L64.46,35.70 L65.52,35.56 L66.58,35.45 L67.64,35.36 L68.70,35.28 L69.77,35.23 L70.83,35.19 L71.89,35.18 L72.95,35.18 L74.01,35.19 L75.07,35.23 L76.13,35.28 L77.20,35.34 L78.26,35.42 L79.32,35.52 L80.38,35.63 L81.44,35.75 L82.50,35.89 L83.56,36.05 L84.63,36.21 L85.69,36.39 L86.75,36.58 L87.81,36.79 L88.87,37.00 L89.93,37.23 L90.99,37.47 L92.06,37.72 L93.12,37.98 L94.18,38.25 L95.24,38.53 L96.30,38.83 L97.36,39.13 L98.42,39.44 L99.49,39.76 L100.55,40.09 L101.61,40.43 L102.67,40.78 L103.73,41.14 L104.79,41.51 L105.85,41.88 L106.92,42.26 L107.98,42.65 L109.04,43.05 L110.10,43.46 L111.16,43.87 L112.22,44.29 L113.28,44.72 L114.35,45.15 L115.41,45.59 L116.47,46.03 L117.53,46.49 L118.59,46.95 L119.65,47.41 L120.72,47.88 L121.78,48.35 L122.84,48.83 L123.90,49.32 L124.96,49.81 L126.02,50.31 L127.08,50.81 L128.15,51.31 L129.21,51.82 L130.27,52.33 L131.33,52.85 L132.39,53.37 L133.45,53.90 L134.51,54.43 L135.58,54.96 L136.64,55.49 L137.70,56.03 L138.76,56.57 L139.82,57.12 L140.88,57.67 L141.94,58.22 L143.01,58.77 L144.07,59.32 L145.13,59.88 L146.19,60.43 L147.25,60.99 L148.31,61.55 L149.37,62.12 L150.44,62.68 L151.50,63.25 L152.56,63.81 L153.62,64.38 L154.68,64.95 L155.74,65.51 L156.80,66.08 L157.87,66.65 L158.93,67.22 L159.99,67.78 L161.05,68.35 L162.11,68.92 L163.17,69.48 L164.23,70.05 L165.30,70.61 L166.36,71.17 L167.42,71.74 L168.48,72.30 L169.54,72.85 L170.60,73.41 L171.66,73.96 L172.73,74.51 L173.79,75.06 L174.85,75.61 L175.91,76.15 L176.97,76.69 L178.03,77.22 L179.09,77.75 L180.16,78.28 L181.22,78.80 L182.28,79.32 L183.34,79.83 L184.40,80.34 L185.46,80.84 L186.53,81.34 L187.59,81.83 L188.65,82.31 L189.71,82.79 L190.77,83.26 L191.83,83.72 L192.89,84.18 L193.96,84.62 L195.02,85.06 L196.08,85.49 L197.14,85.90 L198.20,86.31 L199.26,86.70 L200.32,87.08 L201.39,87.45 L202.45,87.81 L203.51,88.14 L204.57,88.47 L205.63,88.77 L206.69,89.05 L207.75,89.31 L208.82,89.55 L209.88,89.75 L210.94,89.91 L212.00,90.00" fill="none" stroke="#8aa0b3" stroke-width="1.05" stroke-linecap="round" stroke-linejoin="round" opacity="0.22"/><path d="M22.00,90.00 L23.06,89.71 L24.12,89.20 L25.18,88.57 L26.25,87.85 L27.31,87.05 L28.37,86.19 L29.43,85.28 L30.49,84.33 L31.55,83.33 L32.61,82.31 L33.68,81.26 L34.74,80.18 L35.80,79.09 L36.86,77.97 L37.92,76.85 L38.98,75.71 L40.04,74.56 L41.11,73.41 L42.17,72.25 L43.23,71.09 L44.29,69.93 L45.35,68.77 L46.41,67.61 L47.47,66.46 L48.54,65.31 L49.60,64.17 L50.66,63.03 L51.72,61.91 L52.78,60.79 L53.84,59.69 L54.91,58.59 L55.97,57.51 L57.03,56.45 L58.09,55.40 L59.15,54.36 L60.21,53.34 L61.27,52.33 L62.34,51.35 L63.40,50.38 L64.46,49.43 L65.52,48.50 L66.58,47.59 L67.64,46.70 L68.70,45.82 L69.77,44.98 L70.83,44.15 L71.89,43.34 L72.95,42.56 L74.01,41.80 L75.07,41.06 L76.13,40.34 L77.20,39.65 L78.26,38.99 L79.32,38.34 L80.38,37.72 L81.44,37.13 L82.50,36.56 L83.56,36.01 L84.63,35.50 L85.69,35.00 L86.75,34.53 L87.81,34.09 L88.87,33.67 L89.93,33.28 L90.99,32.91 L92.06,32.57 L93.12,32.25 L94.18,31.96 L95.24,31.70 L96.30,31.46 L97.36,31.25 L98.42,31.06 L99.49,30.90 L100.55,30.76 L101.61,30.65 L102.67,30.57 L103.73,30.51 L104.79,30.47 L105.85,30.46 L106.92,30.48 L107.98,30.52 L109.04,30.58 L110.10,30.67 L111.16,30.79 L112.22,30.93 L113.28,31.09 L114.35,31.28 L115.41,31.48 L116.47,31.72 L117.53,31.97 L118.59,32.25 L119.65,32.55 L120.72,32.88 L121.78,33.22 L122.84,33.59 L123.90,33.98 L124.96,34.39 L126.02,34.82 L127.08,35.27 L128.15,35.74 L129.21,36.23 L130.27,36.74 L131.33,37.27 L132.39,37.82 L133.45,38.39 L134.51,38.97 L135.58,39.57 L136.64,40.19 L137.70,40.83 L138.76,41.48 L139.82,42.15 L140.88,42.83 L141.94,43.53 L143.01,44.24 L144.07,44.97 L145.13,45.71 L146.19,46.46 L147.25,47.23 L148.31,48.00 L149.37,48.79 L150.44,49.59 L151.50,50.40 L152.56,51.22 L153.62,52.05 L154.68,52.89 L155.74,53.73 L156.80,54.58 L157.87,55.44 L158.93,56.31 L159.99,57.18 L161.05,58.05 L162.11,58.93 L163.17,59.82 L164.23,60.71 L165.30,61.60 L166.36,62.49 L167.42,63.38 L168.48,64.27 L169.54,65.16 L170.60,66.05 L171.66,66.94 L172.73,67.82 L173.79,68.71 L174.85,69.58 L175.91,70.46 L176.97,71.32 L178.03,72.18 L179.09,73.03 L180.16,73.88 L181.22,74.71 L182.28,75.53 L183.34,76.35 L184.40,77.15 L185.46,77.94 L186.53,78.71 L187.59,79.47 L188.65,80.21 L189.71,80.94 L190.77,81.64 L191.83,82.33 L192.89,83.00 L193.96,83.65 L195.02,84.27 L196.08,84.87 L197.14,85.45 L198.20,86.00 L199.26,86.52 L200.32,87.01 L201.39,87.47 L202.45,87.91 L203.51,88.30 L204.57,88.66 L205.63,88.99 L206.69,89.27 L207.75,89.51 L208.82,89.71 L209.88,89.86 L210.94,89.96 L212.00,90.00" fill="none" stroke="#8aa0b3" stroke-width="1.05" stroke-linecap="round" stroke-linejoin="round" opacity="0.22"/><path d="M22.00,89.95 L23.06,83.48 L24.12,79.11 L25.18,75.38 L26.25,72.04 L27.31,69.00 L28.37,66.19 L29.43,63.58 L30.49,61.13 L31.55,58.84 L32.61,56.68 L33.68,54.64 L34.74,52.72 L35.80,50.91 L36.86,49.19 L37.92,47.56 L38.98,46.02 L40.04,44.57 L41.11,43.19 L42.17,41.89 L43.23,40.67 L44.29,39.50 L45.35,38.41 L46.41,37.38 L47.47,36.41 L48.54,35.50 L49.60,34.65 L50.66,33.85 L51.72,33.10 L52.78,32.41 L53.84,31.76 L54.91,31.16 L55.97,30.61 L57.03,30.11 L58.09,29.65 L59.15,29.23 L60.21,28.85 L61.27,28.51 L62.34,28.22 L63.40,27.96 L64.46,27.73 L65.52,27.55 L66.58,27.39 L67.64,27.27 L68.70,27.19 L69.77,27.13 L70.83,27.11 L71.89,27.12 L72.95,27.15 L74.01,27.22 L75.07,27.31 L76.13,27.43 L77.20,27.58 L78.26,27.75 L79.32,27.95 L80.38,28.17 L81.44,28.41 L82.50,28.68 L83.56,28.97 L84.63,29.28 L85.69,29.61 L86.75,29.96 L87.81,30.33 L88.87,30.72 L89.93,31.13 L90.99,31.55 L92.06,31.99 L93.12,32.45 L94.18,32.93 L95.24,33.42 L96.30,33.92 L97.36,34.44 L98.42,34.97 L99.49,35.52 L100.55,36.07 L101.61,36.65 L102.67,37.23 L103.73,37.82 L104.79,38.42 L105.85,39.04 L106.92,39.66 L107.98,40.30 L109.04,40.94 L110.10,41.59 L111.16,42.25 L112.22,42.91 L113.28,43.59 L114.35,44.27 L115.41,44.95 L116.47,45.64 L117.53,46.34 L118.59,47.04 L119.65,47.75 L120.72,48.46 L121.78,49.17 L122.84,49.89 L123.90,50.61 L124.96,51.33 L126.02,52.05 L127.08,52.78 L128.15,53.51 L129.21,54.23 L130.27,54.96 L131.33,55.69 L132.39,56.42 L133.45,57.15 L134.51,57.88 L135.58,58.60 L136.64,59.33 L137.70,60.05 L138.76,60.77 L139.82,61.49 L140.88,62.21 L141.94,62.92 L143.01,63.63 L144.07,64.33 L145.13,65.03 L146.19,65.73 L147.25,66.42 L148.31,67.11 L149.37,67.79 L150.44,68.46 L151.50,69.13 L152.56,69.79 L153.62,70.45 L154.68,71.10 L155.74,71.74 L156.80,72.38 L157.87,73.01 L158.93,73.63 L159.99,74.24 L161.05,74.84 L162.11,75.44 L163.17,76.02 L164.23,76.60 L165.30,77.16 L166.36,77.72 L167.42,78.27 L168.48,78.81 L169.54,79.33 L170.60,79.85 L171.66,80.36 L172.73,80.85 L173.79,81.33 L174.85,81.80 L175.91,82.26 L176.97,82.71 L178.03,83.15 L179.09,83.57 L180.16,83.98 L181.22,84.38 L182.28,84.77 L183.34,85.14 L184.40,85.50 L185.46,85.85 L186.53,86.18 L187.59,86.50 L188.65,86.81 L189.71,87.10 L190.77,87.38 L191.83,87.65 L192.89,87.90 L193.96,88.14 L195.02,88.36 L196.08,88.57 L197.14,88.76 L198.20,88.94 L199.26,89.11 L200.32,89.26 L201.39,89.39 L202.45,89.51 L203.51,89.62 L204.57,89.72 L205.63,89.80 L206.69,89.86 L207.75,89.91 L208.82,89.95 L209.88,89.98 L210.94,90.00 L212.00,90.00" fill="none" stroke="#8aa0b3" stroke-width="1.05" stroke-linecap="round" stroke-linejoin="round" opacity="0.22"/><path d="M22.00,87.85 L23.06,66.85 L24.12,60.23 L25.18,55.65 L26.25,52.09 L27.31,49.17 L28.37,46.70 L29.43,44.57 L30.49,42.71 L31.55,41.06 L32.61,39.60 L33.68,38.29 L34.74,37.11 L35.80,36.06 L36.86,35.11 L37.92,34.25 L38.98,33.48 L40.04,32.79 L41.11,32.17 L42.17,31.61 L43.23,31.12 L44.29,30.68 L45.35,30.29 L46.41,29.95 L47.47,29.66 L48.54,29.41 L49.60,29.19 L50.66,29.02 L51.72,28.88 L52.78,28.78 L53.84,28.71 L54.91,28.67 L55.97,28.65 L57.03,28.67 L58.09,28.71 L59.15,28.78 L60.21,28.87 L61.27,28.98 L62.34,29.11 L63.40,29.27 L64.46,29.45 L65.52,29.64 L66.58,29.85 L67.64,30.08 L68.70,30.33 L69.77,30.60 L70.83,30.87 L71.89,31.17 L72.95,31.48 L74.01,31.80 L75.07,32.14 L76.13,32.48 L77.20,32.85 L78.26,33.22 L79.32,33.60 L80.38,34.00 L81.44,34.40 L82.50,34.82 L83.56,35.24 L84.63,35.68 L85.69,36.12 L86.75,36.57 L87.81,37.03 L88.87,37.50 L89.93,37.97 L90.99,38.45 L92.06,38.94 L93.12,39.44 L94.18,39.94 L95.24,40.45 L96.30,40.96 L97.36,41.48 L98.42,42.01 L99.49,42.54 L100.55,43.07 L101.61,43.61 L102.67,44.15 L103.73,44.70 L104.79,45.25 L105.85,45.80 L106.92,46.36 L107.98,46.92 L109.04,47.49 L110.10,48.05 L111.16,48.62 L112.22,49.19 L113.28,49.77 L114.35,50.34 L115.41,50.92 L116.47,51.50 L117.53,52.08 L118.59,52.66 L119.65,53.24 L120.72,53.82 L121.78,54.41 L122.84,54.99 L123.90,55.58 L124.96,56.16 L126.02,56.75 L127.08,57.33 L128.15,57.91 L129.21,58.50 L130.27,59.08 L131.33,59.66 L132.39,60.24 L133.45,60.82 L134.51,61.40 L135.58,61.98 L136.64,62.56 L137.70,63.13 L138.76,63.70 L139.82,64.27 L140.88,64.84 L141.94,65.41 L143.01,65.97 L144.07,66.53 L145.13,67.09 L146.19,67.64 L147.25,68.20 L148.31,68.75 L149.37,69.29 L150.44,69.83 L151.50,70.37 L152.56,70.91 L153.62,71.44 L154.68,71.97 L155.74,72.49 L156.80,73.01 L157.87,73.52 L158.93,74.03 L159.99,74.54 L161.05,75.04 L162.11,75.53 L163.17,76.02 L164.23,76.51 L165.30,76.99 L166.36,77.46 L167.42,77.93 L168.48,78.39 L169.54,78.85 L170.60,79.30 L171.66,79.74 L172.73,80.18 L173.79,80.61 L174.85,81.04 L175.91,81.46 L176.97,81.87 L178.03,82.27 L179.09,82.66 L180.16,83.05 L181.22,83.43 L182.28,83.81 L183.34,84.17 L184.40,84.53 L185.46,84.87 L186.53,85.21 L187.59,85.54 L188.65,85.86 L189.71,86.18 L190.77,86.48 L191.83,86.77 L192.89,87.05 L193.96,87.32 L195.02,87.59 L196.08,87.84 L197.14,88.08 L198.20,88.30 L199.26,88.52 L200.32,88.73 L201.39,88.92 L202.45,89.10 L203.51,89.26 L204.57,89.41 L205.63,89.55 L206.69,89.67 L207.75,89.78 L208.82,89.86 L209.88,89.93 L210.94,89.98 L212.00,90.00" fill="none" stroke="#8aa0b3" stroke-width="1.05" stroke-linecap="round" stroke-linejoin="round" opacity="0.22"/><path d="M22.00,90.00 L23.06,89.54 L24.12,88.84 L25.18,88.01 L26.25,87.09 L27.31,86.10 L28.37,85.06 L29.43,83.97 L30.49,82.85 L31.55,81.70 L32.61,80.53 L33.68,79.33 L34.74,78.13 L35.80,76.91 L36.86,75.68 L37.92,74.45 L38.98,73.22 L40.04,71.99 L41.11,70.75 L42.17,69.53 L43.23,68.30 L44.29,67.09 L45.35,65.88 L46.41,64.68 L47.47,63.49 L48.54,62.31 L49.60,61.15 L50.66,60.00 L51.72,58.87 L52.78,57.75 L53.84,56.65 L54.91,55.56 L55.97,54.49 L57.03,53.44 L58.09,52.42 L59.15,51.41 L60.21,50.42 L61.27,49.45 L62.34,48.50 L63.40,47.58 L64.46,46.68 L65.52,45.80 L66.58,44.94 L67.64,44.11 L68.70,43.30 L69.77,42.52 L70.83,41.76 L71.89,41.02 L72.95,40.31 L74.01,39.62 L75.07,38.96 L76.13,38.32 L77.20,37.71 L78.26,37.13 L79.32,36.57 L80.38,36.03 L81.44,35.52 L82.50,35.04 L83.56,34.58 L84.63,34.15 L85.69,33.75 L86.75,33.37 L87.81,33.01 L88.87,32.69 L89.93,32.39 L90.99,32.11 L92.06,31.86 L93.12,31.64 L94.18,31.44 L95.24,31.26 L96.30,31.12 L97.36,30.99 L98.42,30.90 L99.49,30.83 L100.55,30.78 L101.61,30.76 L102.67,30.76 L103.73,30.78 L104.79,30.83 L105.85,30.91 L106.92,31.01 L107.98,31.13 L109.04,31.27 L110.10,31.44 L111.16,31.63 L112.22,31.85 L113.28,32.08 L114.35,32.34 L115.41,32.62 L116.47,32.92 L117.53,33.25 L118.59,33.59 L119.65,33.96 L120.72,34.34 L121.78,34.74 L122.84,35.17 L123.90,35.61 L124.96,36.08 L126.02,36.56 L127.08,37.06 L128.15,37.57 L129.21,38.11 L130.27,38.66 L131.33,39.23 L132.39,39.82 L133.45,40.42 L134.51,41.03 L135.58,41.67 L136.64,42.31 L137.70,42.97 L138.76,43.65 L139.82,44.34 L140.88,45.04 L141.94,45.75 L143.01,46.48 L144.07,47.21 L145.13,47.96 L146.19,48.72 L147.25,49.49 L148.31,50.27 L149.37,51.05 L150.44,51.85 L151.50,52.65 L152.56,53.46 L153.62,54.28 L154.68,55.11 L155.74,55.94 L156.80,56.77 L157.87,57.61 L158.93,58.46 L159.99,59.30 L161.05,60.15 L162.11,61.01 L163.17,61.86 L164.23,62.71 L165.30,63.57 L166.36,64.43 L167.42,65.28 L168.48,66.13 L169.54,66.98 L170.60,67.83 L171.66,68.68 L172.73,69.52 L173.79,70.35 L174.85,71.18 L175.91,72.00 L176.97,72.82 L178.03,73.63 L179.09,74.43 L180.16,75.22 L181.22,76.00 L182.28,76.77 L183.34,77.52 L184.40,78.27 L185.46,79.00 L186.53,79.72 L187.59,80.42 L188.65,81.11 L189.71,81.78 L190.77,82.43 L191.83,83.06 L192.89,83.67 L193.96,84.27 L195.02,84.84 L196.08,85.38 L197.14,85.91 L198.20,86.41 L199.26,86.88 L200.32,87.33 L201.39,87.75 L202.45,88.13 L203.51,88.49 L204.57,88.81 L205.63,89.10 L206.69,89.36 L207.75,89.57 L208.82,89.75 L209.88,89.88 L210.94,89.97 L212.00,90.00" fill="none" stroke="#8aa0b3" stroke-width="1.05" stroke-linecap="round" stroke-linejoin="round" opacity="0.22"/><path d="M22.00,90.00 L23.06,89.40 L24.12,88.54 L25.18,87.54 L26.25,86.46 L27.31,85.31 L28.37,84.12 L29.43,82.88 L30.49,81.62 L31.55,80.34 L32.61,79.04 L33.68,77.72 L34.74,76.40 L35.80,75.08 L36.86,73.75 L37.92,72.43 L38.98,71.10 L40.04,69.79 L41.11,68.48 L42.17,67.18 L43.23,65.89 L44.29,64.62 L45.35,63.35 L46.41,62.11 L47.47,60.88 L48.54,59.66 L49.60,58.47 L50.66,57.29 L51.72,56.13 L52.78,55.00 L53.84,53.88 L54.91,52.79 L55.97,51.72 L57.03,50.67 L58.09,49.65 L59.15,48.65 L60.21,47.67 L61.27,46.72 L62.34,45.80 L63.40,44.90 L64.46,44.02 L65.52,43.17 L66.58,42.35 L67.64,41.56 L68.70,40.79 L69.77,40.05 L70.83,39.33 L71.89,38.64 L72.95,37.98 L74.01,37.35 L75.07,36.74 L76.13,36.17 L77.20,35.61 L78.26,35.09 L79.32,34.60 L80.38,34.13 L81.44,33.69 L82.50,33.27 L83.56,32.89 L84.63,32.53 L85.69,32.20 L86.75,31.89 L87.81,31.62 L88.87,31.37 L89.93,31.14 L90.99,30.95 L92.06,30.78 L93.12,30.63 L94.18,30.52 L95.24,30.43 L96.30,30.36 L97.36,30.32 L98.42,30.31 L99.49,30.32 L100.55,30.35 L101.61,30.41 L102.67,30.50 L103.73,30.61 L104.79,30.74 L105.85,30.89 L106.92,31.07 L107.98,31.28 L109.04,31.50 L110.10,31.75 L111.16,32.02 L112.22,32.31 L113.28,32.63 L114.35,32.96 L115.41,33.32 L116.47,33.69 L117.53,34.09 L118.59,34.51 L119.65,34.94 L120.72,35.40 L121.78,35.87 L122.84,36.36 L123.90,36.87 L124.96,37.40 L126.02,37.94 L127.08,38.50 L128.15,39.08 L129.21,39.67 L130.27,40.28 L131.33,40.90 L132.39,41.53 L133.45,42.19 L134.51,42.85 L135.58,43.53 L136.64,44.22 L137.70,44.92 L138.76,45.63 L139.82,46.36 L140.88,47.10 L141.94,47.84 L143.01,48.60 L144.07,49.36 L145.13,50.14 L146.19,50.92 L147.25,51.71 L148.31,52.51 L149.37,53.31 L150.44,54.12 L151.50,54.93 L152.56,55.75 L153.62,56.58 L154.68,57.40 L155.74,58.24 L156.80,59.07 L157.87,59.91 L158.93,60.74 L159.99,61.58 L161.05,62.42 L162.11,63.26 L163.17,64.10 L164.23,64.94 L165.30,65.77 L166.36,66.60 L167.42,67.43 L168.48,68.26 L169.54,69.08 L170.60,69.89 L171.66,70.70 L172.73,71.50 L173.79,72.30 L174.85,73.09 L175.91,73.87 L176.97,74.64 L178.03,75.40 L179.09,76.15 L180.16,76.89 L181.22,77.61 L182.28,78.33 L183.34,79.03 L184.40,79.71 L185.46,80.39 L186.53,81.04 L187.59,81.68 L188.65,82.31 L189.71,82.91 L190.77,83.50 L191.83,84.06 L192.89,84.61 L193.96,85.14 L195.02,85.64 L196.08,86.12 L197.14,86.58 L198.20,87.02 L199.26,87.43 L200.32,87.81 L201.39,88.16 L202.45,88.49 L203.51,88.79 L204.57,89.06 L205.63,89.30 L206.69,89.50 L207.75,89.68 L208.82,89.81 L209.88,89.91 L210.94,89.98 L212.00,90.00" fill="none" stroke="#8aa0b3" stroke-width="1.05" stroke-linecap="round" stroke-linejoin="round" opacity="0.22"/><path d="M22.00,89.55 L23.06,79.63 L24.12,75.48 L25.18,72.36 L26.25,69.79 L27.31,67.57 L28.37,65.61 L29.43,63.84 L30.49,62.23 L31.55,60.76 L32.61,59.40 L33.68,58.13 L34.74,56.95 L35.80,55.84 L36.86,54.80 L37.92,53.83 L38.98,52.91 L40.04,52.04 L41.11,51.22 L42.17,50.44 L43.23,49.71 L44.29,49.01 L45.35,48.36 L46.41,47.73 L47.47,47.14 L48.54,46.58 L49.60,46.05 L50.66,45.55 L51.72,45.08 L52.78,44.63 L53.84,44.20 L54.91,43.80 L55.97,43.43 L57.03,43.07 L58.09,42.74 L59.15,42.43 L60.21,42.13 L61.27,41.86 L62.34,41.60 L63.40,41.37 L64.46,41.15 L65.52,40.94 L66.58,40.76 L67.64,40.59 L68.70,40.43 L69.77,40.29 L70.83,40.17 L71.89,40.06 L72.95,39.97 L74.01,39.88 L75.07,39.82 L76.13,39.76 L77.20,39.72 L78.26,39.69 L79.32,39.67 L80.38,39.67 L81.44,39.68 L82.50,39.70 L83.56,39.73 L84.63,39.77 L85.69,39.82 L86.75,39.89 L87.81,39.96 L88.87,40.04 L89.93,40.14 L90.99,40.24 L92.06,40.36 L93.12,40.48 L94.18,40.62 L95.24,40.76 L96.30,40.91 L97.36,41.08 L98.42,41.25 L99.49,41.43 L100.55,41.61 L101.61,41.81 L102.67,42.02 L103.73,42.23 L104.79,42.45 L105.85,42.68 L106.92,42.92 L107.98,43.16 L109.04,43.42 L110.10,43.68 L111.16,43.95 L112.22,44.22 L113.28,44.50 L114.35,44.79 L115.41,45.09 L116.47,45.39 L117.53,45.71 L118.59,46.02 L119.65,46.35 L120.72,46.68 L121.78,47.01 L122.84,47.36 L123.90,47.71 L124.96,48.06 L126.02,48.43 L127.08,48.79 L128.15,49.17 L129.21,49.55 L130.27,49.93 L131.33,50.32 L132.39,50.72 L133.45,51.12 L134.51,51.53 L135.58,51.95 L136.64,52.36 L137.70,52.79 L138.76,53.22 L139.82,53.65 L140.88,54.09 L141.94,54.54 L143.01,54.99 L144.07,55.44 L145.13,55.90 L146.19,56.36 L147.25,56.83 L148.31,57.30 L149.37,57.78 L150.44,58.26 L151.50,58.75 L152.56,59.24 L153.62,59.73 L154.68,60.23 L155.74,60.73 L156.80,61.23 L157.87,61.74 L158.93,62.26 L159.99,62.78 L161.05,63.30 L162.11,63.82 L163.17,64.35 L164.23,64.88 L165.30,65.41 L166.36,65.95 L167.42,66.49 L168.48,67.04 L169.54,67.58 L170.60,68.13 L171.66,68.68 L172.73,69.24 L173.79,69.80 L174.85,70.36 L175.91,70.92 L176.97,71.49 L178.03,72.05 L179.09,72.62 L180.16,73.19 L181.22,73.77 L182.28,74.34 L183.34,74.92 L184.40,75.49 L185.46,76.07 L186.53,76.65 L187.59,77.23 L188.65,77.82 L189.71,78.40 L190.77,78.98 L191.83,79.56 L192.89,80.15 L193.96,80.73 L195.02,81.31 L196.08,81.90 L197.14,82.48 L198.20,83.05 L199.26,83.63 L200.32,84.21 L201.39,84.78 L202.45,85.35 L203.51,85.91 L204.57,86.47 L205.63,87.02 L206.69,87.56 L207.75,88.10 L208.82,88.62 L209.88,89.12 L210.94,89.59 L212.00,90.00" fill="none" stroke="#8aa0b3" stroke-width="1.05" stroke-linecap="round" stroke-linejoin="round" opacity="0.22"/><path d="M22.00,90.00 L23.06,89.55 L24.12,88.95 L25.18,88.27 L26.25,87.54 L27.31,86.78 L28.37,85.99 L29.43,85.18 L30.49,84.35 L31.55,83.50 L32.61,82.65 L33.68,81.78 L34.74,80.91 L35.80,80.03 L36.86,79.14 L37.92,78.25 L38.98,77.37 L40.04,76.48 L41.11,75.58 L42.17,74.70 L43.23,73.81 L44.29,72.92 L45.35,72.04 L46.41,71.16 L47.47,70.29 L48.54,69.42 L49.60,68.56 L50.66,67.70 L51.72,66.85 L52.78,66.00 L53.84,65.17 L54.91,64.34 L55.97,63.51 L57.03,62.70 L58.09,61.89 L59.15,61.10 L60.21,60.31 L61.27,59.53 L62.34,58.77 L63.40,58.01 L64.46,57.26 L65.52,56.52 L66.58,55.80 L67.64,55.08 L68.70,54.38 L69.77,53.69 L70.83,53.01 L71.89,52.34 L72.95,51.68 L74.01,51.04 L75.07,50.40 L76.13,49.79 L77.20,49.18 L78.26,48.58 L79.32,48.00 L80.38,47.43 L81.44,46.88 L82.50,46.34 L83.56,45.81 L84.63,45.30 L85.69,44.80 L86.75,44.31 L87.81,43.84 L88.87,43.38 L89.93,42.93 L90.99,42.51 L92.06,42.09 L93.12,41.69 L94.18,41.30 L95.24,40.93 L96.30,40.58 L97.36,40.23 L98.42,39.91 L99.49,39.59 L100.55,39.30 L101.61,39.02 L102.67,38.75 L103.73,38.50 L104.79,38.26 L105.85,38.04 L106.92,37.84 L107.98,37.65 L109.04,37.48 L110.10,37.32 L111.16,37.18 L112.22,37.05 L113.28,36.94 L114.35,36.85 L115.41,36.77 L116.47,36.71 L117.53,36.66 L118.59,36.63 L119.65,36.61 L120.72,36.62 L121.78,36.63 L122.84,36.67 L123.90,36.72 L124.96,36.78 L126.02,36.86 L127.08,36.96 L128.15,37.07 L129.21,37.20 L130.27,37.35 L131.33,37.51 L132.39,37.69 L133.45,37.89 L134.51,38.10 L135.58,38.32 L136.64,38.57 L137.70,38.83 L138.76,39.10 L139.82,39.39 L140.88,39.70 L141.94,40.02 L143.01,40.36 L144.07,40.72 L145.13,41.09 L146.19,41.48 L147.25,41.88 L148.31,42.30 L149.37,42.73 L150.44,43.19 L151.50,43.65 L152.56,44.13 L153.62,44.63 L154.68,45.14 L155.74,45.67 L156.80,46.21 L157.87,46.77 L158.93,47.35 L159.99,47.94 L161.05,48.54 L162.11,49.16 L163.17,49.79 L164.23,50.44 L165.30,51.10 L166.36,51.78 L167.42,52.47 L168.48,53.18 L169.54,53.90 L170.60,54.63 L171.66,55.38 L172.73,56.14 L173.79,56.92 L174.85,57.71 L175.91,58.51 L176.97,59.32 L178.03,60.15 L179.09,60.99 L180.16,61.84 L181.22,62.70 L182.28,63.57 L183.34,64.46 L184.40,65.36 L185.46,66.26 L186.53,67.18 L187.59,68.11 L188.65,69.05 L189.71,69.99 L190.77,70.95 L191.83,71.91 L192.89,72.88 L193.96,73.86 L195.02,74.84 L196.08,75.83 L197.14,76.82 L198.20,77.82 L199.26,78.82 L200.32,79.82 L201.39,80.82 L202.45,81.82 L203.51,82.81 L204.57,83.80 L205.63,84.78 L206.69,85.75 L207.75,86.70 L208.82,87.62 L209.88,88.50 L210.94,89.33 L212.00,90.00" fill="none" stroke="#8aa0b3" stroke-width="1.05" stroke-linecap="round" stroke-linejoin="round" opacity="0.22"/><path d="M22.00,89.99 L23.06,86.49 L24.12,83.18 L25.18,80.01 L26.25,76.96 L27.31,74.03 L28.37,71.21 L29.43,68.48 L30.49,65.86 L31.55,63.34 L32.61,60.91 L33.68,58.57 L34.74,56.33 L35.80,54.17 L36.86,52.10 L37.92,50.11 L38.98,48.20 L40.04,46.38 L41.11,44.63 L42.17,42.97 L43.23,41.38 L44.29,39.86 L45.35,38.42 L46.41,37.05 L47.47,35.75 L48.54,34.51 L49.60,33.35 L50.66,32.25 L51.72,31.21 L52.78,30.24 L53.84,29.33 L54.91,28.49 L55.97,27.70 L57.03,26.97 L58.09,26.29 L59.15,25.67 L60.21,25.11 L61.27,24.60 L62.34,24.14 L63.40,23.73 L64.46,23.37 L65.52,23.06 L66.58,22.80 L67.64,22.58 L68.70,22.41 L69.77,22.28 L70.83,22.19 L71.89,22.15 L72.95,22.15 L74.01,22.18 L75.07,22.26 L76.13,22.37 L77.20,22.52 L78.26,22.70 L79.32,22.92 L80.38,23.17 L81.44,23.46 L82.50,23.77 L83.56,24.12 L84.63,24.49 L85.69,24.90 L86.75,25.33 L87.81,25.79 L88.87,26.27 L89.93,26.78 L90.99,27.31 L92.06,27.86 L93.12,28.44 L94.18,29.04 L95.24,29.65 L96.30,30.29 L97.36,30.95 L98.42,31.62 L99.49,32.31 L100.55,33.01 L101.61,33.74 L102.67,34.47 L103.73,35.22 L104.79,35.98 L105.85,36.76 L106.92,37.54 L107.98,38.34 L109.04,39.15 L110.10,39.96 L111.16,40.78 L112.22,41.62 L113.28,42.45 L114.35,43.30 L115.41,44.15 L116.47,45.00 L117.53,45.86 L118.59,46.72 L119.65,47.59 L120.72,48.46 L121.78,49.33 L122.84,50.20 L123.90,51.07 L124.96,51.94 L126.02,52.81 L127.08,53.68 L128.15,54.55 L129.21,55.42 L130.27,56.28 L131.33,57.14 L132.39,57.99 L133.45,58.84 L134.51,59.69 L135.58,60.53 L136.64,61.36 L137.70,62.19 L138.76,63.01 L139.82,63.83 L140.88,64.63 L141.94,65.43 L143.01,66.22 L144.07,67.00 L145.13,67.77 L146.19,68.53 L147.25,69.29 L148.31,70.03 L149.37,70.76 L150.44,71.48 L151.50,72.18 L152.56,72.88 L153.62,73.57 L154.68,74.24 L155.74,74.90 L156.80,75.54 L157.87,76.18 L158.93,76.80 L159.99,77.41 L161.05,78.00 L162.11,78.58 L163.17,79.14 L164.23,79.70 L165.30,80.23 L166.36,80.75 L167.42,81.26 L168.48,81.75 L169.54,82.23 L170.60,82.70 L171.66,83.14 L172.73,83.58 L173.79,83.99 L174.85,84.40 L175.91,84.78 L176.97,85.16 L178.03,85.51 L179.09,85.85 L180.16,86.18 L181.22,86.49 L182.28,86.79 L183.34,87.07 L184.40,87.34 L185.46,87.59 L186.53,87.83 L187.59,88.05 L188.65,88.26 L189.71,88.46 L190.77,88.64 L191.83,88.81 L192.89,88.97 L193.96,89.11 L195.02,89.24 L196.08,89.36 L197.14,89.46 L198.20,89.56 L199.26,89.64 L200.32,89.72 L201.39,89.78 L202.45,89.83 L203.51,89.88 L204.57,89.91 L205.63,89.94 L206.69,89.97 L207.75,89.98 L208.82,89.99 L209.88,90.00 L210.94,90.00 L212.00,90.00" fill="none" stroke="#8aa0b3" stroke-width="1.05" stroke-linecap="round" stroke-linejoin="round" opacity="0.22"/><path d="M22.00,90.00 L23.06,88.21 L24.12,86.47 L25.18,84.76 L26.25,83.09 L27.31,81.44 L28.37,79.84 L29.43,78.26 L30.49,76.72 L31.55,75.21 L32.61,73.72 L33.68,72.27 L34.74,70.86 L35.80,69.47 L36.86,68.11 L37.92,66.78 L38.98,65.48 L40.04,64.21 L41.11,62.97 L42.17,61.76 L43.23,60.58 L44.29,59.43 L45.35,58.30 L46.41,57.21 L47.47,56.14 L48.54,55.10 L49.60,54.09 L50.66,53.10 L51.72,52.15 L52.78,51.22 L53.84,50.31 L54.91,49.44 L55.97,48.59 L57.03,47.77 L58.09,46.97 L59.15,46.20 L60.21,45.46 L61.27,44.74 L62.34,44.04 L63.40,43.38 L64.46,42.73 L65.52,42.12 L66.58,41.52 L67.64,40.95 L68.70,40.41 L69.77,39.89 L70.83,39.39 L71.89,38.92 L72.95,38.47 L74.01,38.05 L75.07,37.64 L76.13,37.26 L77.20,36.91 L78.26,36.57 L79.32,36.26 L80.38,35.97 L81.44,35.71 L82.50,35.46 L83.56,35.24 L84.63,35.03 L85.69,34.85 L86.75,34.69 L87.81,34.55 L88.87,34.43 L89.93,34.33 L90.99,34.26 L92.06,34.20 L93.12,34.16 L94.18,34.14 L95.24,34.14 L96.30,34.16 L97.36,34.19 L98.42,34.25 L99.49,34.33 L100.55,34.42 L101.61,34.53 L102.67,34.66 L103.73,34.81 L104.79,34.97 L105.85,35.15 L106.92,35.35 L107.98,35.56 L109.04,35.79 L110.10,36.04 L111.16,36.30 L112.22,36.58 L113.28,36.88 L114.35,37.19 L115.41,37.51 L116.47,37.85 L117.53,38.21 L118.59,38.57 L119.65,38.96 L120.72,39.35 L121.78,39.76 L122.84,40.19 L123.90,40.62 L124.96,41.07 L126.02,41.53 L127.08,42.01 L128.15,42.50 L129.21,42.99 L130.27,43.50 L131.33,44.03 L132.39,44.56 L133.45,45.10 L134.51,45.65 L135.58,46.22 L136.64,46.79 L137.70,47.38 L138.76,47.97 L139.82,48.57 L140.88,49.18 L141.94,49.80 L143.01,50.43 L144.07,51.06 L145.13,51.71 L146.19,52.36 L147.25,53.02 L148.31,53.68 L149.37,54.35 L150.44,55.03 L151.50,55.71 L152.56,56.40 L153.62,57.09 L154.68,57.79 L155.74,58.50 L156.80,59.20 L157.87,59.92 L158.93,60.63 L159.99,61.35 L161.05,62.07 L162.11,62.79 L163.17,63.52 L164.23,64.24 L165.30,64.97 L166.36,65.70 L167.42,66.43 L168.48,67.16 L169.54,67.89 L170.60,68.62 L171.66,69.34 L172.73,70.07 L173.79,70.79 L174.85,71.52 L175.91,72.23 L176.97,72.95 L178.03,73.66 L179.09,74.37 L180.16,75.07 L181.22,75.77 L182.28,76.46 L183.34,77.14 L184.40,77.82 L185.46,78.49 L186.53,79.15 L187.59,79.80 L188.65,80.44 L189.71,81.07 L190.77,81.69 L191.83,82.30 L192.89,82.90 L193.96,83.48 L195.02,84.05 L196.08,84.60 L197.14,85.14 L198.20,85.66 L199.26,86.16 L200.32,86.64 L201.39,87.10 L202.45,87.54 L203.51,87.95 L204.57,88.33 L205.63,88.69 L206.69,89.02 L207.75,89.31 L208.82,89.56 L209.88,89.77 L210.94,89.92 L212.00,90.00" fill="none" stroke="#8aa0b3" stroke-width="1.05" stroke-linecap="round" stroke-linejoin="round" opacity="0.22"/><path d="M22.00,87.68 L23.06,73.56 L24.12,69.70 L25.18,67.07 L26.25,65.03 L27.31,63.34 L28.37,61.90 L29.43,60.64 L30.49,59.52 L31.55,58.51 L32.61,57.60 L33.68,56.76 L34.74,55.99 L35.80,55.28 L36.86,54.61 L37.92,54.00 L38.98,53.42 L40.04,52.88 L41.11,52.38 L42.17,51.91 L43.23,51.46 L44.29,51.04 L45.35,50.64 L46.41,50.27 L47.47,49.92 L48.54,49.59 L49.60,49.27 L50.66,48.98 L51.72,48.70 L52.78,48.43 L53.84,48.18 L54.91,47.95 L55.97,47.73 L57.03,47.52 L58.09,47.33 L59.15,47.14 L60.21,46.97 L61.27,46.81 L62.34,46.66 L63.40,46.52 L64.46,46.39 L65.52,46.27 L66.58,46.16 L67.64,46.06 L68.70,45.97 L69.77,45.88 L70.83,45.81 L71.89,45.74 L72.95,45.68 L74.01,45.63 L75.07,45.58 L76.13,45.55 L77.20,45.51 L78.26,45.49 L79.32,45.47 L80.38,45.46 L81.44,45.46 L82.50,45.46 L83.56,45.47 L84.63,45.49 L85.69,45.51 L86.75,45.54 L87.81,45.57 L88.87,45.61 L89.93,45.65 L90.99,45.70 L92.06,45.76 L93.12,45.82 L94.18,45.89 L95.24,45.96 L96.30,46.04 L97.36,46.12 L98.42,46.21 L99.49,46.30 L100.55,46.40 L101.61,46.50 L102.67,46.61 L103.73,46.72 L104.79,46.83 L105.85,46.96 L106.92,47.08 L107.98,47.21 L109.04,47.35 L110.10,47.49 L111.16,47.63 L112.22,47.78 L113.28,47.94 L114.35,48.10 L115.41,48.26 L116.47,48.43 L117.53,48.60 L118.59,48.77 L119.65,48.95 L120.72,49.14 L121.78,49.33 L122.84,49.52 L123.90,49.72 L124.96,49.92 L126.02,50.13 L127.08,50.34 L128.15,50.55 L129.21,50.77 L130.27,51.00 L131.33,51.23 L132.39,51.46 L133.45,51.70 L134.51,51.94 L135.58,52.18 L136.64,52.43 L137.70,52.69 L138.76,52.95 L139.82,53.21 L140.88,53.48 L141.94,53.75 L143.01,54.02 L144.07,54.31 L145.13,54.59 L146.19,54.88 L147.25,55.18 L148.31,55.47 L149.37,55.78 L150.44,56.09 L151.50,56.40 L152.56,56.72 L153.62,57.04 L154.68,57.37 L155.74,57.70 L156.80,58.04 L157.87,58.38 L158.93,58.73 L159.99,59.08 L161.05,59.44 L162.11,59.80 L163.17,60.17 L164.23,60.55 L165.30,60.93 L166.36,61.31 L167.42,61.70 L168.48,62.10 L169.54,62.51 L170.60,62.91 L171.66,63.33 L172.73,63.75 L173.79,64.18 L174.85,64.62 L175.91,65.06 L176.97,65.51 L178.03,65.97 L179.09,66.43 L180.16,66.90 L181.22,67.38 L182.28,67.87 L183.34,68.37 L184.40,68.87 L185.46,69.39 L186.53,69.91 L187.59,70.45 L188.65,70.99 L189.71,71.55 L190.77,72.11 L191.83,72.69 L192.89,73.29 L193.96,73.89 L195.02,74.51 L196.08,75.15 L197.14,75.81 L198.20,76.48 L199.26,77.17 L200.32,77.89 L201.39,78.63 L202.45,79.39 L203.51,80.19 L204.57,81.03 L205.63,81.91 L206.69,82.84 L207.75,83.84 L208.82,84.92 L209.88,86.14 L210.94,87.59 L212.00,89.97" fill="none" stroke="#8aa0b3" stroke-width="1.05" stroke-linecap="round" stroke-linejoin="round" opacity="0.22"/><path d="M22.00,89.92 L23.06,83.52 L24.12,79.61 L25.18,76.35 L26.25,73.49 L27.31,70.90 L28.37,68.53 L29.43,66.33 L30.49,64.28 L31.55,62.36 L32.61,60.55 L33.68,58.85 L34.74,57.23 L35.80,55.71 L36.86,54.26 L37.92,52.89 L38.98,51.58 L40.04,50.34 L41.11,49.17 L42.17,48.04 L43.23,46.98 L44.29,45.97 L45.35,45.01 L46.41,44.09 L47.47,43.22 L48.54,42.40 L49.60,41.62 L50.66,40.88 L51.72,40.18 L52.78,39.52 L53.84,38.90 L54.91,38.32 L55.97,37.76 L57.03,37.25 L58.09,36.76 L59.15,36.31 L60.21,35.89 L61.27,35.50 L62.34,35.14 L63.40,34.81 L64.46,34.51 L65.52,34.24 L66.58,33.99 L67.64,33.77 L68.70,33.57 L69.77,33.40 L70.83,33.25 L71.89,33.13 L72.95,33.03 L74.01,32.95 L75.07,32.89 L76.13,32.86 L77.20,32.85 L78.26,32.86 L79.32,32.89 L80.38,32.93 L81.44,33.00 L82.50,33.09 L83.56,33.19 L84.63,33.32 L85.69,33.46 L86.75,33.62 L87.81,33.79 L88.87,33.98 L89.93,34.19 L90.99,34.41 L92.06,34.65 L93.12,34.91 L94.18,35.18 L95.24,35.46 L96.30,35.76 L97.36,36.07 L98.42,36.39 L99.49,36.73 L100.55,37.08 L101.61,37.45 L102.67,37.82 L103.73,38.21 L104.79,38.61 L105.85,39.02 L106.92,39.44 L107.98,39.87 L109.04,40.31 L110.10,40.76 L111.16,41.22 L112.22,41.69 L113.28,42.17 L114.35,42.66 L115.41,43.16 L116.47,43.67 L117.53,44.18 L118.59,44.71 L119.65,45.24 L120.72,45.77 L121.78,46.32 L122.84,46.87 L123.90,47.43 L124.96,47.99 L126.02,48.56 L127.08,49.14 L128.15,49.72 L129.21,50.31 L130.27,50.90 L131.33,51.49 L132.39,52.09 L133.45,52.70 L134.51,53.31 L135.58,53.92 L136.64,54.54 L137.70,55.16 L138.76,55.78 L139.82,56.41 L140.88,57.04 L141.94,57.67 L143.01,58.30 L144.07,58.93 L145.13,59.57 L146.19,60.21 L147.25,60.84 L148.31,61.48 L149.37,62.12 L150.44,62.76 L151.50,63.40 L152.56,64.04 L153.62,64.68 L154.68,65.32 L155.74,65.95 L156.80,66.59 L157.87,67.22 L158.93,67.86 L159.99,68.49 L161.05,69.12 L162.11,69.74 L163.17,70.36 L164.23,70.98 L165.30,71.60 L166.36,72.21 L167.42,72.82 L168.48,73.42 L169.54,74.02 L170.60,74.62 L171.66,75.21 L172.73,75.79 L173.79,76.37 L174.85,76.94 L175.91,77.51 L176.97,78.07 L178.03,78.62 L179.09,79.17 L180.16,79.70 L181.22,80.23 L182.28,80.76 L183.34,81.27 L184.40,81.77 L185.46,82.27 L186.53,82.75 L187.59,83.23 L188.65,83.69 L189.71,84.14 L190.77,84.58 L191.83,85.01 L192.89,85.43 L193.96,85.83 L195.02,86.23 L196.08,86.60 L197.14,86.96 L198.20,87.31 L199.26,87.64 L200.32,87.96 L201.39,88.26 L202.45,88.53 L203.51,88.80 L204.57,89.04 L205.63,89.25 L206.69,89.45 L207.75,89.62 L208.82,89.77 L209.88,89.88 L210.94,89.96 L212.00,90.00" fill="none" stroke="#8aa0b3" stroke-width="1.05" stroke-linecap="round" stroke-linejoin="round" opacity="0.22"/><path d="M22.00,89.98 L23.06,86.75 L24.12,84.33 L25.18,82.19 L26.25,80.21 L27.31,78.36 L28.37,76.61 L29.43,74.94 L30.49,73.35 L31.55,71.82 L32.61,70.36 L33.68,68.95 L34.74,67.59 L35.80,66.28 L36.86,65.01 L37.92,63.79 L38.98,62.60 L40.04,61.46 L41.11,60.35 L42.17,59.28 L43.23,58.24 L44.29,57.24 L45.35,56.27 L46.41,55.33 L47.47,54.42 L48.54,53.54 L49.60,52.69 L50.66,51.87 L51.72,51.08 L52.78,50.31 L53.84,49.57 L54.91,48.85 L55.97,48.16 L57.03,47.50 L58.09,46.85 L59.15,46.24 L60.21,45.64 L61.27,45.07 L62.34,44.52 L63.40,44.00 L64.46,43.49 L65.52,43.01 L66.58,42.55 L67.64,42.11 L68.70,41.69 L69.77,41.29 L70.83,40.91 L71.89,40.55 L72.95,40.21 L74.01,39.89 L75.07,39.59 L76.13,39.31 L77.20,39.04 L78.26,38.79 L79.32,38.57 L80.38,38.36 L81.44,38.16 L82.50,37.99 L83.56,37.83 L84.63,37.69 L85.69,37.56 L86.75,37.45 L87.81,37.36 L88.87,37.29 L89.93,37.23 L90.99,37.18 L92.06,37.15 L93.12,37.14 L94.18,37.14 L95.24,37.16 L96.30,37.19 L97.36,37.24 L98.42,37.30 L99.49,37.38 L100.55,37.47 L101.61,37.57 L102.67,37.69 L103.73,37.82 L104.79,37.96 L105.85,38.12 L106.92,38.29 L107.98,38.48 L109.04,38.68 L110.10,38.89 L111.16,39.11 L112.22,39.34 L113.28,39.59 L114.35,39.85 L115.41,40.12 L116.47,40.40 L117.53,40.70 L118.59,41.01 L119.65,41.32 L120.72,41.65 L121.78,41.99 L122.84,42.34 L123.90,42.70 L124.96,43.07 L126.02,43.46 L127.08,43.85 L128.15,44.25 L129.21,44.66 L130.27,45.09 L131.33,45.52 L132.39,45.96 L133.45,46.41 L134.51,46.87 L135.58,47.34 L136.64,47.82 L137.70,48.30 L138.76,48.80 L139.82,49.30 L140.88,49.81 L141.94,50.33 L143.01,50.86 L144.07,51.39 L145.13,51.94 L146.19,52.49 L147.25,53.04 L148.31,53.61 L149.37,54.18 L150.44,54.76 L151.50,55.34 L152.56,55.93 L153.62,56.53 L154.68,57.13 L155.74,57.74 L156.80,58.35 L157.87,58.97 L158.93,59.59 L159.99,60.22 L161.05,60.86 L162.11,61.49 L163.17,62.14 L164.23,62.78 L165.30,63.43 L166.36,64.09 L167.42,64.75 L168.48,65.41 L169.54,66.07 L170.60,66.74 L171.66,67.40 L172.73,68.07 L173.79,68.75 L174.85,69.42 L175.91,70.10 L176.97,70.77 L178.03,71.45 L179.09,72.13 L180.16,72.80 L181.22,73.48 L182.28,74.16 L183.34,74.83 L184.40,75.51 L185.46,76.18 L186.53,76.85 L187.59,77.51 L188.65,78.18 L189.71,78.84 L190.77,79.49 L191.83,80.14 L192.89,80.79 L193.96,81.43 L195.02,82.06 L196.08,82.68 L197.14,83.30 L198.20,83.90 L199.26,84.50 L200.32,85.08 L201.39,85.65 L202.45,86.21 L203.51,86.75 L204.57,87.27 L205.63,87.77 L206.69,88.25 L207.75,88.70 L208.82,89.11 L209.88,89.48 L210.94,89.79 L212.00,90.00" fill="none" stroke="#8aa0b3" stroke-width="1.05" stroke-linecap="round" stroke-linejoin="round" opacity="0.22"/><path d="M22.00,89.99 L23.06,86.17 L24.12,82.95 L25.18,79.99 L26.25,77.21 L27.31,74.57 L28.37,72.06 L29.43,69.66 L30.49,67.37 L31.55,65.18 L32.61,63.07 L33.68,61.05 L34.74,59.11 L35.80,57.26 L36.86,55.47 L37.92,53.76 L38.98,52.12 L40.04,50.54 L41.11,49.04 L42.17,47.59 L43.23,46.21 L44.29,44.89 L45.35,43.62 L46.41,42.42 L47.47,41.27 L48.54,40.17 L49.60,39.13 L50.66,38.14 L51.72,37.20 L52.78,36.31 L53.84,35.47 L54.91,34.67 L55.97,33.92 L57.03,33.22 L58.09,32.56 L59.15,31.95 L60.21,31.38 L61.27,30.85 L62.34,30.36 L63.40,29.91 L64.46,29.50 L65.52,29.13 L66.58,28.80 L67.64,28.50 L68.70,28.24 L69.77,28.01 L70.83,27.82 L71.89,27.66 L72.95,27.54 L74.01,27.44 L75.07,27.38 L76.13,27.35 L77.20,27.35 L78.26,27.38 L79.32,27.44 L80.38,27.52 L81.44,27.64 L82.50,27.78 L83.56,27.94 L84.63,28.13 L85.69,28.35 L86.75,28.59 L87.81,28.85 L88.87,29.14 L89.93,29.45 L90.99,29.78 L92.06,30.13 L93.12,30.51 L94.18,30.90 L95.24,31.31 L96.30,31.74 L97.36,32.19 L98.42,32.66 L99.49,33.14 L100.55,33.64 L101.61,34.16 L102.67,34.69 L103.73,35.23 L104.79,35.79 L105.85,36.37 L106.92,36.96 L107.98,37.56 L109.04,38.17 L110.10,38.80 L111.16,39.43 L112.22,40.08 L113.28,40.74 L114.35,41.40 L115.41,42.08 L116.47,42.76 L117.53,43.46 L118.59,44.16 L119.65,44.86 L120.72,45.58 L121.78,46.30 L122.84,47.03 L123.90,47.76 L124.96,48.50 L126.02,49.24 L127.08,49.98 L128.15,50.73 L129.21,51.49 L130.27,52.24 L131.33,53.00 L132.39,53.76 L133.45,54.52 L134.51,55.28 L135.58,56.04 L136.64,56.80 L137.70,57.56 L138.76,58.33 L139.82,59.09 L140.88,59.84 L141.94,60.60 L143.01,61.35 L144.07,62.11 L145.13,62.85 L146.19,63.60 L147.25,64.34 L148.31,65.08 L149.37,65.81 L150.44,66.53 L151.50,67.25 L152.56,67.97 L153.62,68.68 L154.68,69.38 L155.74,70.08 L156.80,70.77 L157.87,71.45 L158.93,72.12 L159.99,72.79 L161.05,73.44 L162.11,74.09 L163.17,74.73 L164.23,75.36 L165.30,75.98 L166.36,76.59 L167.42,77.18 L168.48,77.77 L169.54,78.35 L170.60,78.91 L171.66,79.47 L172.73,80.01 L173.79,80.54 L174.85,81.06 L175.91,81.56 L176.97,82.06 L178.03,82.53 L179.09,83.00 L180.16,83.45 L181.22,83.89 L182.28,84.31 L183.34,84.72 L184.40,85.12 L185.46,85.50 L186.53,85.87 L187.59,86.22 L188.65,86.55 L189.71,86.87 L190.77,87.18 L191.83,87.47 L192.89,87.74 L193.96,88.00 L195.02,88.24 L196.08,88.47 L197.14,88.68 L198.20,88.87 L199.26,89.05 L200.32,89.21 L201.39,89.36 L202.45,89.49 L203.51,89.61 L204.57,89.71 L205.63,89.79 L206.69,89.86 L207.75,89.91 L208.82,89.95 L209.88,89.98 L210.94,90.00 L212.00,90.00" fill="none" stroke="#8aa0b3" stroke-width="1.05" stroke-linecap="round" stroke-linejoin="round" opacity="0.22"/>
  <path d="M22.00,89.95 L23.06,86.74 L24.12,84.81 L25.18,83.20 L26.25,81.77 L27.31,80.46 L28.37,79.25 L29.43,78.11 L30.49,77.04 L31.55,76.01 L32.61,75.04 L33.68,74.10 L34.74,73.20 L35.80,72.33 L36.86,71.49 L37.92,70.68 L38.98,69.89 L40.04,69.13 L41.11,68.39 L42.17,67.67 L43.23,66.97 L44.29,66.28 L45.35,65.62 L46.41,64.97 L47.47,64.34 L48.54,63.73 L49.60,63.13 L50.66,62.54 L51.72,61.97 L52.78,61.41 L53.84,60.86 L54.91,60.33 L55.97,59.81 L57.03,59.30 L58.09,58.80 L59.15,58.32 L60.21,57.84 L61.27,57.38 L62.34,56.93 L63.40,56.48 L64.46,56.05 L65.52,55.63 L66.58,55.21 L67.64,54.81 L68.70,54.42 L69.77,54.03 L70.83,53.66 L71.89,53.29 L72.95,52.93 L74.01,52.58 L75.07,52.24 L76.13,51.91 L77.20,51.59 L78.26,51.27 L79.32,50.97 L80.38,50.67 L81.44,50.38 L82.50,50.10 L83.56,49.82 L84.63,49.55 L85.69,49.30 L86.75,49.04 L87.81,48.80 L88.87,48.56 L89.93,48.34 L90.99,48.12 L92.06,47.90 L93.12,47.70 L94.18,47.50 L95.24,47.31 L96.30,47.12 L97.36,46.95 L98.42,46.78 L99.49,46.62 L100.55,46.46 L101.61,46.31 L102.67,46.17 L103.73,46.04 L104.79,45.91 L105.85,45.79 L106.92,45.68 L107.98,45.58 L109.04,45.48 L110.10,45.39 L111.16,45.30 L112.22,45.23 L113.28,45.16 L114.35,45.10 L115.41,45.04 L116.47,44.99 L117.53,44.95 L118.59,44.92 L119.65,44.89 L120.72,44.87 L121.78,44.86 L122.84,44.85 L123.90,44.85 L124.96,44.86 L126.02,44.88 L127.08,44.90 L128.15,44.93 L129.21,44.97 L130.27,45.01 L131.33,45.07 L132.39,45.12 L133.45,45.19 L134.51,45.27 L135.58,45.35 L136.64,45.44 L137.70,45.54 L138.76,45.64 L139.82,45.75 L140.88,45.87 L141.94,46.00 L143.01,46.14 L144.07,46.28 L145.13,46.44 L146.19,46.60 L147.25,46.76 L148.31,46.94 L149.37,47.13 L150.44,47.32 L151.50,47.52 L152.56,47.73 L153.62,47.95 L154.68,48.18 L155.74,48.42 L156.80,48.67 L157.87,48.92 L158.93,49.19 L159.99,49.46 L161.05,49.75 L162.11,50.04 L163.17,50.35 L164.23,50.66 L165.30,50.99 L166.36,51.32 L167.42,51.67 L168.48,52.03 L169.54,52.39 L170.60,52.77 L171.66,53.17 L172.73,53.57 L173.79,53.99 L174.85,54.42 L175.91,54.86 L176.97,55.31 L178.03,55.78 L179.09,56.27 L180.16,56.77 L181.22,57.28 L182.28,57.81 L183.34,58.35 L184.40,58.92 L185.46,59.50 L186.53,60.10 L187.59,60.71 L188.65,61.35 L189.71,62.01 L190.77,62.69 L191.83,63.40 L192.89,64.13 L193.96,64.88 L195.02,65.67 L196.08,66.48 L197.14,67.33 L198.20,68.22 L199.26,69.14 L200.32,70.11 L201.39,71.13 L202.45,72.20 L203.51,73.33 L204.57,74.54 L205.63,75.83 L206.69,77.23 L207.75,78.77 L208.82,80.50 L209.88,82.50 L210.94,85.00 L212.00,89.88" fill="none" stroke="#c9961f" stroke-width="2.7" stroke-linecap="round" stroke-linejoin="round"/>
  <text x="12" y="132" font-size="11" font-weight="900" fill="#7a8590">均值 0.513 · 标准差 0.242</text>
</svg>
